SplineFontDB: 3.0
FontName: Junicode
FullName: Junicode
FamilyName: Junicode
Weight: Regular
Copyright: Copyright (c) 1998-2012 by Peter S. Baker
UComments: "cap accent offset: 503+AAoA-cap accent 2nd level offset: 788+AAoA-lc accent 2nd level offset: 285+AAoA-lc accent high char offset: 600+AAoA-lower accent offset: -1455+AAoA-tilde above cap circumflex: 952+AAoA-tilde above lc circumflex 450" 
Version: 0.7.8
ItalicAngle: 0
UnderlinePosition: -100
UnderlineWidth: 70
Ascent: 1638
Descent: 410
LayerCount: 2
Layer: 0 1 "Back"  1
Layer: 1 1 "Fore"  0
XUID: [1021 585 1589297001 3544598]
FSType: 0
OS2Version: 0
OS2_WeightWidthSlopeOnly: 0
OS2_UseTypoMetrics: 1
CreationTime: 1160109490
ModificationTime: 1356639270
PfmFamily: 17
TTFWeight: 400
TTFWidth: 5
LineGap: 385
VLineGap: 0
Panose: 2 4 5 2 0 0 0 0 0 0
OS2TypoAscent: 2100
OS2TypoAOffset: 0
OS2TypoDescent: -845
OS2TypoDOffset: 0
OS2TypoLinegap: 385
OS2WinAscent: 2100
OS2WinAOffset: 0
OS2WinDescent: 845
OS2WinDOffset: 0
HheadAscent: 2100
HheadAOffset: 0
HheadDescent: -845
HheadDOffset: 0
OS2SubXSize: 1331
OS2SubYSize: 1433
OS2SubXOff: 0
OS2SubYOff: 286
OS2SupXSize: 1331
OS2SupYSize: 1433
OS2SupXOff: 0
OS2SupYOff: 983
OS2StrikeYSize: 102
OS2StrikeYPos: 530
OS2FamilyClass: 256
OS2Vendor: 'psbk'
Lookup: 4 0 0 "'ccmp' Glyph Composition/Decomposition in Greek lookup 23"  {"'ccmp' Glyph Composition/Decomposition in Greek lookup 23"  } ['ccmp' ('DFLT' <'dflt' > 'grek' <'dflt' > 'latn' <'ISL ' 'TRK ' 'dflt' > ) ]
Lookup: 4 0 0 "'ccmp' Glyph Composition/Decomposition in Latin lookup 24"  {"'ccmp' Glyph Composition/Decomposition in Latin quads"  "'ccmp' Glyph Composition/Decomposition in Latin triples"  "'ccmp' Glyph Composition/Decomposition in Latin doubles"  "'ccmp' Glyph Composition/Decomposition in Latin singles"  } ['ccmp' ('DFLT' <'dflt' > 'latn' <'ISL ' 'TRK ' 'dflt' > ) ]
Lookup: 5 0 0 "'ccmp' i to dotless i"  {"'ccmp' i to dotless i-1"  } ['ccmp' ('DFLT' <'dflt' > 'latn' <'ISL ' 'TRK ' 'dflt' > ) ]

StartChar: exclam
Encoding: 33 33 1
Width: 520
GlyphClass: 2
Flags: W
LayerCount: 2
Fore
SplineSet
260 211 m 256,0,1
 321 211 321 211 351 174 c 128,-1,2
 381 137 381 137 381 86.5 c 128,-1,3
 381 36 381 36 346.5 5.5 c 128,-1,4
 312 -25 312 -25 259 -25 c 128,-1,5
 206 -25 206 -25 172.5 11 c 128,-1,6
 139 47 139 47 139 98 c 128,-1,7
 139 149 139 149 169 180 c 128,-1,8
 199 211 199 211 260 211 c 256,0,1
166 1275 m 256,9,10
 166 1331 166 1331 196.5 1365 c 128,-1,11
 227 1399 227 1399 264 1399 c 0,12,13
 367 1399 367 1399 367 1288 c 0,14,15
 367 1225 367 1225 336 933.5 c 128,-1,16
 305 642 305 642 293 436 c 0,17,18
 292 420 292 420 260 420 c 256,19,20
 228 420 228 420 227 436 c 0,21,22
 219 635 219 635 192.5 927 c 128,-1,23
 166 1219 166 1219 166 1275 c 256,9,10
EndSplineSet
Substitution2: "'c2sc' Capitals to Small Capitals in Latin lookup 3" exclam.sc
Substitution2: "'ss18' Punctuation old spacing-1" exclam.alt
EndChar

StartChar: quotedbl
Encoding: 34 34 2
Width: 758
GlyphClass: 2
Flags: W
LayerCount: 2
Fore
SplineSet
639 1397 m 0,0,1
 639 1379 639 1379 632 1331 c 2,2,-1
 589 1048 l 2,3,4
 583 995 583 995 578 944 c 0,5,6
 577 936 577 936 544 936 c 128,-1,7
 511 936 511 936 510 944 c 0,8,9
 506 990 506 990 501 1032 c 2,10,-1
 451 1366 l 2,11,12
 449 1386 449 1386 449 1395 c 0,13,14
 449 1481 449 1481 543 1481 c 0,15,16
 639 1481 639 1481 639 1397 c 0,0,1
311 1397 m 2,17,-1
 252 944 l 2,18,19
 251 936 251 936 217 936 c 128,-1,20
 183 936 183 936 182 944 c 0,21,22
 175 1038 175 1038 150 1186 c 0,23,24
 121 1357 121 1357 121 1395 c 0,25,26
 121 1481 121 1481 217 1481 c 0,27,28
 311 1481 311 1481 311 1397 c 2,17,-1
EndSplineSet
EndChar

StartChar: numbersign
Encoding: 35 35 3
Width: 1016
GlyphClass: 2
Flags: W
LayerCount: 2
Fore
SplineSet
993 922 m 1,0,-1
 993 836 l 1,1,-1
 774 836 l 1,2,-1
 680 483 l 1,3,-1
 877 483 l 1,4,-1
 877 397 l 1,5,-1
 657 397 l 1,6,-1
 555 10 l 1,7,-1
 465 10 l 1,8,-1
 567 397 l 1,9,-1
 326 397 l 1,10,-1
 221 10 l 1,11,-1
 133 10 l 1,12,-1
 236 397 l 1,13,-1
 25 397 l 1,14,-1
 25 483 l 1,15,-1
 258 483 l 1,16,-1
 354 836 l 1,17,-1
 141 836 l 1,18,-1
 141 922 l 1,19,-1
 377 922 l 1,20,-1
 465 1249 l 1,21,-1
 555 1249 l 1,22,-1
 467 922 l 1,23,-1
 709 922 l 1,24,-1
 797 1249 l 1,25,-1
 885 1249 l 1,26,-1
 799 922 l 1,27,-1
 993 922 l 1,0,-1
684 836 m 1,28,-1
 442 836 l 1,29,-1
 348 483 l 1,30,-1
 592 483 l 1,31,-1
 684 836 l 1,28,-1
EndSplineSet
Substitution2: "'c2sc' Capitals to Small Capitals in Latin lookup 3" numbersign.sc
EndChar

StartChar: dollar
Encoding: 36 36 4
Width: 987
GlyphClass: 2
Flags: W
LayerCount: 2
Fore
SplineSet
895 389 m 0,0,1
 895 205 895 205 785 95 c 0,2,3
 691 1 691 1 545 -4 c 1,4,-1
 545 -150 l 2,5,6
 545 -166 545 -166 502 -166 c 128,-1,7
 459 -166 459 -166 459 -150 c 2,8,-1
 459 -4 l 1,9,10
 372 2 372 2 291 31 c 0,11,12
 257 45 257 45 168 88 c 1,13,14
 140 165 140 165 126 288 c 2,15,-1
 122 351 l 2,16,17
 122 359 122 359 123 365 c 0,18,19
 127 382 127 382 161 382 c 0,20,21
 185 382 185 382 186 375 c 0,22,23
 199 230 199 230 314 140 c 0,24,25
 377 91 377 91 459 74 c 1,26,-1
 459 610 l 1,27,-1
 334 668 l 2,28,29
 129 763 129 763 129 1016 c 0,30,31
 129 1138 129 1138 244 1245 c 0,32,33
 321 1316 321 1316 459 1329 c 1,34,-1
 459 1466 l 2,35,36
 459 1481 459 1481 502 1481 c 128,-1,37
 545 1481 545 1481 545 1466 c 2,38,-1
 545 1329 l 1,39,40
 629 1324 629 1324 692 1311 c 0,41,42
 782 1292 782 1292 786 1292 c 1,43,44
 811 1204 811 1204 823 1049 c 0,45,46
 824 1033 824 1033 796 1027 c 0,47,48
 763 1021 763 1021 758 1040 c 0,49,50
 736 1153 736 1153 656 1217 c 0,51,52
 607 1258 607 1258 545 1266 c 1,53,-1
 545 778 l 1,54,55
 742 717 742 717 819 629 c 0,56,57
 895 541 895 541 895 389 c 0,0,1
262 1057 m 0,58,59
 262 934 262 934 337 874 c 0,60,61
 375 844 375 844 459 809 c 1,62,-1
 459 1268 l 1,63,64
 334 1255 334 1255 285 1161 c 0,65,66
 262 1116 262 1116 262 1057 c 0,58,59
764 293 m 0,67,68
 764 485 764 485 545 575 c 1,69,-1
 545 66 l 1,70,71
 621 66 621 66 684 119 c 0,72,73
 764 182 764 182 764 293 c 0,67,68
EndSplineSet
Substitution2: "'onum' Oldstyle Figures in Latin lookup 14" dollar.oldstyle
EndChar

StartChar: percent
Encoding: 37 37 5
Width: 1823
GlyphClass: 2
Flags: W
LayerCount: 2
Fore
SplineSet
1735 403 m 0,0,1
 1735 214 1735 214 1646 95 c 0,2,3
 1559 -20 1559 -20 1415 -20 c 0,4,5
 1260 -20 1260 -20 1171 118 c 0,6,7
 1096 234 1096 234 1096 403 c 0,8,9
 1096 588 1096 588 1184 709 c 0,10,11
 1272 831 1272 831 1415 831 c 0,12,13
 1602 831 1602 831 1690 637 c 0,14,15
 1735 534 1735 534 1735 403 c 0,0,1
1583 406 m 0,16,17
 1583 586 1583 586 1527 687 c 0,18,19
 1483 764 1483 764 1415 764 c 0,20,21
 1312 764 1312 764 1269 599 c 0,22,23
 1247 513 1247 513 1247 406 c 0,24,25
 1247 232 1247 232 1302 129 c 0,26,27
 1345 47 1345 47 1415 47 c 0,28,29
 1510 47 1510 47 1555 198 c 0,30,31
 1583 291 1583 291 1583 406 c 0,16,17
504 -78 m 2,32,33
 501 -82 501 -82 495 -82 c 0,34,35
 483 -82 483 -82 458 -67 c 0,36,37
 429 -48 429 -48 434 -39 c 2,38,-1
 1309 1413 l 2,39,40
 1312 1418 1312 1418 1319 1418 c 0,41,42
 1331 1418 1331 1418 1352 1406 c 0,43,44
 1384 1386 1384 1386 1378 1374 c 2,45,-1
 504 -78 l 2,32,33
735 973 m 0,46,47
 735 764 735 764 636 646 c 0,48,49
 552 547 552 547 418 547 c 0,50,51
 258 547 258 547 170 689 c 0,52,53
 98 805 98 805 98 973 c 0,54,55
 98 1162 98 1162 187 1282 c 0,56,57
 274 1399 274 1399 418 1399 c 0,58,59
 578 1399 578 1399 665 1255 c 0,60,61
 735 1139 735 1139 735 973 c 0,46,47
586 975 m 0,62,63
 586 1157 586 1157 547 1234 c 0,64,65
 498 1331 498 1331 417 1331 c 0,66,67
 315 1331 315 1331 272 1167 c 0,68,69
 250 1082 250 1082 250 975 c 0,70,71
 250 801 250 801 304 698 c 0,72,73
 348 614 348 614 418 614 c 0,74,75
 520 614 520 614 563 777 c 0,76,77
 586 865 586 865 586 975 c 0,62,63
EndSplineSet
Substitution2: "'c2sc' Capitals to Small Capitals in Latin lookup 3" percent.sc
EndChar

StartChar: ampersand
Encoding: 38 38 6
Width: 1704
GlyphClass: 2
Flags: W
AnchorPoint: "below" 413 -75 basechar 0
LayerCount: 2
Fore
SplineSet
834 1116 m 0,0,1
 834 986 834 986 709 913 c 2,2,-1
 620 862 l 1,3,4
 834 707 834 707 1022 432 c 1,5,-1
 1114 550 l 2,6,7
 1262 742 1262 742 1262 797 c 128,-1,8
 1262 852 1262 852 1110 852 c 0,9,10
 1095 852 1095 852 1095 880 c 0,11,12
 1095 909 1095 909 1110 909 c 0,13,14
 1167 903 1167 903 1346 903 c 0,15,16
 1530 903 1530 903 1589 909 c 0,17,18
 1606 909 1606 909 1606 884 c 0,19,20
 1606 852 1606 852 1589 852 c 0,21,22
 1485 852 1485 852 1434 815 c 0,23,24
 1382 779 1382 779 1250 608 c 2,25,-1
 1065 369 l 1,26,-1
 1135 266 l 2,27,28
 1264 76 1264 76 1446 76 c 0,29,30
 1566 76 1566 76 1638 154 c 0,31,32
 1646 162 1646 162 1664 148 c 0,33,34
 1670 142 1670 142 1670 134 c 0,35,36
 1670 127 1670 127 1665 119 c 0,37,38
 1555 -29 1555 -29 1323 -29 c 0,39,40
 1166 -29 1166 -29 975 252 c 1,41,42
 759 -27 759 -27 496 -27 c 0,43,44
 289 -27 289 -27 172 102 c 0,45,46
 76 212 76 212 76 356 c 0,47,48
 76 614 76 614 281 733 c 2,49,-1
 430 819 l 1,50,51
 258 943 258 943 258 1083 c 0,52,53
 258 1205 258 1205 349 1290 c 0,54,55
 436 1372 436 1372 557 1372 c 0,56,57
 694 1372 694 1372 773 1285 c 0,58,59
 834 1217 834 1217 834 1116 c 0,0,1
549 1311 m 0,60,61
 471 1311 471 1311 426 1241 c 0,62,63
 395 1193 395 1193 395 1135 c 0,64,65
 395 1025 395 1025 569 899 c 1,66,67
 698 974 698 974 698 1122 c 0,68,69
 698 1233 698 1233 634 1283 c 0,70,71
 598 1311 598 1311 549 1311 c 0,60,61
221 422 m 0,72,73
 221 259 221 259 334 169 c 0,74,75
 424 98 424 98 555 98 c 0,76,77
 764 98 764 98 932 315 c 1,78,79
 744 592 744 592 482 782 c 1,80,81
 221 631 221 631 221 422 c 0,72,73
EndSplineSet
Substitution2: "'c2sc' Capitals to Small Capitals in Latin lookup 3" ampersand.sc
Substitution2: "'ss02' Insular Shapes subtable 0" uni204A
EndChar

StartChar: quotesingle
Encoding: 39 39 7
Width: 422
GlyphClass: 2
Flags: W
LayerCount: 2
Fore
SplineSet
307 1397 m 2,0,-1
 248 944 l 2,1,2
 247 936 247 936 213 936 c 128,-1,3
 179 936 179 936 178 944 c 0,4,5
 174 991 174 991 169 1032 c 2,6,-1
 119 1366 l 2,7,8
 117 1386 117 1386 117 1395 c 0,9,10
 117 1481 117 1481 213 1481 c 0,11,12
 307 1481 307 1481 307 1397 c 2,0,-1
EndSplineSet
EndChar

StartChar: parenleft
Encoding: 40 40 8
Width: 676
GlyphClass: 2
Flags: W
LayerCount: 2
Fore
SplineSet
647 -324 m 0,0,1
 647 -337 647 -337 622 -349 c 2,2,-1
 606 -354 l 2,3,4
 587 -354 587 -354 567 -338 c 0,5,6
 374 -164 374 -164 279 31 c 0,7,8
 160 271 160 271 160 588 c 0,9,10
 160 850 160 850 297 1147 c 0,11,12
 388 1346 388 1346 567 1516 c 0,13,14
 583 1530 583 1530 606 1530 c 0,15,16
 624 1530 624 1530 641 1513 c 0,17,18
 647 1506 647 1506 647 1501 c 0,19,20
 647 1484 647 1484 629 1464 c 0,21,22
 299 1118 299 1118 299 588 c 0,23,24
 299 63 299 63 633 -289 c 0,25,26
 647 -303 647 -303 647 -324 c 0,0,1
EndSplineSet
Substitution2: "'c2sc' Capitals to Small Capitals in Latin lookup 3" parenleft.sc
Substitution2: "'ss18' Punctuation old spacing-1" parenleft.alt
Substitution2: "'subs' Subscript in Latin-1" uni208D
Substitution2: "'sups' Superscript in Latin lookup 12" uni207D
EndChar

StartChar: parenright
Encoding: 41 41 9
Width: 651
GlyphClass: 2
Flags: W
LayerCount: 2
Fore
SplineSet
510 588 m 0,0,1
 510 326 510 326 373 29 c 0,2,3
 277 -176 277 -176 103 -338 c 0,4,5
 87 -354 87 -354 64 -354 c 0,6,7
 45 -354 45 -354 29 -336 c 0,8,9
 23 -330 23 -330 23 -324 c 0,10,11
 23 -307 23 -307 41 -289 c 0,12,13
 371 53 371 53 371 588 c 0,14,15
 371 1119 371 1119 39 1462 c 0,16,17
 23 1478 23 1478 23 1501 c 0,18,19
 23 1513 23 1513 47 1525 c 0,20,21
 57 1530 57 1530 64 1530 c 0,22,23
 87 1530 87 1530 103 1516 c 0,24,25
 297 1334 297 1334 391 1145 c 0,26,27
 510 904 510 904 510 588 c 0,0,1
EndSplineSet
Substitution2: "'c2sc' Capitals to Small Capitals in Latin lookup 3" parenright.sc
Substitution2: "'ss18' Punctuation old spacing-1" parenright.alt
Substitution2: "'subs' Subscript in Latin-1" uni208E
Substitution2: "'sups' Superscript in Latin lookup 12" uni207E
EndChar

StartChar: asterisk
Encoding: 42 42 10
Width: 807
GlyphClass: 2
Flags: W
LayerCount: 2
Fore
SplineSet
367 694 m 1,0,-1
 367 981 l 1,1,-1
 123 843 l 1,2,-1
 86 904 l 1,3,-1
 332 1044 l 1,4,-1
 86 1186 l 1,5,-1
 123 1247 l 1,6,-1
 367 1108 l 1,7,-1
 367 1384 l 1,8,-1
 438 1384 l 1,9,-1
 438 1106 l 1,10,-1
 682 1247 l 1,11,-1
 719 1186 l 1,12,-1
 475 1044 l 1,13,-1
 719 904 l 1,14,-1
 682 843 l 1,15,-1
 438 981 l 1,16,-1
 438 694 l 1,17,-1
 367 694 l 1,0,-1
EndSplineSet
EndChar

StartChar: plus
Encoding: 43 43 11
Width: 1024
GlyphClass: 2
Flags: W
LayerCount: 2
Fore
SplineSet
907 371 m 1,0,-1
 573 371 l 1,1,-1
 573 0 l 1,2,-1
 453 0 l 1,3,-1
 453 371 l 1,4,-1
 119 371 l 1,5,-1
 119 471 l 1,6,-1
 453 471 l 1,7,-1
 453 807 l 1,8,-1
 573 807 l 1,9,-1
 573 471 l 1,10,-1
 907 471 l 1,11,-1
 907 371 l 1,0,-1
EndSplineSet
Substitution2: "'subs' Subscript in Latin-1" uni208A
Substitution2: "'sups' Superscript in Latin lookup 12" uni207A
EndChar

StartChar: comma
Encoding: 44 44 12
Width: 520
GlyphClass: 2
Flags: W
LayerCount: 2
Fore
SplineSet
236 236 m 0,0,1
 315 236 315 236 369 168 c 0,2,3
 414 111 414 111 414 39 c 0,4,5
 414 -116 414 -116 288 -252 c 0,6,7
 218 -327 218 -327 133 -369 c 2,8,9
 131 -371 131 -371 129 -371 c 0,10,11
 102 -371 102 -371 102 -344 c 0,12,13
 102 -340 102 -340 104 -338 c 2,14,-1
 199 -236 l 2,15,16
 272 -144 272 -144 272 -57 c 0,17,18
 272 -8 272 -8 238 4 c 0,19,20
 121 49 121 49 121 139 c 0,21,22
 121 197 121 197 176 223 c 0,23,24
 202 236 202 236 236 236 c 0,0,1
EndSplineSet
EndChar

StartChar: hyphen
Encoding: 45 45 13
Width: 827
GlyphClass: 2
Flags: W
LayerCount: 2
Fore
SplineSet
707 602 m 2,0,1
 724 602 724 602 724 550 c 0,2,3
 724 487 724 487 705 487 c 2,4,-1
 115 487 l 2,5,6
 99 487 99 487 99 542 c 0,7,8
 99 602 99 602 115 602 c 2,9,-1
 707 602 l 2,0,1
EndSplineSet
Substitution2: "'case' Case-Sensitive Forms lookup 32-1" hyphen.cap
EndChar

StartChar: period
Encoding: 46 46 14
Width: 520
GlyphClass: 2
Flags: W
LayerCount: 2
Fore
SplineSet
139 98 m 256,0,1
 139 149 139 149 175 180 c 128,-1,2
 211 211 211 211 266 211 c 128,-1,3
 321 211 321 211 351 174 c 128,-1,4
 381 137 381 137 381 86.5 c 128,-1,5
 381 36 381 36 346.5 5.5 c 128,-1,6
 312 -25 312 -25 259 -25 c 128,-1,7
 206 -25 206 -25 172.5 11 c 128,-1,8
 139 47 139 47 139 98 c 256,0,1
EndSplineSet
EndChar

StartChar: slash
Encoding: 47 47 15
Width: 717
GlyphClass: 2
Flags: W
LayerCount: 2
Fore
SplineSet
102 -12 m 2,0,1
 100 -17 100 -17 92 -17 c 0,2,3
 78 -17 78 -17 46 -2 c 0,4,5
 4 19 4 19 4 31 c 0,6,-1
 4 33 l 1,7,-1
 614 1473 l 2,8,9
 617 1479 617 1479 628 1479 c 0,10,11
 642 1479 642 1479 672 1468 c 0,12,13
 715 1447 715 1447 715 1433 c 0,14,-1
 715 1430 l 1,15,-1
 102 -12 l 2,0,1
EndSplineSet
EndChar

StartChar: zero
Encoding: 48 48 16
Width: 956
GlyphClass: 2
Flags: W
LayerCount: 2
Fore
SplineSet
887 643 m 256,0,1
 887 362 887 362 779.5 173 c 128,-1,2
 672 -16 672 -16 474 -16 c 256,3,4
 276 -16 276 -16 173 173 c 128,-1,5
 70 362 70 362 70 666 c 256,6,7
 70 970 70 970 178 1151.5 c 128,-1,8
 286 1333 286 1333 479 1333 c 256,9,10
 678 1333 678 1333 782.5 1138.5 c 128,-1,11
 887 944 887 944 887 643 c 256,0,1
709 631 m 256,12,13
 709 864 709 864 668.5 1066 c 128,-1,14
 628 1268 628 1268 481 1268 c 256,15,16
 358 1268 358 1268 301 1088 c 128,-1,17
 244 908 244 908 244 689 c 256,18,19
 244 314 244 314 312 182.5 c 128,-1,20
 380 51 380 51 475 51 c 256,21,22
 586 51 586 51 647.5 190.5 c 128,-1,23
 709 330 709 330 709 631 c 256,12,13
EndSplineSet
Substitution2: "'subs' Subscript in Latin-1" uni2080
Substitution2: "'sups' Superscript in Latin lookup 12" uni2070
Substitution2: "'onum' Oldstyle Figures in Latin lookup 14" zero.oldstyle
EndChar

StartChar: one
Encoding: 49 49 17
Width: 956
GlyphClass: 2
Flags: W
LayerCount: 2
Fore
SplineSet
578 262 m 2,0,1
 578 113 578 113 622 81 c 128,-1,2
 666 49 666 49 756 49 c 0,3,4
 770 49 770 49 770 20.5 c 128,-1,5
 770 -8 770 -8 756 -8 c 1,6,7
 676 0 676 0 492 0 c 256,8,9
 308 0 308 0 229 -8 c 1,10,11
 215 -8 215 -8 215 20.5 c 128,-1,12
 215 49 215 49 229 49 c 0,13,14
 356 49 356 49 390 87.5 c 128,-1,15
 424 126 424 126 424 260 c 2,16,-1
 424 1130 l 2,17,18
 424 1177 424 1177 403 1177 c 0,19,20
 396 1177 396 1177 379 1169 c 2,21,-1
 250 1110 l 1,22,23
 234 1109 234 1109 226 1126.5 c 128,-1,24
 218 1144 218 1144 231 1157 c 1,25,26
 450 1263 450 1263 555 1368 c 0,27,28
 561 1374 561 1374 571 1374 c 0,29,30
 585 1374 585 1374 584 1360 c 0,31,32
 578 1235 578 1235 578 1188 c 2,33,-1
 578 262 l 2,0,1
EndSplineSet
Substitution2: "'subs' Subscript in Latin-1" uni2081
Substitution2: "'sups' Superscript in Latin lookup 12" uni00B9
Substitution2: "'onum' Oldstyle Figures in Latin lookup 14" one.oldstyle
EndChar

StartChar: two
Encoding: 50 50 18
Width: 956
GlyphClass: 2
Flags: W
LayerCount: 2
Fore
SplineSet
881 244 m 2,0,-1
 780 25 l 2,1,2
 765 -8 765 -8 729 -8 c 0,3,4
 594 0 594 0 406 0 c 0,5,6
 227 0 227 0 47 -8 c 0,7,8
 6 -8 6 -8 6 31 c 0,9,10
 6 40 6 40 16 49 c 0,11,12
 458 510 458 510 588 813 c 0,13,14
 625 894 625 894 625 997 c 0,15,16
 625 1103 625 1103 549 1163 c 0,17,18
 494 1206 494 1206 416 1206 c 0,19,20
 272 1206 272 1206 170 1024 c 0,21,22
 166 1020 166 1020 160 1020 c 0,23,24
 139 1020 139 1020 121 1037 c 0,25,26
 112 1045 112 1045 112 1051 c 0,27,28
 112 1053 112 1053 113 1055 c 0,29,30
 172 1174 172 1174 264 1245 c 0,31,32
 370 1333 370 1333 496 1333 c 0,33,34
 646 1333 646 1333 734 1227 c 0,35,36
 807 1145 807 1145 807 1008 c 0,37,38
 807 862 807 862 696 707 c 0,39,40
 636 625 636 625 528 498 c 2,41,-1
 244 180 l 2,42,43
 228 163 228 163 228 152 c 0,44,45
 228 137 228 137 258 137 c 2,46,-1
 555 137 l 2,47,48
 718 137 718 137 782 197 c 0,49,50
 809 222 809 222 825 260 c 0,51,52
 826 266 826 266 842 266 c 0,53,54
 873 265 873 265 881 252 c 0,55,56
 882 250 882 250 882 248 c 128,-1,57
 882 246 882 246 881 244 c 2,0,-1
EndSplineSet
Substitution2: "'subs' Subscript in Latin-1" uni2082
Substitution2: "'sups' Superscript in Latin lookup 12" uni00B2
Substitution2: "'onum' Oldstyle Figures in Latin lookup 14" two.oldstyle
EndChar

StartChar: three
Encoding: 51 51 19
Width: 956
GlyphClass: 2
Flags: W
LayerCount: 2
Fore
SplineSet
819 414 m 0,0,1
 819 229 819 229 686 102 c 0,2,3
 555 -23 555 -23 371 -23 c 0,4,5
 230 -23 230 -23 152 31 c 0,6,7
 96 69 96 69 96 127 c 0,8,9
 96 165 96 165 134 189 c 0,10,11
 154 201 154 201 176 201 c 0,12,13
 212 201 212 201 278 127 c 0,14,15
 347 53 347 53 424 53 c 0,16,17
 532 53 532 53 598 170 c 0,18,19
 649 264 649 264 649 387 c 0,20,21
 649 517 649 517 575 602 c 0,22,23
 500 690 500 690 367 690 c 0,24,25
 302 690 302 690 254 674 c 1,26,27
 240 674 240 674 240 715 c 0,28,29
 240 754 240 754 254 754 c 0,30,31
 434 754 434 754 529 847 c 0,32,33
 600 917 600 917 600 1026 c 0,34,35
 600 1127 600 1127 531 1185 c 0,36,37
 481 1227 481 1227 412 1227 c 0,38,39
 294 1227 294 1227 205 1090 c 0,40,41
 204 1087 204 1087 199 1087 c 0,42,43
 177 1087 177 1087 160 1109 c 0,44,45
 152 1118 152 1118 152 1126 c 0,46,47
 152 1128 152 1128 154 1130 c 0,48,49
 291 1333 291 1333 479 1333 c 0,50,51
 594 1333 594 1333 672 1249 c 0,52,53
 752 1164 752 1164 752 1053 c 0,54,55
 752 886 752 886 569 782 c 0,56,57
 537 764 537 764 537 757 c 0,58,59
 537 746 537 746 565 741 c 0,60,61
 819 690 819 690 819 414 c 0,0,1
EndSplineSet
Substitution2: "'subs' Subscript in Latin-1" uni2083
Substitution2: "'sups' Superscript in Latin lookup 12" uni00B3
Substitution2: "'onum' Oldstyle Figures in Latin lookup 14" three.oldstyle
EndChar

StartChar: four
Encoding: 52 52 20
Width: 956
GlyphClass: 2
Flags: W
LayerCount: 2
Fore
SplineSet
870 391 m 2,0,-1
 754 391 l 2,1,2
 731 391 731 391 731 371 c 2,3,-1
 731 127 l 2,4,5
 731 49 731 49 852 49 c 0,6,7
 866 49 866 49 866 20.5 c 128,-1,8
 866 -8 866 -8 852 -8 c 1,9,10
 775 0 775 0 662 0 c 0,11,12
 497 0 497 0 420 -8 c 1,13,14
 406 -8 406 -8 406 20.5 c 128,-1,15
 406 49 406 49 420 49 c 0,16,17
 578 49 578 49 578 127 c 2,18,-1
 578 371 l 2,19,20
 578 391 578 391 557 391 c 2,21,-1
 80 391 l 2,22,23
 13 391 13 391 13 428 c 0,24,25
 13 439 13 439 20 456 c 0,26,27
 31 482 31 482 59 520 c 2,28,-1
 281 821 l 2,29,30
 295 840 295 840 700 1425 c 0,31,32
 709 1438 709 1438 739 1438 c 0,33,34
 797 1438 797 1438 797 1407 c 1,35,-1
 150 510 l 2,36,37
 142 499 142 499 142 491 c 0,38,39
 142 477 142 477 168 477 c 2,40,-1
 557 477 l 2,41,42
 578 477 578 477 578 498 c 2,43,-1
 578 942 l 2,44,45
 578 957 578 957 654 957 c 0,46,47
 731 957 731 957 731 942 c 2,48,-1
 731 498 l 2,49,50
 731 477 731 477 754 477 c 2,51,-1
 870 477 l 2,52,53
 888 477 888 477 888 434 c 128,-1,54
 888 391 888 391 870 391 c 2,0,-1
EndSplineSet
Substitution2: "'subs' Subscript in Latin-1" uni2084
Substitution2: "'sups' Superscript in Latin lookup 12" uni2074
Substitution2: "'onum' Oldstyle Figures in Latin lookup 14" four.oldstyle
EndChar

StartChar: five
Encoding: 53 53 21
Width: 956
GlyphClass: 2
Flags: W
LayerCount: 2
Fore
SplineSet
813 496 m 0,0,1
 813 281 813 281 682 135 c 0,2,3
 546 -16 546 -16 334 -16 c 0,4,5
 193 -16 193 -16 128 37 c 0,6,7
 92 68 92 68 92 111 c 0,8,9
 92 193 92 193 174 193 c 0,10,11
 213 193 213 193 283 129 c 0,12,13
 351 68 351 68 418 68 c 0,14,15
 530 68 530 68 608 184 c 0,16,17
 676 285 676 285 676 406 c 0,18,19
 676 614 676 614 535 697 c 0,20,21
 457 743 457 743 344 743 c 0,22,23
 294 743 294 743 215 725 c 2,24,-1
 202 725 l 2,25,26
 187 725 187 725 187 748 c 0,27,28
 187 753 187 753 188 758 c 2,29,-1
 281 1288 l 2,30,31
 286 1317 286 1317 313 1317 c 2,32,-1
 784 1317 l 2,33,34
 791 1317 791 1317 791 1300 c 0,35,36
 791 1247 791 1247 765 1193 c 0,37,38
 756 1174 756 1174 750 1174 c 2,39,-1
 367 1174 l 2,40,41
 338 1174 338 1174 334 1147 c 2,42,-1
 291 913 l 2,43,44
 288 890 288 890 303 890 c 2,45,-1
 383 895 l 2,46,47
 616 895 616 895 730 756 c 0,48,49
 813 655 813 655 813 496 c 0,0,1
EndSplineSet
Substitution2: "'subs' Subscript in Latin-1" uni2085
Substitution2: "'sups' Superscript in Latin lookup 12" uni2075
Substitution2: "'onum' Oldstyle Figures in Latin lookup 14" five.oldstyle
EndChar

StartChar: six
Encoding: 54 54 22
Width: 956
GlyphClass: 2
Flags: W
LayerCount: 2
Fore
SplineSet
473 -16 m 0,0,1
 282 -16 282 -16 181 144 c 0,2,3
 100 272 100 272 100 465 c 0,4,5
 100 751 100 751 299 1010 c 0,6,7
 495 1264 495 1264 752 1378 c 1,8,-1
 761 1378 l 2,9,10
 784 1371 784 1371 784 1341 c 0,11,12
 784 1332 784 1332 778 1329 c 0,13,14
 485 1163 485 1163 363 902 c 0,15,16
 305 779 305 779 281 629 c 1,17,18
 433 766 433 766 549 766 c 0,19,20
 691 766 691 766 780 647 c 0,21,22
 864 538 864 538 864 391 c 0,23,24
 864 223 864 223 758 107 c 0,25,26
 647 -16 647 -16 473 -16 c 0,0,1
498 63 m 0,27,28
 601 63 601 63 662 159 c 0,29,30
 709 232 709 232 709 330 c 0,31,32
 709 476 709 476 636 569 c 0,33,34
 570 653 570 653 469 653 c 0,35,36
 356 653 356 653 270 543 c 1,37,38
 264 500 264 500 264 461 c 0,39,40
 264 194 264 194 377 103 c 0,41,42
 427 63 427 63 498 63 c 0,27,28
EndSplineSet
Substitution2: "'subs' Subscript in Latin-1" uni2086
Substitution2: "'sups' Superscript in Latin lookup 12" uni2076
Substitution2: "'onum' Oldstyle Figures in Latin lookup 14" six.oldstyle
EndChar

StartChar: seven
Encoding: 55 55 23
Width: 956
GlyphClass: 2
Flags: W
LayerCount: 2
Fore
SplineSet
889 1264 m 2,0,-1
 379 0 l 2,1,2
 372 -14 372 -14 297 -14 c 0,3,4
 229 -14 229 -14 229 0 c 1,5,6
 242 22 242 22 280 100 c 2,7,-1
 342 238 l 1,8,-1
 739 1139 l 2,9,10
 748 1161 748 1161 748 1167 c 0,11,12
 748 1182 748 1182 715 1182 c 2,13,-1
 500 1182 l 2,14,15
 337 1182 337 1182 289 1169 c 0,16,17
 183 1140 183 1140 143 1038 c 0,18,19
 137 1024 137 1024 109 1024 c 0,20,21
 85 1024 85 1024 84 1038 c 2,22,-1
 135 1286 l 2,23,24
 141 1317 141 1317 176 1317 c 2,25,-1
 858 1317 l 2,26,27
 897 1317 897 1317 897 1294 c 0,28,29
 897 1283 897 1283 889 1264 c 2,0,-1
EndSplineSet
Substitution2: "'subs' Subscript in Latin-1" uni2087
Substitution2: "'sups' Superscript in Latin lookup 12" uni2077
Substitution2: "'onum' Oldstyle Figures in Latin lookup 14" seven.oldstyle
EndChar

StartChar: eight
Encoding: 56 56 24
Width: 956
GlyphClass: 2
Flags: W
LayerCount: 2
Fore
SplineSet
477 -16 m 0,0,1
 306 -16 306 -16 201 82 c 0,2,3
 104 172 104 172 104 315 c 0,4,5
 104 524 104 524 377 668 c 1,6,7
 250 750 250 750 211 809 c 0,8,9
 141 902 141 902 141 1008 c 0,10,11
 141 1142 141 1142 240 1241 c 0,12,13
 333 1333 333 1333 477 1333 c 0,14,15
 660 1333 660 1333 748 1225 c 0,16,17
 809 1151 809 1151 809 1038 c 0,18,19
 809 830 809 830 582 711 c 1,20,21
 852 538 852 538 852 332 c 0,22,23
 852 178 852 178 739 80 c 0,24,25
 631 -16 631 -16 477 -16 c 0,0,1
258 1075 m 0,26,27
 258 947 258 947 417 829 c 0,28,29
 450 804 450 804 528 754 c 1,30,31
 670 854 670 854 670 997 c 0,32,33
 670 1127 670 1127 595 1201 c 0,34,35
 542 1257 542 1257 453 1257 c 0,36,37
 351 1257 351 1257 295 1186 c 0,38,39
 258 1138 258 1138 258 1075 c 0,26,27
709 260 m 0,40,41
 709 388 709 388 621 473 c 0,42,43
 536 554 536 554 463 605 c 2,44,-1
 434 625 l 1,45,46
 260 524 260 524 260 336 c 0,47,48
 260 224 260 224 328 139 c 0,49,50
 399 51 399 51 508 51 c 0,51,52
 609 51 609 51 667 128 c 0,53,54
 709 184 709 184 709 260 c 0,40,41
EndSplineSet
Substitution2: "'subs' Subscript in Latin-1" uni2088
Substitution2: "'sups' Superscript in Latin lookup 12" uni2078
Substitution2: "'onum' Oldstyle Figures in Latin lookup 14" eight.oldstyle
EndChar

StartChar: nine
Encoding: 57 57 25
Width: 956
GlyphClass: 2
Flags: W
LayerCount: 2
Fore
SplineSet
483 1333 m 0,0,1
 661 1333 661 1333 764 1188 c 0,2,3
 856 1059 856 1059 856 864 c 0,4,5
 856 552 856 552 618 278 c 0,6,7
 449 85 449 85 213 -35 c 1,8,-1
 205 -36 l 1,9,10
 189 -31 189 -31 178 -1 c 0,11,12
 174 9 174 9 174 16 c 0,13,14
 174 22 174 22 180 27 c 0,15,16
 370 138 370 138 508 297 c 0,17,18
 625 431 625 431 674 686 c 1,19,20
 546 551 546 551 416 551 c 0,21,22
 282 551 282 551 188 654 c 0,23,24
 95 764 95 764 92 907 c 0,25,26
 92 1099 92 1099 202 1218 c 0,27,28
 309 1333 309 1333 483 1333 c 0,0,1
248 975 m 0,29,30
 248 840 248 840 318 748 c 0,31,32
 383 662 383 662 481 662 c 0,33,34
 593 662 593 662 684 774 c 1,35,36
 690 818 690 818 690 862 c 0,37,38
 690 1096 690 1096 592 1195 c 0,39,40
 557 1228 557 1228 453 1251 c 0,41,42
 344 1251 344 1251 287 1145 c 0,43,44
 248 1072 248 1072 248 975 c 0,29,30
EndSplineSet
Substitution2: "'subs' Subscript in Latin-1" uni2089
Substitution2: "'sups' Superscript in Latin lookup 12" uni2079
Substitution2: "'onum' Oldstyle Figures in Latin lookup 14" nine.oldstyle
EndChar

StartChar: colon
Encoding: 58 58 26
Width: 594
GlyphClass: 2
Flags: W
LayerCount: 2
Fore
SplineSet
215 98 m 256,0,1
 215 149 215 149 251 180 c 128,-1,2
 287 211 287 211 342 211 c 128,-1,3
 397 211 397 211 427 174 c 128,-1,4
 457 137 457 137 457 86.5 c 128,-1,5
 457 36 457 36 422.5 5.5 c 128,-1,6
 388 -25 388 -25 335 -25 c 128,-1,7
 282 -25 282 -25 248.5 11 c 128,-1,8
 215 47 215 47 215 98 c 256,0,1
215 740 m 256,9,10
 215 790 215 790 251.5 821 c 128,-1,11
 288 852 288 852 342.5 852 c 128,-1,12
 397 852 397 852 427 815 c 128,-1,13
 457 778 457 778 457 727.5 c 128,-1,14
 457 677 457 677 423 646.5 c 128,-1,15
 389 616 389 616 336 616 c 128,-1,16
 283 616 283 616 249 652 c 128,-1,17
 215 688 215 688 215 740 c 256,9,10
EndSplineSet
Substitution2: "'ss18' Punctuation old spacing-1" colon.alt
EndChar

StartChar: semicolon
Encoding: 59 59 27
Width: 594
GlyphClass: 2
Flags: W
LayerCount: 2
Fore
SplineSet
308 236 m 0,0,1
 387 236 387 236 441 168 c 0,2,3
 486 111 486 111 486 39 c 0,4,5
 486 -116 486 -116 360 -252 c 0,6,7
 290 -327 290 -327 205 -369 c 2,8,9
 203 -371 203 -371 201 -371 c 0,10,11
 174 -371 174 -371 174 -344 c 0,12,13
 174 -340 174 -340 176 -338 c 2,14,-1
 271 -236 l 2,15,16
 344 -144 344 -144 344 -57 c 0,17,18
 344 -8 344 -8 310 4 c 0,19,20
 193 49 193 49 193 139 c 0,21,22
 193 197 193 197 248 223 c 0,23,24
 274 236 274 236 308 236 c 0,0,1
311 855 m 0,25,26
 376 855 376 855 408 800 c 0,27,28
 426 770 426 770 426 732 c 0,29,30
 426 667 426 667 372 635 c 0,31,32
 345 619 345 619 311 619 c 0,33,34
 237 619 237 619 202 675 c 0,35,36
 184 704 184 704 184 740 c 0,37,38
 184 808 184 808 242 839 c 0,39,40
 272 855 272 855 311 855 c 0,25,26
EndSplineSet
Substitution2: "'ss18' Punctuation old spacing-1" semicolon.alt
EndChar

StartChar: less
Encoding: 60 60 28
Width: 1024
GlyphClass: 2
Flags: W
LayerCount: 2
Fore
SplineSet
911 -2 m 1,0,-1
 115 375 l 1,1,-1
 115 467 l 1,2,-1
 911 846 l 1,3,-1
 911 727 l 1,4,-1
 262 424 l 1,5,-1
 262 420 l 1,6,-1
 911 115 l 1,7,-1
 911 -2 l 1,0,-1
EndSplineSet
EndChar

StartChar: equal
Encoding: 61 61 29
Width: 1024
GlyphClass: 2
Flags: W
LayerCount: 2
Fore
SplineSet
907 596 m 1,0,-1
 119 596 l 1,1,-1
 119 696 l 1,2,-1
 907 696 l 1,3,-1
 907 596 l 1,0,-1
907 330 m 1,4,-1
 119 330 l 1,5,-1
 119 430 l 1,6,-1
 907 430 l 1,7,-1
 907 330 l 1,4,-1
EndSplineSet
Substitution2: "'subs' Subscript in Latin-1" uni208C
Substitution2: "'sups' Superscript in Latin lookup 12" uni207C
EndChar

StartChar: greater
Encoding: 62 62 30
Width: 1024
GlyphClass: 2
Flags: W
LayerCount: 2
Fore
SplineSet
909 375 m 1,0,-1
 113 -2 l 1,1,-1
 113 115 l 1,2,-1
 762 420 l 1,3,-1
 762 424 l 1,4,-1
 113 727 l 1,5,-1
 113 846 l 1,6,-1
 909 467 l 1,7,-1
 909 375 l 1,0,-1
EndSplineSet
EndChar

StartChar: question
Encoding: 63 63 31
Width: 752
GlyphClass: 2
Flags: W
LayerCount: 2
Fore
SplineSet
279 1194 m 0,0,1
 211 1194 211 1194 211 1280 c 0,2,3
 211 1362 211 1362 295 1362 c 0,4,5
 425 1362 425 1362 539 1231 c 0,6,7
 654 1090 654 1090 657 930 c 0,8,9
 657 784 657 784 575 741 c 2,10,-1
 410 653 l 2,11,12
 336 612 336 612 336 563 c 0,13,14
 336 507 336 507 356 438 c 0,15,16
 356 423 356 423 334 419 c 0,17,18
 319 418 319 418 311 426 c 0,19,20
 236 562 236 562 236 637 c 0,21,22
 236 726 236 726 350 788 c 2,23,-1
 455 844 l 2,24,25
 571 906 571 906 571 995 c 0,26,27
 571 1194 571 1194 279 1194 c 0,0,1
459 86 m 0,28,29
 459 19 459 19 405 -14 c 0,30,31
 375 -31 375 -31 340 -31 c 0,32,33
 279 -31 279 -31 243 18 c 0,34,35
 221 49 221 49 221 86 c 0,36,37
 221 155 221 155 272 192 c 0,38,39
 302 213 302 213 340 213 c 0,40,41
 404 213 404 213 439 157 c 0,42,43
 459 125 459 125 459 86 c 0,28,29
EndSplineSet
Substitution2: "'c2sc' Capitals to Small Capitals in Latin lookup 3" question.sc
Substitution2: "'ss18' Punctuation old spacing-1" question.alt
EndChar

StartChar: at
Encoding: 64 64 32
Width: 1556
GlyphClass: 2
Flags: W
LayerCount: 2
Fore
SplineSet
1177 95 m 128,-1,1
 1186 76 1186 76 1178 72 c 0,2,3
 1012 -33 1012 -33 782 -33 c 0,4,5
 502 -33 502 -33 309 121 c 0,6,7
 92 295 92 295 92 600 c 0,8,9
 92 946 92 946 338 1171 c 0,10,11
 574 1384 574 1384 901 1384 c 0,12,13
 1181 1384 1181 1384 1350 1221 c 0,14,15
 1505 1071 1505 1071 1505 852 c 0,16,17
 1505 651 1505 651 1364 508 c 0,18,19
 1216 358 1216 358 975 358 c 0,20,21
 884 358 884 358 864 383 c 0,22,23
 852 398 852 398 852 422 c 0,24,25
 852 449 852 449 896 581 c 0,26,27
 899 590 899 590 901 596 c 1,28,-1
 893 600 l 1,29,30
 712 360 712 360 590 360 c 0,31,32
 498 360 498 360 498 487 c 0,33,34
 498 640 498 640 621 821 c 0,35,36
 751 1014 751 1014 903 1014 c 0,37,38
 955 1014 955 1014 1004 973 c 1,39,-1
 1020 1024 l 2,40,41
 1026 1042 1026 1042 1067 1042 c 0,42,43
 1115 1042 1115 1042 1110 1024 c 2,44,-1
 969 532 l 2,45,46
 959 496 959 496 959 472 c 0,47,48
 959 426 959 426 1001 426 c 0,49,50
 1180 426 1180 426 1294 539 c 0,51,52
 1417 660 1417 660 1417 844 c 0,53,54
 1417 1050 1417 1050 1265 1187 c 0,55,56
 1123 1315 1123 1315 903 1315 c 0,57,58
 586 1315 586 1315 406 1100 c 0,59,60
 233 896 233 896 233 602 c 0,61,62
 233 384 233 384 362 229 c 0,63,64
 524 39 524 39 844 39 c 0,65,66
 988 39 988 39 1161 111 c 0,67,68
 1168 114 1168 114 1177 95 c 128,-1,1
981 901 m 2,69,70
 981 965 981 965 883 965 c 0,71,72
 780 965 780 965 688 786 c 0,73,74
 608 628 608 628 608 512 c 0,75,76
 608 442 608 442 653 442 c 0,77,78
 706 442 706 442 822 574 c 0,79,80
 863 621 863 621 883 651 c 0,81,82
 930 722 930 722 959 824 c 2,83,-1
 981 901 l 2,69,70
EndSplineSet
EndChar

StartChar: A
Encoding: 65 65 33
Width: 1398
GlyphClass: 2
Flags: W
AnchorPoint: "below" 648 -75 basechar 0
AnchorPoint: "above" 687 1415 basechar 0
LayerCount: 2
Fore
SplineSet
1175 186 m 2,0,1
 1214 69 1214 69 1367 69 c 0,2,3
 1380 69 1380 69 1380 31 c 128,-1,4
 1380 -7 1380 -7 1367 -7 c 1,5,6
 1294 0 1294 0 1136 0 c 256,7,8
 978 0 978 0 906 -7 c 1,9,10
 892 -7 892 -7 892 31 c 128,-1,11
 892 69 892 69 906 69 c 0,12,13
 1005 69 1005 69 1005 137 c 0,14,15
 1005 160 1005 160 997 186 c 2,16,-1
 896 499 l 2,17,18
 887 531 887 531 852 531 c 2,19,-1
 445 531 l 2,20,21
 417 531 417 531 405 496 c 2,22,-1
 292 182 l 2,23,24
 283 160 283 160 283 142 c 0,25,26
 283 69 283 69 434 69 c 0,27,28
 448 69 448 69 448 31 c 128,-1,29
 448 -7 448 -7 434 -7 c 1,30,31
 349 0 349 0 221 0 c 256,32,33
 93 0 93 0 9 -7 c 1,34,35
 -5 -7 -5 -7 -4.5 31 c 128,-1,36
 -4 69 -4 69 9 69 c 0,37,38
 106 69 106 69 138 97 c 128,-1,39
 170 125 170 125 204 201 c 2,40,-1
 581 1188 l 2,41,42
 587 1205 587 1205 587 1218 c 128,-1,43
 587 1231 587 1231 574 1244.5 c 128,-1,44
 561 1258 561 1258 561 1264 c 128,-1,45
 561 1270 561 1270 600.5 1291.5 c 128,-1,46
 640 1313 640 1313 693 1350 c 128,-1,47
 746 1387 746 1387 758 1387 c 0,48,49
 781 1387 781 1387 793 1343 c 0,50,51
 819 1246 819 1246 842 1177 c 2,52,-1
 1175 186 l 2,0,1
831 600 m 2,53,54
 856 600 856 600 856 616 c 0,55,56
 856 621 856 621 854 627 c 2,57,-1
 684 1159 l 2,58,59
 678 1179 678 1179 666 1179 c 128,-1,60
 654 1179 654 1179 647 1159 c 2,61,-1
 450 627 l 2,62,63
 448 622 448 622 448 616 c 0,64,65
 448 600 448 600 472 600 c 2,66,-1
 831 600 l 2,53,54
EndSplineSet
Substitution2: "'ss19' Gothic transliteration-1" u10330
Substitution2: "'ss07' Underdotted lookup 0-1" uni1EA0
AlternateSubs2: "'salt' Stylistic Alternatives in Latin lookup 19" uniF13A a.enlarged
Substitution2: "'salt' Stylistic Alternatives in Latin lookup 18" uniF13A
Substitution2: "'c2sc' Capitals to Small Capitals in Latin lookup 3" a.sc
EndChar

StartChar: B
Encoding: 66 66 34
Width: 1250
GlyphClass: 2
Flags: W
AnchorPoint: "below" 573 -75 basechar 0
AnchorPoint: "above" 537 1415 basechar 0
LayerCount: 2
Fore
SplineSet
271 186 m 2,0,-1
 271 1172 l 2,1,2
 271 1282 271 1282 82 1282 c 0,3,4
 68 1282 68 1282 68 1320 c 128,-1,5
 68 1358 68 1358 82 1358 c 9,6,7
 196 1352 196 1352 322 1352 c 256,8,9
 448 1352 448 1352 503 1355 c 128,-1,10
 558 1358 558 1358 629 1358 c 0,11,12
 802 1358 802 1358 919 1277 c 128,-1,13
 1036 1196 1036 1196 1036 1035 c 256,14,15
 1036 836 1036 836 840 745 c 0,16,17
 825 738 825 738 825 731.5 c 128,-1,18
 825 725 825 725 840 720 c 0,19,20
 948 685 948 685 1038.5 592.5 c 128,-1,21
 1129 500 1129 500 1129 347 c 256,22,23
 1129 205 1129 205 1024.5 99 c 128,-1,24
 920 -7 920 -7 629 -7 c 0,25,26
 565 -7 565 -7 489 -3.5 c 128,-1,27
 413 0 413 0 293 0 c 256,28,29
 173 0 173 0 91 -7 c 17,30,31
 78 -7 78 -7 77.5 30.5 c 128,-1,32
 77 68 77 68 91 69 c 0,33,34
 271 69 271 69 271 186 c 2,0,-1
431 789 m 2,35,36
 431 753 431 753 510 753 c 0,37,38
 864 753 864 753 864 1032 c 256,39,40
 864 1297 864 1297 483 1297 c 0,41,42
 431 1297 431 1297 431 1230 c 2,43,-1
 431 789 l 2,35,36
431 277 m 2,44,45
 431 57 431 57 615 57 c 0,46,47
 948 57 948 57 948 372 c 256,48,49
 948 583 948 583 726 661 c 0,50,51
 639 690 639 690 466 691 c 0,52,53
 431 691 431 691 431 661 c 2,54,-1
 431 277 l 2,44,45
EndSplineSet
Substitution2: "'ss19' Gothic transliteration-1" u10331
Substitution2: "'ss07' Underdotted lookup 0-1" uni1E04
Substitution2: "'salt' Stylistic Alternatives in Latin lookup 18" b.enlarged
Substitution2: "'c2sc' Capitals to Small Capitals in Latin lookup 3" b.sc
EndChar

StartChar: C
Encoding: 67 67 35
Width: 1344
GlyphClass: 2
Flags: W
AnchorPoint: "above" 807 1415 basechar 0
AnchorPoint: "below" 753 -75 basechar 0
LayerCount: 2
Fore
SplineSet
91 647 m 256,0,1
 91 870 91 870 186.5 1034.5 c 128,-1,2
 282 1199 282 1199 435 1292 c 128,-1,3
 588 1385 588 1385 812 1385 c 256,4,5
 923 1385 923 1385 1080 1355 c 2,6,-1
 1101 1351 l 2,7,8
 1227 1327 1227 1327 1230 1327 c 1,9,10
 1259 1193 1259 1193 1259 1016 c 1,11,12
 1255 1000 1255 1000 1223.5 1000 c 128,-1,13
 1192 1000 1192 1000 1190 1014 c 0,14,15
 1162 1314 1162 1314 783 1314 c 256,16,17
 579 1314 579 1314 430.5 1130 c 128,-1,18
 282 946 282 946 282 707 c 256,19,20
 282 424 282 424 427 236 c 128,-1,21
 572 48 572 48 780 48 c 256,22,23
 1134 48 1134 48 1232 317 c 0,24,25
 1236 328 1236 328 1260.5 328 c 128,-1,26
 1285 328 1285 328 1295 320 c 0,27,28
 1299 317 1299 317 1299 306 c 1,29,30
 1262 115 1262 115 1209 36 c 1,31,32
 1177 32 1177 32 1132 19 c 0,33,34
 985 -27 985 -27 756 -27 c 256,35,36
 578 -27 578 -27 426.5 59 c 128,-1,37
 275 145 275 145 183 296.5 c 128,-1,38
 91 448 91 448 91 647 c 256,0,1
EndSplineSet
Substitution2: "'ss07' Underdotted lookup 0-1" uniE066
Substitution2: "'ss04' High Overlines lookup 0-1" uniF7B5
AlternateSubs2: "'salt' Stylistic Alternatives in Latin lookup 19" uniF106 c.enlarged
Substitution2: "'c2sc' Capitals to Small Capitals in Latin lookup 3" c.sc
EndChar

StartChar: D
Encoding: 68 68 36
Width: 1525
GlyphClass: 2
Flags: W
AnchorPoint: "below" 630 -75 basechar 0
AnchorPoint: "above" 609 1415 basechar 0
LayerCount: 2
Fore
SplineSet
271 186 m 2,0,-1
 271 1172 l 2,1,2
 271 1282 271 1282 82 1282 c 0,3,4
 68 1282 68 1282 68 1320 c 128,-1,5
 68 1358 68 1358 82 1358 c 1,6,7
 222 1352 222 1352 322 1352 c 256,8,9
 422 1352 422 1352 531 1355 c 128,-1,10
 640 1358 640 1358 703 1358 c 0,11,12
 1014 1358 1014 1358 1223 1191 c 128,-1,13
 1432 1024 1432 1024 1432 728 c 256,14,15
 1432 406 1432 406 1248.5 199.5 c 128,-1,16
 1065 -7 1065 -7 751 -7 c 0,17,18
 703 -7 703 -7 556.5 -3.5 c 128,-1,19
 410 0 410 0 312 0 c 256,20,21
 214 0 214 0 91 -7 c 1,22,23
 78 -7 78 -7 78 30.5 c 128,-1,24
 78 68 78 68 91 69 c 0,25,26
 271 69 271 69 271 186 c 2,0,-1
431 298 m 2,27,28
 431 149 431 149 491 101 c 128,-1,29
 551 53 551 53 682 53 c 0,30,31
 938 53 938 53 1089.5 234 c 128,-1,32
 1241 415 1241 415 1241 716 c 256,33,34
 1241 968 1241 968 1064 1132.5 c 128,-1,35
 887 1297 887 1297 621 1297 c 0,36,37
 526 1297 526 1297 495.5 1288.5 c 128,-1,38
 465 1280 465 1280 448 1252.5 c 128,-1,39
 431 1225 431 1225 431 1181 c 10,40,-1
 431 298 l 2,27,28
EndSplineSet
Substitution2: "'ss19' Gothic transliteration-1" u10333
Substitution2: "'ss07' Underdotted lookup 0-1" uni1E0C
Substitution2: "'ss04' High Overlines lookup 0-1" uniF7B6
AlternateSubs2: "'salt' Stylistic Alternatives in Latin lookup 19" d.enlarged uniA77A.enlarged
Substitution2: "'c2sc' Capitals to Small Capitals in Latin lookup 3" d.sc
EndChar

StartChar: E
Encoding: 69 69 37
Width: 1235
GlyphClass: 2
Flags: W
AnchorPoint: "below" 594 -75 basechar 0
AnchorPoint: "above" 603 1415 basechar 0
LayerCount: 2
Fore
SplineSet
271 177 m 2,0,-1
 271 1172 l 2,1,2
 271 1282 271 1282 84 1282 c 0,3,4
 70 1282 70 1282 70 1320 c 128,-1,5
 70 1358 70 1358 84 1358 c 1,6,7
 224 1352 224 1352 354 1352 c 256,8,9
 484 1352 484 1352 704.5 1355 c 128,-1,10
 925 1358 925 1358 1017 1358 c 256,11,12
 1068 1358 1068 1358 1078.5 1351 c 128,-1,13
 1089 1344 1089 1344 1089 1331 c 2,14,-1
 1089 1010 l 2,15,16
 1089 993 1089 993 1051.5 993 c 128,-1,17
 1014 993 1014 993 1014 1010 c 0,18,19
 1014 1276 1014 1276 756 1282 c 2,20,-1
 472 1289 l 2,21,22
 431 1290 431 1290 431 1241 c 2,23,-1
 431 709 l 2,24,25
 431 676 431 676 459 676 c 2,26,-1
 665 676 l 2,27,28
 743 676 743 676 762.5 705 c 128,-1,29
 782 734 782 734 782 793 c 2,30,-1
 782 867 l 2,31,32
 782 880 782 880 817 880.5 c 128,-1,33
 852 881 852 881 852 867 c 1,34,35
 844 796 844 796 844 653 c 128,-1,36
 844 510 844 510 852 430 c 1,37,38
 852 417 852 417 817 416.5 c 128,-1,39
 782 416 782 416 782 430 c 2,40,-1
 782 512 l 18,41,42
 782 555 782 555 762.5 581 c 128,-1,43
 743 607 743 607 665 607 c 10,44,-1
 456 607 l 2,45,46
 431 607 431 607 431 576 c 2,47,-1
 431 262 l 2,48,49
 431 149 431 149 496 94 c 0,50,51
 534 62 534 62 587 62 c 2,52,-1
 822 69 l 2,53,54
 1081 77 1081 77 1081 340 c 0,55,56
 1081 357 1081 357 1118.5 357 c 128,-1,57
 1156 357 1156 357 1156 340 c 2,58,-1
 1156 23 l 2,59,60
 1156 -2 1156 -2 1128 -5 c 0,61,62
 1112 -7 1112 -7 1083 -7 c 0,63,64
 967 -7 967 -7 727.5 -3.5 c 128,-1,65
 488 0 488 0 359 0 c 256,66,67
 230 0 230 0 84 -7 c 1,68,69
 70 -7 70 -7 70 30.5 c 128,-1,70
 70 68 70 68 84 69 c 0,71,72
 271 69 271 69 271 177 c 2,0,-1
EndSplineSet
Substitution2: "'ss19' Gothic transliteration-1" u10334
Substitution2: "'ss07' Underdotted lookup 0-1" uni1EB8
AlternateSubs2: "'salt' Stylistic Alternatives in Latin lookup 19" uniF10A e.enlarged
Substitution2: "'c2sc' Capitals to Small Capitals in Latin lookup 3" e.sc
EndChar

StartChar: F
Encoding: 70 70 38
Width: 1170
GlyphClass: 2
Flags: W
AnchorPoint: "below" 351 -75 basechar 0
AnchorPoint: "above" 600 1415 basechar 0
LayerCount: 2
Fore
SplineSet
271 186 m 2,0,-1
 271 1172 l 2,1,2
 271 1282 271 1282 84 1282 c 0,3,4
 70 1282 70 1282 70 1320 c 128,-1,5
 70 1358 70 1358 84 1358 c 1,6,7
 200 1353 200 1353 372 1353 c 256,8,9
 544 1353 544 1353 703 1355.5 c 128,-1,10
 862 1358 862 1358 1035 1358 c 0,11,12
 1105 1357 1105 1357 1108 1339 c 2,13,-1
 1108 1010 l 2,14,15
 1108 992 1108 992 1070 992 c 128,-1,16
 1032 992 1032 992 1032 1010 c 0,17,18
 1032 1265 1032 1265 773 1272 c 2,19,-1
 472 1282 l 2,20,21
 431 1282 431 1282 431 1241 c 2,22,-1
 431 747 l 2,23,24
 431 716 431 716 459 716 c 2,25,-1
 623 716 l 18,26,27
 698 716 698 716 719 746 c 128,-1,28
 740 776 740 776 740 846 c 10,29,-1
 740 963 l 2,30,31
 740 976 740 976 775 976 c 128,-1,32
 810 976 810 976 810 963 c 1,33,34
 802 893 802 893 802 679.5 c 128,-1,35
 802 466 802 466 810 395 c 1,36,37
 810 382 810 382 775 382 c 128,-1,38
 740 382 740 382 740 395 c 2,39,-1
 740 512 l 18,40,41
 740 582 740 582 715 611 c 128,-1,42
 690 640 690 640 623 640 c 10,43,-1
 456 640 l 2,44,45
 431 640 431 640 431 615 c 2,46,-1
 431 186 l 2,47,48
 431 69 431 69 619 69 c 0,49,50
 632 69 632 69 632 31 c 128,-1,51
 632 -7 632 -7 619 -7 c 1,52,53
 530 0 530 0 354 0 c 256,54,55
 178 0 178 0 91 -7 c 1,56,57
 78 -7 78 -7 78 31 c 128,-1,58
 78 69 78 69 91 69 c 0,59,60
 271 69 271 69 271 186 c 2,0,-1
EndSplineSet
Substitution2: "'ss19' Gothic transliteration-1" u10346
Substitution2: "'ss07' Underdotted lookup 0-1" uniE0EE
AlternateSubs2: "'salt' Stylistic Alternatives in Latin lookup 19" uniA77B f.enlarged
Substitution2: "'c2sc' Capitals to Small Capitals in Latin lookup 3" f.sc
EndChar

StartChar: G
Encoding: 71 71 39
Width: 1409
GlyphClass: 2
Flags: W
AnchorPoint: "below" 753 -75 basechar 0
AnchorPoint: "above" 759 1415 basechar 0
LayerCount: 2
Fore
SplineSet
1230 144 m 2,0,1
 1230 77 1230 77 1267 77 c 0,2,3
 1281 77 1281 77 1281 54 c 128,-1,4
 1281 31 1281 31 1268 31 c 256,5,6
 1255 31 1255 31 1156 19 c 2,7,-1
 946 -16 l 2,8,9
 856 -27 856 -27 768 -27 c 256,10,11
 622 -27 622 -27 440 59 c 128,-1,12
 258 145 258 145 174.5 321.5 c 128,-1,13
 91 498 91 498 91 667 c 256,14,15
 91 909 91 909 271.5 1147 c 128,-1,16
 452 1385 452 1385 771 1385 c 256,17,18
 935 1385 935 1385 1076.5 1356 c 128,-1,19
 1218 1327 1218 1327 1232 1327 c 1,20,21
 1251 1278 1251 1278 1261 1019 c 0,22,23
 1261 1001 1261 1001 1227 1001 c 128,-1,24
 1193 1001 1193 1001 1192 1014 c 0,25,26
 1192 1125 1192 1125 1088.5 1219.5 c 128,-1,27
 985 1314 985 1314 776 1314 c 256,28,29
 547 1314 547 1314 414.5 1132.5 c 128,-1,30
 282 951 282 951 282 726 c 256,31,32
 282 420 282 420 431 234 c 128,-1,33
 580 48 580 48 775 48 c 256,34,35
 970 48 970 48 1048 95 c 0,36,37
 1070 111 1070 111 1070 173 c 2,38,-1
 1070 363 l 2,39,40
 1070 478 1070 478 842 478 c 0,41,42
 828 478 828 478 828 516 c 128,-1,43
 828 554 828 554 842 554 c 1,44,45
 898 548 898 548 1106 548 c 256,46,47
 1314 548 1314 548 1371 554 c 1,48,49
 1386 554 1386 554 1386 516 c 128,-1,50
 1386 478 1386 478 1371 478 c 0,51,52
 1230 478 1230 478 1230 363 c 2,53,-1
 1230 144 l 2,0,1
EndSplineSet
Substitution2: "'ss19' Gothic transliteration-1" u10332
Substitution2: "'ss07' Underdotted lookup 0-1" uniE101
AlternateSubs2: "'salt' Stylistic Alternatives in Latin lookup 19" uniA77D uniF10E g.enlarged
Substitution2: "'c2sc' Capitals to Small Capitals in Latin lookup 3" g.sc
EndChar

StartChar: H
Encoding: 72 72 40
Width: 1620
GlyphClass: 2
Flags: W
AnchorPoint: "below" 816 -75 basechar 0
AnchorPoint: "above" 819 1415 basechar 0
LayerCount: 2
Fore
SplineSet
1371 186 m 2,0,1
 1371 69 1371 69 1551 69 c 0,2,3
 1564 69 1564 69 1564 31 c 128,-1,4
 1564 -7 1564 -7 1551 -7 c 1,5,6
 1391 0 1391 0 1291 0 c 256,7,8
 1191 0 1191 0 1033 -7 c 1,9,10
 1020 -7 1020 -7 1020 30.5 c 128,-1,11
 1020 68 1020 68 1033 69 c 0,12,13
 1211 69 1211 69 1211 186 c 2,14,-1
 1211 621 l 2,15,16
 1211 659 1211 659 1172 659 c 2,17,-1
 470 659 l 2,18,19
 431 659 431 659 431 621 c 2,20,-1
 431 186 l 2,21,22
 431 69 431 69 611 69 c 0,23,24
 624 69 624 69 624 31 c 128,-1,25
 624 -7 624 -7 611 -7 c 1,26,27
 462 0 462 0 358 0 c 256,28,29
 254 0 254 0 93 -7 c 1,30,31
 80 -7 80 -7 80 30.5 c 128,-1,32
 80 68 80 68 93 69 c 0,33,34
 271 69 271 69 271 186 c 2,35,-1
 271 1172 l 2,36,37
 271 1287 271 1287 82 1287 c 0,38,39
 68 1287 68 1287 68 1325 c 128,-1,40
 68 1363 68 1363 82 1363 c 1,41,42
 126 1358 126 1358 346 1358 c 256,43,44
 566 1358 566 1358 611 1363 c 1,45,46
 624 1363 624 1363 624 1325 c 128,-1,47
 624 1287 624 1287 611 1287 c 0,48,49
 431 1287 431 1287 431 1172 c 2,50,-1
 431 782 l 2,51,52
 431 743 431 743 470 743 c 2,53,-1
 1172 743 l 2,54,55
 1211 743 1211 743 1211 782 c 2,56,-1
 1211 1172 l 2,57,58
 1211 1287 1211 1287 1022 1287 c 0,59,60
 1008 1287 1008 1287 1008 1325 c 128,-1,61
 1008 1363 1008 1363 1022 1363 c 1,62,63
 1066 1358 1066 1358 1286 1358 c 256,64,65
 1506 1358 1506 1358 1551 1363 c 1,66,67
 1564 1363 1564 1363 1564 1325 c 128,-1,68
 1564 1287 1564 1287 1551 1287 c 0,69,70
 1371 1287 1371 1287 1371 1172 c 2,71,-1
 1371 186 l 2,0,1
EndSplineSet
Substitution2: "'ss19' Gothic transliteration-1" u10337
Substitution2: "'ss07' Underdotted lookup 0-1" uni1E24
AlternateSubs2: "'salt' Stylistic Alternatives in Latin lookup 19" uniF110 h.enlarged
Substitution2: "'c2sc' Capitals to Small Capitals in Latin lookup 3" h.sc
EndChar

StartChar: I
Encoding: 73 73 41
Width: 683
GlyphClass: 2
Flags: W
AnchorPoint: "below" 339 -75 basechar 0
AnchorPoint: "above" 358 1415 basechar 0
LayerCount: 2
Fore
SplineSet
271 186 m 2,0,-1
 271 1172 l 2,1,2
 271 1287 271 1287 82 1287 c 0,3,4
 68 1287 68 1287 68 1325 c 128,-1,5
 68 1363 68 1363 82 1363 c 1,6,7
 126 1358 126 1358 346 1358 c 256,8,9
 566 1358 566 1358 611 1363 c 1,10,11
 624 1363 624 1363 624 1325 c 128,-1,12
 624 1287 624 1287 611 1287 c 0,13,14
 506 1287 506 1287 468.5 1262 c 128,-1,15
 431 1237 431 1237 431 1172 c 2,16,-1
 431 186 l 2,17,18
 431 69 431 69 611 69 c 0,19,20
 624 69 624 69 624 31 c 128,-1,21
 624 -7 624 -7 611 -7 c 1,22,23
 525 0 525 0 352 0 c 256,24,25
 179 0 179 0 93 -7 c 1,26,27
 80 -7 80 -7 80 31 c 128,-1,28
 80 69 80 69 93 69 c 0,29,30
 271 69 271 69 271 186 c 2,0,-1
EndSplineSet
Substitution2: "'ss19' Gothic transliteration-1" u10339
Substitution2: "'ss07' Underdotted lookup 0-1" uni1ECA
Substitution2: "'ss04' High Overlines lookup 0-1" uniE150
Substitution2: "'salt' Stylistic Alternatives in Latin lookup 18" i.enlarged
Substitution2: "'c2sc' Capitals to Small Capitals in Latin lookup 3" i.sc
EndChar

StartChar: J
Encoding: 74 74 42
Width: 716
GlyphClass: 2
Flags: W
AnchorPoint: "below" 348 -378 basechar 0
AnchorPoint: "above" 372 1415 basechar 0
LayerCount: 2
Fore
SplineSet
292 260 m 2,0,-1
 292 1172 l 2,1,2
 292 1287 292 1287 102 1287 c 0,3,4
 88 1287 88 1287 88 1325 c 128,-1,5
 88 1363 88 1363 102 1363 c 1,6,7
 149 1358 149 1358 367 1358 c 256,8,9
 585 1358 585 1358 644 1363 c 1,10,11
 658 1363 658 1363 658 1325 c 128,-1,12
 658 1287 658 1287 644 1287 c 0,13,14
 452 1287 452 1287 452 1172 c 2,15,-1
 452 634 l 18,16,17
 452 -82 452 -82 381 -183.5 c 128,-1,18
 310 -285 310 -285 226 -352 c 128,-1,19
 142 -419 142 -419 33 -419 c 256,20,21
 -21 -419 -21 -419 -59 -388.5 c 128,-1,22
 -97 -358 -97 -358 -97 -298 c 256,23,24
 -97 -267 -97 -267 -67.5 -241.5 c 128,-1,25
 -38 -216 -38 -216 9 -216 c 256,26,27
 69 -216 69 -216 110 -250 c 128,-1,28
 151 -284 151 -284 160 -317 c 1,29,30
 230 -293 230 -293 261 -203 c 128,-1,31
 292 -113 292 -113 292 260 c 2,0,-1
EndSplineSet
Substitution2: "'ss19' Gothic transliteration-1" u1033E
Substitution2: "'ss07' Underdotted lookup 0-1" uniE151
Substitution2: "'ss04' High Overlines lookup 0-1" uniE152
Substitution2: "'salt' Stylistic Alternatives in Latin lookup 18" i.enlarged
Substitution2: "'c2sc' Capitals to Small Capitals in Latin lookup 3" j.sc
EndChar

StartChar: K
Encoding: 75 75 43
Width: 1335
GlyphClass: 2
Flags: W
AnchorPoint: "below" 630 -75 basechar 0
AnchorPoint: "above" 624 1415 basechar 0
LayerCount: 2
Fore
SplineSet
271 186 m 2,0,-1
 271 1172 l 2,1,2
 271 1287 271 1287 82 1287 c 0,3,4
 68 1287 68 1287 68 1325 c 128,-1,5
 68 1363 68 1363 82 1363 c 1,6,7
 127 1358 127 1358 350 1358 c 256,8,9
 573 1358 573 1358 619 1363 c 1,10,11
 632 1363 632 1363 632 1325 c 128,-1,12
 632 1287 632 1287 619 1287 c 0,13,14
 431 1287 431 1287 431 1172 c 2,15,-1
 431 735 l 2,16,17
 431 712 431 712 444 712 c 0,18,19
 473 712 473 712 536 779 c 0,20,21
 551 794 551 794 563 810 c 2,22,-1
 856 1175 l 2,23,24
 896 1227 896 1227 896 1253 c 0,25,26
 896 1287 896 1287 831 1287 c 0,27,28
 818 1287 818 1287 818 1325 c 128,-1,29
 818 1363 818 1363 831 1363 c 1,30,31
 876 1358 876 1358 1012 1358 c 256,32,33
 1148 1358 1148 1358 1194 1363 c 1,34,35
 1208 1363 1208 1363 1208 1325 c 128,-1,36
 1208 1287 1208 1287 1194 1287 c 0,37,38
 1109 1287 1109 1287 1031 1236 c 0,39,40
 1005 1219 1005 1219 990 1201 c 2,41,-1
 632 768 l 2,42,43
 627 762 627 762 627 752 c 256,44,45
 627 744 627 744 632 738 c 2,46,-1
 1090 173 l 2,47,48
 1174 69 1174 69 1336 69 c 0,49,50
 1350 69 1350 69 1350 31 c 128,-1,51
 1350 -7 1350 -7 1336 -7 c 1,52,53
 1257 0 1257 0 1067 0 c 256,54,55
 877 0 877 0 800 -7 c 1,56,57
 786 -7 786 -7 786 30.5 c 128,-1,58
 786 68 786 68 800 69 c 0,59,60
 896 69 896 69 896 128 c 0,61,62
 896 152 896 152 871 186 c 2,63,-1
 602 539 l 2,64,65
 549 606 549 606 489 634 c 0,66,67
 466 645 466 645 448 645 c 256,68,69
 430 645 430 645 431 623 c 2,70,-1
 431 186 l 2,71,72
 431 69 431 69 611 69 c 0,73,74
 624 69 624 69 624 31 c 128,-1,75
 624 -7 624 -7 611 -7 c 1,76,77
 534 0 534 0 351 0 c 256,78,79
 168 0 168 0 91 -7 c 1,80,81
 78 -7 78 -7 78 30.5 c 128,-1,82
 78 68 78 68 91 69 c 0,83,84
 271 69 271 69 271 186 c 2,0,-1
EndSplineSet
Substitution2: "'ss19' Gothic transliteration-1" u1033A
Substitution2: "'ss07' Underdotted lookup 0-1" uni1E32
Substitution2: "'salt' Stylistic Alternatives in Latin lookup 18" k.enlarged
Substitution2: "'c2sc' Capitals to Small Capitals in Latin lookup 3" k.sc
EndChar

StartChar: L
Encoding: 76 76 44
Width: 1344
GlyphClass: 2
Flags: W
AnchorPoint: "below" 660 -75 basechar 0
AnchorPoint: "above" 600 1415 basechar 0
LayerCount: 2
Fore
SplineSet
271 177 m 2,0,-1
 271 1172 l 2,1,2
 271 1287 271 1287 82 1287 c 0,3,4
 68 1287 68 1287 68 1325 c 128,-1,5
 68 1363 68 1363 82 1363 c 1,6,7
 128 1358 128 1358 344 1358 c 256,8,9
 560 1358 560 1358 605 1363 c 1,10,11
 618 1363 618 1363 618 1325 c 128,-1,12
 618 1287 618 1287 605 1287 c 0,13,14
 431 1287 431 1287 431 1172 c 2,15,-1
 431 277 l 2,16,17
 431 226 431 226 445.5 178.5 c 128,-1,18
 460 131 460 131 500.5 96.5 c 128,-1,19
 541 62 541 62 609 62 c 2,20,-1
 922 75 l 18,21,22
 1047 80 1047 80 1116.5 166 c 128,-1,23
 1186 252 1186 252 1186 379 c 0,24,25
 1186 392 1186 392 1225 392 c 128,-1,26
 1264 392 1264 392 1264 379 c 2,27,-1
 1264 27 l 2,28,29
 1264 -1 1264 -1 1228 -5 c 0,30,31
 1214 -7 1214 -7 1183 -7 c 256,32,33
 1040 -6 1040 -6 751 -3 c 128,-1,34
 462 0 462 0 350 0 c 256,35,36
 238 0 238 0 95 -7 c 1,37,38
 82 -7 82 -7 82 31 c 128,-1,39
 82 69 82 69 95 69 c 0,40,41
 271 69 271 69 271 177 c 2,0,-1
EndSplineSet
Substitution2: "'ss19' Gothic transliteration-1" u1033B
Substitution2: "'ss07' Underdotted lookup 0-1" uni1E36
Substitution2: "'ss04' High Overlines lookup 0-1" uniF7B4
Substitution2: "'salt' Stylistic Alternatives in Latin lookup 18" l.enlarged
Substitution2: "'c2sc' Capitals to Small Capitals in Latin lookup 3" l.sc
EndChar

StartChar: M
Encoding: 77 77 45
Width: 1848
GlyphClass: 2
Flags: W
AnchorPoint: "below" 867 -75 basechar 0
AnchorPoint: "above" 899 1415 basechar 0
LayerCount: 2
Fore
SplineSet
228 186 m 2,0,-1
 287 1130 l 2,1,2
 288 1138 288 1138 288 1145 c 0,3,4
 288 1240 288 1240 204 1272 c 0,5,6
 164 1287 164 1287 97 1287 c 0,7,8
 84 1287 84 1287 84 1325 c 128,-1,9
 84 1363 84 1363 97 1363 c 1,10,11
 142 1358 142 1358 246.5 1358 c 128,-1,12
 351 1358 351 1358 382.5 1342.5 c 128,-1,13
 414 1327 414 1327 434 1285 c 2,14,-1
 906 277 l 2,15,16
 919 250 919 250 927 250 c 256,17,18
 937 250 937 250 951 279 c 2,19,-1
 1436 1291 l 2,20,21
 1458 1337 1458 1337 1492 1347.5 c 128,-1,22
 1526 1358 1526 1358 1624 1358 c 128,-1,23
 1722 1358 1722 1358 1770 1363 c 1,24,25
 1784 1363 1784 1363 1784 1325 c 128,-1,26
 1784 1287 1784 1287 1770 1287 c 0,27,28
 1641 1287 1641 1287 1603 1217 c 0,29,30
 1582 1178 1582 1178 1582 1112 c 0,31,32
 1582 1109 1582 1109 1582 1106 c 2,33,-1
 1589 186 l 2,34,35
 1590 69 1590 69 1748 69 c 0,36,37
 1762 69 1762 69 1762 31 c 128,-1,38
 1762 -7 1762 -7 1748 -7 c 1,39,40
 1673 0 1673 0 1519 0 c 256,41,42
 1365 0 1365 0 1280 -7 c 1,43,44
 1266 -7 1266 -7 1266 31 c 128,-1,45
 1266 69 1266 69 1280 69 c 0,46,47
 1430 69 1430 69 1429 186 c 2,48,-1
 1425 1039 l 2,49,50
 1425 1052 1425 1052 1416 1052 c 128,-1,51
 1407 1052 1407 1052 1402 1040 c 2,52,-1
 896 -6 l 2,53,54
 888 -23 888 -23 874 -23 c 256,55,56
 860 -23 860 -23 852 -6 c 2,57,-1
 388 1041 l 2,58,59
 380 1058 380 1058 371 1058 c 128,-1,60
 362 1058 362 1058 361 1041 c 2,61,-1
 310 186 l 2,62,63
 310 181 310 181 310 177 c 0,64,65
 310 69 310 69 468 69 c 0,66,67
 482 69 482 69 482 31 c 128,-1,68
 482 -7 482 -7 468 -7 c 1,69,70
 387 0 387 0 271 0 c 256,71,72
 155 0 155 0 71 -7 c 1,73,74
 58 -7 58 -7 58 31 c 128,-1,75
 58 69 58 69 71 69 c 0,76,77
 221 69 221 69 228 186 c 2,0,-1
EndSplineSet
Substitution2: "'ss19' Gothic transliteration-1" u1033C
Substitution2: "'ss07' Underdotted lookup 0-1" uni1E42
Substitution2: "'ss04' High Overlines lookup 0-1" uniE1D2
AlternateSubs2: "'salt' Stylistic Alternatives in Latin lookup 19" uniF11A m.enlarged
Substitution2: "'c2sc' Capitals to Small Capitals in Latin lookup 3" m.sc
EndChar

StartChar: N
Encoding: 78 78 46
Width: 1482
GlyphClass: 2
Flags: W
AnchorPoint: "below" 729 -75 basechar 0
AnchorPoint: "above" 720 1415 basechar 0
LayerCount: 2
Fore
SplineSet
257 186 m 2,0,-1
 257 1110 l 18,1,2
 257 1211 257 1211 211.5 1249 c 128,-1,3
 166 1287 166 1287 69 1287 c 0,4,5
 56 1287 56 1287 56 1325 c 128,-1,6
 56 1363 56 1363 69 1363 c 1,7,8
 113 1358 113 1358 218 1358 c 256,9,10
 323 1358 323 1358 355 1350.5 c 128,-1,11
 387 1343 387 1343 414 1309 c 2,12,-1
 1172 332 l 2,13,14
 1182 319 1182 319 1196 319 c 0,15,16
 1219 319 1219 319 1219 352 c 2,17,-1
 1219 1171 l 2,18,19
 1219 1287 1219 1287 1048 1287 c 0,20,21
 1034 1287 1034 1287 1034 1325 c 128,-1,22
 1034 1363 1034 1363 1048 1363 c 1,23,24
 1094 1358 1094 1358 1236 1358 c 256,25,26
 1378 1358 1378 1358 1423 1363 c 1,27,28
 1436 1363 1436 1363 1436 1325 c 128,-1,29
 1436 1287 1436 1287 1423 1287 c 0,30,31
 1287 1287 1287 1287 1287 1171 c 2,32,-1
 1287 29 l 2,33,34
 1288 -21 1288 -21 1270 -21 c 256,35,36
 1252 -21 1252 -21 1228 9 c 2,37,-1
 361 1104 l 2,38,39
 350 1117 350 1117 339 1117 c 128,-1,40
 328 1117 328 1117 328 1099 c 2,41,-1
 328 186 l 2,42,43
 328 69 328 69 487 69 c 0,44,45
 500 69 500 69 500 31 c 128,-1,46
 500 -7 500 -7 487 -7 c 1,47,48
 406 0 406 0 290 0 c 256,49,50
 174 0 174 0 90 -7 c 1,51,52
 76 -7 76 -7 76 31 c 128,-1,53
 76 69 76 69 90 69 c 0,54,55
 257 69 257 69 257 186 c 2,0,-1
EndSplineSet
Substitution2: "'ss19' Gothic transliteration-1" u1033D
Substitution2: "'ss07' Underdotted lookup 0-1" uni1E46
Substitution2: "'salt' Stylistic Alternatives in Latin lookup 18" n.enlarged
Substitution2: "'c2sc' Capitals to Small Capitals in Latin lookup 3" n.sc
EndChar

StartChar: O
Encoding: 79 79 47
Width: 1461
GlyphClass: 2
Flags: W
AnchorPoint: "below" 732 -75 basechar 0
AnchorPoint: "above" 737 1415 basechar 0
LayerCount: 2
Back
SplineSet
447.5 380.8 m 25,0,0
 1506.5 1511.8 l 25,0,0
540.5 425.8 m 25,0,0
 1380.5 1565.8 l 25,0,0
1383.5 1460.8 m 25,0,0
 1383 107.8 l 25,0,0
90.5 1386.6 m 25,0,0
 1422.5 1385.8 l 25,0,0
727 1493.8 m 25,0,0
 727 -72.2 l 25,0,0
33.5 679 m 25,0,0
 1602.5 679 l 25,0,0
1191.5 1460.8 m 25,0,0
 1191 107.8 l 25,0,0
90.5 1313.8 m 25,0,0
 1422.5 1313 l 25,0,0
EndSplineSet
Fore
SplineSet
91 667 m 256,0,1
 91 930 91 930 267 1157.5 c 128,-1,2
 443 1385 443 1385 740 1385 c 256,3,4
 1006 1385 1006 1385 1194.5 1177 c 128,-1,5
 1383 969 1383 969 1383 663 c 256,6,7
 1383 407 1383 407 1209 190 c 128,-1,8
 1035 -27 1035 -27 735 -27 c 256,9,10
 445 -27 445 -27 268 178 c 128,-1,11
 91 383 91 383 91 667 c 256,0,1
282 726 m 256,12,13
 282 416 282 416 432 232 c 128,-1,14
 582 48 582 48 749 48 c 256,15,16
 961 48 961 48 1076.5 221 c 128,-1,17
 1192 394 1192 394 1192 647 c 256,18,19
 1192 926 1192 926 1046.5 1120 c 128,-1,20
 901 1314 901 1314 727 1314 c 256,21,22
 517 1314 517 1314 399.5 1133 c 128,-1,23
 282 952 282 952 282 726 c 256,12,13
EndSplineSet
Substitution2: "'ss19' Gothic transliteration-1" u10349
Substitution2: "'ss07' Underdotted lookup 0-1" uni1ECC
Substitution2: "'salt' Stylistic Alternatives in Latin lookup 18" o.enlarged
Substitution2: "'c2sc' Capitals to Small Capitals in Latin lookup 3" o.sc
EndChar

StartChar: P
Encoding: 80 80 48
Width: 1164
GlyphClass: 2
Flags: W
AnchorPoint: "below" 357 -75 basechar 0
AnchorPoint: "above" 546 1415 basechar 0
LayerCount: 2
Fore
SplineSet
271 186 m 2,0,-1
 271 1172 l 2,1,2
 271 1287 271 1287 82 1287 c 0,3,4
 69 1287 69 1287 69 1322.5 c 128,-1,5
 69 1358 69 1358 82 1358 c 1,6,7
 198 1353 198 1353 308 1353 c 256,8,9
 418 1353 418 1353 502 1355.5 c 128,-1,10
 586 1358 586 1358 644 1358 c 256,11,12
 846 1358 846 1358 981 1260 c 0,13,14
 1116 1160 1116 1160 1116 980 c 256,15,16
 1116 800 1116 800 985 698 c 128,-1,17
 854 596 854 596 638 596 c 256,18,19
 518 596 518 596 487 599.5 c 128,-1,20
 456 603 456 603 443.5 598.5 c 128,-1,21
 431 594 431 594 431 569 c 2,22,-1
 431 186 l 2,23,24
 431 69 431 69 617 69 c 0,25,26
 630 69 630 69 630 31 c 128,-1,27
 630 -7 630 -7 617 -7 c 1,28,29
 540 0 540 0 355 0 c 256,30,31
 170 0 170 0 93 -7 c 1,32,33
 80 -7 80 -7 80 30.5 c 128,-1,34
 80 68 80 68 93 69 c 0,35,36
 271 69 271 69 271 186 c 2,0,-1
431 707 m 2,37,38
 431 673 431 673 474.5 665.5 c 128,-1,39
 518 658 518 658 576 658 c 256,40,41
 944 658 944 658 944 984 c 256,42,43
 944 1113 944 1113 841 1204.5 c 128,-1,44
 738 1296 738 1296 567 1296 c 2,45,-1
 478 1296 l 2,46,47
 431 1296 431 1296 431 1265 c 2,48,-1
 431 707 l 2,37,38
EndSplineSet
Substitution2: "'ss19' Gothic transliteration-1" u10340
Substitution2: "'ss07' Underdotted lookup 0-1" uniE26D
Substitution2: "'salt' Stylistic Alternatives in Latin lookup 18" p.enlarged
Substitution2: "'c2sc' Capitals to Small Capitals in Latin lookup 3" p.sc
EndChar

StartChar: Q
Encoding: 81 81 49
Width: 1474
GlyphClass: 2
Flags: W
AnchorPoint: "below" 564 -129 basechar 0
AnchorPoint: "above" 729 1415 basechar 0
LayerCount: 2
Fore
SplineSet
91 667 m 256,0,1
 93 933 93 933 269.5 1159 c 128,-1,2
 446 1385 446 1385 740 1385 c 256,3,4
 1019 1385 1019 1385 1201 1171.5 c 128,-1,5
 1383 958 1383 958 1383 663 c 256,6,7
 1383 468 1383 468 1275.5 287.5 c 128,-1,8
 1168 107 1168 107 1022 38 c 0,9,10
 1005 30 1005 30 1005 17 c 128,-1,11
 1005 4 1005 4 1019 -7 c 0,12,13
 1096 -67 1096 -67 1260.5 -146 c 128,-1,14
 1425 -225 1425 -225 1648 -284 c 0,15,16
 1662 -288 1662 -288 1662 -302 c 0,17,18
 1662 -364 1662 -364 1637 -359 c 0,19,20
 1062 -234 1062 -234 501 9 c 0,21,22
 326 85 326 85 208.5 255.5 c 128,-1,23
 91 426 91 426 91 667 c 256,0,1
282 708 m 256,24,25
 282 421 282 421 431 234 c 128,-1,26
 580 47 580 47 749 47 c 256,27,28
 975 47 975 47 1083.5 227 c 128,-1,29
 1192 407 1192 407 1192 664 c 256,30,31
 1192 925 1192 925 1052 1119.5 c 128,-1,32
 912 1314 912 1314 733 1314 c 256,33,34
 535 1314 535 1314 408.5 1152 c 128,-1,35
 282 990 282 990 282 708 c 256,24,25
EndSplineSet
Substitution2: "'ss19' Gothic transliteration-1" u10335
Substitution2: "'ss07' Underdotted lookup 0-1" uniE288
Substitution2: "'salt' Stylistic Alternatives in Latin lookup 18" q.enlarged
Substitution2: "'c2sc' Capitals to Small Capitals in Latin lookup 3" q.sc
EndChar

StartChar: R
Encoding: 82 82 50
Width: 1405
GlyphClass: 2
Flags: W
AnchorPoint: "below" 624 -75 basechar 0
AnchorPoint: "above" 552 1415 basechar 0
LayerCount: 2
Fore
SplineSet
271 186 m 2,0,-1
 271 1172 l 2,1,2
 271 1282 271 1282 82 1282 c 0,3,4
 68 1282 68 1282 68 1320 c 128,-1,5
 68 1358 68 1358 82 1358 c 1,6,7
 198 1353 198 1353 294 1353 c 256,8,9
 390 1353 390 1353 487 1355.5 c 128,-1,10
 584 1358 584 1358 644 1358 c 0,11,12
 874 1358 874 1358 1005 1261.5 c 128,-1,13
 1136 1165 1136 1165 1136 984 c 0,14,15
 1136 707 1136 707 869 636 c 0,16,17
 841 628 841 628 869 579 c 0,18,19
 1014 322 1014 322 1228 120 c 0,20,21
 1339 15 1339 15 1414 15 c 0,22,23
 1428 15 1428 15 1428 -2.5 c 128,-1,24
 1428 -20 1428 -20 1414 -21 c 0,25,26
 1372 -25 1372 -25 1347 -25 c 0,27,28
 1184 -25 1184 -25 1106 29 c 0,29,30
 984 114 984 114 895 231 c 2,31,-1
 720 487 l 2,32,33
 672 558 672 558 644.5 577 c 128,-1,34
 617 596 617 596 561.5 596 c 128,-1,35
 506 596 506 596 476 599.5 c 128,-1,36
 446 603 446 603 438.5 597 c 128,-1,37
 431 591 431 591 431 579 c 2,38,-1
 431 186 l 2,39,40
 431 69 431 69 625 69 c 0,41,42
 638 69 638 69 638 31 c 128,-1,43
 638 -7 638 -7 625 -7 c 1,44,45
 548 0 548 0 358 0 c 256,46,47
 168 0 168 0 91 -7 c 1,48,49
 78 -7 78 -7 78 30.5 c 128,-1,50
 78 68 78 68 91 69 c 0,51,52
 271 69 271 69 271 186 c 2,0,-1
431 705 m 2,53,54
 431 674 431 674 469 666 c 128,-1,55
 507 658 507 658 576 658 c 0,56,57
 963 658 963 658 963 984 c 0,58,59
 963 1115 963 1115 858 1205.5 c 128,-1,60
 753 1296 753 1296 567 1296 c 2,61,-1
 478 1296 l 2,62,63
 431 1296 431 1296 431 1265 c 2,64,-1
 431 705 l 2,53,54
EndSplineSet
Substitution2: "'ss19' Gothic transliteration-1" u10342
Substitution2: "'ss07' Underdotted lookup 0-1" uni1E5A
Substitution2: "'salt' Stylistic Alternatives in Latin lookup 18" r.enlarged
Substitution2: "'c2sc' Capitals to Small Capitals in Latin lookup 3" r.sc
EndChar

StartChar: S
Encoding: 83 83 51
Width: 1042
GlyphClass: 2
Flags: W
AnchorPoint: "below" 537 -75 basechar 0
AnchorPoint: "above" 507 1415 basechar 0
LayerCount: 2
Fore
SplineSet
137 1050 m 256,0,1
 137 1194 137 1194 247.5 1289.5 c 128,-1,2
 358 1385 358 1385 525 1385 c 256,3,4
 629 1385 629 1385 715.5 1364.5 c 128,-1,5
 802 1344 802 1344 815 1344 c 128,-1,6
 828 1344 828 1344 831 1345 c 1,7,8
 859 1244 859 1244 869 1087 c 0,9,10
 870 1068 870 1068 837 1063.5 c 128,-1,11
 804 1059 804 1059 800 1077 c 0,12,13
 779 1187 779 1187 706.5 1252.5 c 128,-1,14
 634 1318 634 1318 501 1318 c 256,15,16
 401 1318 401 1318 339 1251.5 c 128,-1,17
 277 1185 277 1185 277 1095 c 256,18,19
 277 862 277 862 572 802 c 256,20,21
 944 726 944 726 944 390 c 256,22,23
 944 200 944 200 834.5 86.5 c 128,-1,24
 725 -27 725 -27 554 -27 c 0,25,26
 434 -27 434 -27 362.5 -6 c 128,-1,27
 291 15 291 15 177 73 c 1,28,29
 128 228 128 228 128 346 c 0,30,31
 128 357 128 357 130 365 c 0,32,33
 134 383 134 383 165 383 c 128,-1,34
 196 383 196 383 197 374 c 0,35,36
 206 245 206 245 308.5 146.5 c 128,-1,37
 411 48 411 48 583 48 c 0,38,39
 675 48 675 48 740.5 120 c 128,-1,40
 806 192 806 192 806 304 c 256,41,42
 806 540 806 540 542 600 c 256,43,44
 138 694 138 694 137 1050 c 256,0,1
EndSplineSet
Substitution2: "'ss19' Gothic transliteration-1" u10343
Substitution2: "'ss07' Underdotted lookup 0-1" uni1E62
AlternateSubs2: "'salt' Stylistic Alternatives in Latin lookup 19" uniF126 s.enlarged
Substitution2: "'c2sc' Capitals to Small Capitals in Latin lookup 3" s.sc
EndChar

StartChar: T
Encoding: 84 84 52
Width: 1321
GlyphClass: 2
Flags: W
AnchorPoint: "below" 648 -75 basechar 0
AnchorPoint: "above" 660 1415 basechar 0
LayerCount: 2
Fore
SplineSet
576 186 m 2,0,-1
 576 1236 l 2,1,2
 576 1282 576 1282 528 1282 c 2,3,-1
 376 1282 l 2,4,5
 111 1282 111 1282 111 1006 c 0,6,7
 111 992 111 992 73 992 c 128,-1,8
 35 992 35 992 35 1006 c 2,9,-1
 35 1325 l 2,10,11
 35 1358 35 1358 113 1358 c 0,12,13
 214 1358 214 1358 377 1355.5 c 128,-1,14
 540 1353 540 1353 656 1353 c 256,15,16
 772 1353 772 1353 934 1355.5 c 128,-1,17
 1096 1358 1096 1358 1209 1358 c 0,18,19
 1287 1358 1287 1358 1287 1325 c 2,20,-1
 1287 1006 l 2,21,22
 1287 992 1287 992 1249 992 c 128,-1,23
 1211 992 1211 992 1211 1006 c 0,24,25
 1211 1282 1211 1282 949 1282 c 2,26,-1
 787 1282 l 2,27,28
 736 1282 736 1282 736 1236 c 2,29,-1
 736 186 l 2,30,31
 736 69 736 69 925 69 c 0,32,33
 939 69 939 69 939 31 c 128,-1,34
 939 -7 939 -7 925 -7 c 1,35,36
 833 0 833 0 652 0 c 256,37,38
 471 0 471 0 379 -7 c 1,39,40
 365 -7 365 -7 365 31 c 128,-1,41
 365 69 365 69 379 69 c 0,42,43
 576 69 576 69 576 186 c 2,0,-1
EndSplineSet
Substitution2: "'ss19' Gothic transliteration-1" u10344
Substitution2: "'ss09' Alternates in PUA-1" T.alt
Substitution2: "'ss07' Underdotted lookup 0-1" uni1E6C
Substitution2: "'salt' Stylistic Alternatives in Latin lookup 18" t.enlarged
Substitution2: "'c2sc' Capitals to Small Capitals in Latin lookup 3" t.sc
EndChar

StartChar: U
Encoding: 85 85 53
Width: 1497
GlyphClass: 2
Flags: W
AnchorPoint: "below" 756 -75 basechar 0
AnchorPoint: "above" 795 1415 basechar 0
LayerCount: 2
Fore
SplineSet
256 539 m 10,0,-1
 256 1172 l 2,1,2
 256 1287 256 1287 71 1287 c 0,3,4
 58 1287 58 1287 58 1325 c 128,-1,5
 58 1363 58 1363 71 1363 c 1,6,7
 115 1358 115 1358 347 1358 c 256,8,9
 579 1358 579 1358 625 1363 c 1,10,11
 638 1363 638 1363 638 1325 c 128,-1,12
 638 1287 638 1287 625 1287 c 0,13,14
 419 1287 419 1287 419 1172 c 2,15,-1
 419 541 l 18,16,17
 419 240 419 240 523.5 144 c 128,-1,18
 628 48 628 48 783 48 c 256,19,20
 976 48 976 48 1077.5 148.5 c 128,-1,21
 1179 249 1179 249 1179 487 c 2,22,-1
 1179 1172 l 2,23,24
 1179 1287 1179 1287 991 1287 c 0,25,26
 978 1287 978 1287 978 1325 c 128,-1,27
 978 1363 978 1363 991 1363 c 1,28,29
 1036 1358 1036 1358 1230 1358 c 256,30,31
 1424 1358 1424 1358 1469 1363 c 1,32,33
 1482 1363 1482 1363 1482 1325 c 128,-1,34
 1482 1287 1482 1287 1469 1287 c 0,35,36
 1289 1287 1289 1287 1289 1172 c 2,37,-1
 1289 729 l 18,38,39
 1289 377 1289 377 1236.5 253.5 c 128,-1,40
 1184 130 1184 130 1070.5 51.5 c 128,-1,41
 957 -27 957 -27 758 -27 c 256,42,43
 567 -27 567 -27 457.5 35.5 c 128,-1,44
 348 98 348 98 302 223.5 c 128,-1,45
 256 349 256 349 256 539 c 10,0,-1
EndSplineSet
Substitution2: "'ss19' Gothic transliteration-1" u1033F
Substitution2: "'ss07' Underdotted lookup 0-1" uni1EE4
Substitution2: "'salt' Stylistic Alternatives in Latin lookup 18" u.enlarged
Substitution2: "'c2sc' Capitals to Small Capitals in Latin lookup 3" u.sc
EndChar

StartChar: V
Encoding: 86 86 54
Width: 1287
GlyphClass: 2
Flags: W
AnchorPoint: "below" 612 -75 basechar 0
AnchorPoint: "above" 675 1415 basechar 0
LayerCount: 2
Fore
SplineSet
180 1172 m 2,0,1
 140 1287 140 1287 33 1287 c 0,2,3
 20 1287 20 1287 20 1325 c 128,-1,4
 20 1363 20 1363 33 1363 c 1,5,6
 77 1358 77 1358 261 1358 c 256,7,8
 445 1358 445 1358 491 1363 c 1,9,10
 504 1363 504 1363 504 1325 c 128,-1,11
 504 1287 504 1287 491 1287 c 0,12,13
 348 1287 348 1287 348 1213 c 0,14,15
 348 1196 348 1196 355 1172 c 2,16,-1
 659 292 l 2,17,18
 666 272 666 272 675 272 c 0,19,20
 686 272 686 272 695 294 c 2,21,-1
 1014 1163 l 2,22,23
 1024 1196 1024 1196 1024 1209 c 0,24,25
 1024 1287 1024 1287 922 1287 c 0,26,27
 908 1287 908 1287 908 1325 c 128,-1,28
 908 1363 908 1363 922 1363 c 1,29,30
 968 1358 968 1358 1116 1358 c 256,31,32
 1264 1358 1264 1358 1310 1363 c 1,33,34
 1324 1363 1324 1363 1324 1325 c 128,-1,35
 1324 1287 1324 1287 1310 1287 c 0,36,37
 1156 1287 1156 1287 1123 1201 c 2,38,-1
 647 -13 l 2,39,40
 637 -38 637 -38 621 -38 c 0,41,42
 604 -38 604 -38 589 6 c 2,43,-1
 180 1172 l 2,0,1
EndSplineSet
Substitution2: "'ss07' Underdotted lookup 0-1" uni1E7E
Substitution2: "'ss04' High Overlines lookup 0-1" uniF7B2
Substitution2: "'salt' Stylistic Alternatives in Latin lookup 18" v.enlarged
Substitution2: "'c2sc' Capitals to Small Capitals in Latin lookup 3" v.sc
EndChar

StartChar: W
Encoding: 87 87 55
Width: 1971
GlyphClass: 2
Flags: W
AnchorPoint: "below" 984 -75 basechar 0
AnchorPoint: "above" 1050 1415 basechar 0
LayerCount: 2
Fore
SplineSet
180 1172 m 2,0,1
 129 1287 129 1287 33 1287 c 0,2,3
 20 1287 20 1287 20 1325 c 128,-1,4
 20 1363 20 1363 33 1363 c 1,5,6
 78 1358 78 1358 246 1358 c 256,7,8
 414 1358 414 1358 461 1363 c 1,9,10
 474 1363 474 1363 474 1325 c 128,-1,11
 474 1287 474 1287 461 1287 c 0,12,13
 348 1287 348 1287 348 1230 c 0,14,15
 348 1206 348 1206 363 1172 c 2,16,-1
 758 292 l 2,17,18
 767 273 767 273 775 273 c 0,19,20
 786 273 786 273 795 294 c 2,21,-1
 940 611 l 2,22,23
 948 629 948 629 948 650 c 0,24,25
 948 672 948 672 938 695 c 2,26,-1
 724 1172 l 2,27,28
 672 1287 672 1287 587 1287 c 0,29,30
 574 1287 574 1287 574 1325 c 128,-1,31
 574 1363 574 1363 587 1363 c 1,32,33
 631 1358 631 1358 795 1358 c 256,34,35
 959 1358 959 1358 1005 1363 c 1,36,37
 1018 1363 1018 1363 1018 1325 c 128,-1,38
 1018 1287 1018 1287 1005 1287 c 0,39,40
 892 1287 892 1287 892 1232 c 0,41,42
 892 1208 892 1208 908 1172 c 2,43,-1
 1024 913 l 2,44,45
 1035 890 1035 890 1043 890 c 256,46,47
 1051 890 1051 890 1062 915 c 2,48,-1
 1175 1163 l 2,49,50
 1192 1200 1192 1200 1192 1226 c 0,51,52
 1192 1287 1192 1287 1092 1287 c 0,53,54
 1078 1287 1078 1287 1078 1325 c 128,-1,55
 1078 1363 1078 1363 1092 1363 c 1,56,57
 1138 1358 1138 1358 1282 1358 c 256,58,59
 1426 1358 1426 1358 1471 1363 c 1,60,61
 1484 1363 1484 1363 1484 1325 c 128,-1,62
 1484 1287 1484 1287 1471 1287 c 0,63,64
 1322 1287 1322 1287 1283 1201 c 2,65,-1
 1108 813 l 2,66,67
 1097 788 1097 788 1097 767 c 0,68,69
 1097 751 1097 751 1104 735 c 2,70,-1
 1303 292 l 2,71,72
 1313 273 1313 273 1321 273 c 0,73,74
 1331 273 1331 273 1339 294 c 2,75,-1
 1735 1163 l 2,76,77
 1752 1200 1752 1200 1752 1225 c 0,78,79
 1752 1287 1752 1287 1653 1287 c 0,80,81
 1640 1287 1640 1287 1640 1325 c 128,-1,82
 1640 1363 1640 1363 1653 1363 c 1,83,84
 1700 1358 1700 1358 1833 1358 c 256,85,86
 1966 1358 1966 1358 2012 1363 c 1,87,88
 2026 1363 2026 1363 2026 1325 c 128,-1,89
 2026 1287 2026 1287 2012 1287 c 0,90,91
 1882 1287 1882 1287 1843 1201 c 2,92,-1
 1301 7 l 2,93,94
 1284 -29 1284 -29 1274 -29 c 0,95,96
 1262 -29 1262 -29 1247 6 c 2,97,-1
 1019 518 l 2,98,99
 1011 534 1011 534 1003 534 c 256,100,101
 995 534 995 534 988 518 c 2,102,-1
 756 6 l 2,103,104
 741 -29 741 -29 729 -29 c 0,105,106
 720 -29 720 -29 703 6 c 2,107,-1
 180 1172 l 2,0,1
EndSplineSet
Substitution2: "'ss19' Gothic transliteration-1" u10345
Substitution2: "'ss07' Underdotted lookup 0-1" uni1E88
Substitution2: "'ss02' Insular Shapes subtable 0" uni01F7
Substitution2: "'salt' Stylistic Alternatives in Latin lookup 18" w.enlarged
Substitution2: "'c2sc' Capitals to Small Capitals in Latin lookup 3" w.sc
EndChar

StartChar: X
Encoding: 88 88 56
Width: 1330
GlyphClass: 2
Flags: W
AnchorPoint: "below" 651 -75 basechar 0
AnchorPoint: "above" 726 1415 basechar 0
LayerCount: 2
Fore
SplineSet
243 1179 m 2,0,1
 198 1246 198 1246 147 1267 c 0,2,3
 102 1286 102 1286 19 1287 c 0,4,5
 6 1287 6 1287 6 1325 c 128,-1,6
 6 1363 6 1363 19 1363 c 1,7,8
 64 1358 64 1358 296 1358 c 256,9,10
 528 1358 528 1358 576 1363 c 1,11,12
 590 1363 590 1363 590 1325 c 128,-1,13
 590 1287 590 1287 576 1287 c 0,14,15
 437 1287 437 1287 437 1230 c 0,16,17
 437 1205 437 1205 459 1171 c 2,18,-1
 669 844 l 2,19,20
 680 828 680 828 690 828 c 0,21,22
 702 828 702 828 714 844 c 2,23,-1
 955 1163 l 2,24,25
 993 1213 993 1213 993 1241 c 0,26,27
 993 1287 993 1287 906 1287 c 0,28,29
 892 1287 892 1287 892 1325 c 128,-1,30
 892 1363 892 1363 906 1363 c 1,31,32
 950 1358 950 1358 1104 1358 c 256,33,34
 1258 1358 1258 1358 1305 1363 c 1,35,36
 1318 1363 1318 1363 1318 1325 c 128,-1,37
 1318 1287 1318 1287 1305 1287 c 0,38,39
 1187 1287 1187 1287 1120 1236 c 0,40,41
 1080 1205 1080 1205 993 1092 c 2,42,-1
 753 778 l 2,43,44
 742 764 742 764 742 749 c 0,45,46
 742 736 742 736 751 722 c 2,47,-1
 1097 186 l 2,48,49
 1173 69 1173 69 1337 69 c 0,50,51
 1350 69 1350 69 1350 31 c 128,-1,52
 1350 -7 1350 -7 1337 -7 c 1,53,54
 1260 0 1260 0 1080 0 c 256,55,56
 900 0 900 0 824 -7 c 1,57,58
 810 -7 810 -7 810 31 c 128,-1,59
 810 69 810 69 824 69 c 0,60,61
 938 69 938 69 938 122 c 0,62,63
 938 148 938 148 909 191 c 2,64,-1
 645 583 l 2,65,66
 634 600 634 600 625 600 c 0,67,68
 615 600 615 600 603 583 c 2,69,-1
 399 302 l 2,70,71
 304 171 304 171 304 120 c 128,-1,72
 304 69 304 69 424 69 c 0,73,74
 438 69 438 69 438 31 c 128,-1,75
 438 -7 438 -7 424 -7 c 1,76,77
 350 0 350 0 204 0 c 256,78,79
 58 0 58 0 -29 -7 c 1,80,81
 -42 -7 -42 -7 -42 31 c 128,-1,82
 -42 69 -42 69 -29 69 c 0,83,84
 132 69 132 69 197 155 c 2,85,-1
 571 651 l 2,86,87
 579 662 579 662 579 671 c 0,88,89
 579 683 579 683 567 701 c 2,90,-1
 243 1179 l 2,0,1
EndSplineSet
Substitution2: "'ss19' Gothic transliteration-1" u10347
Substitution2: "'ss07' Underdotted lookup 0-1" Xdotsub
Substitution2: "'ss04' High Overlines lookup 0-1" uniF7B3
Substitution2: "'salt' Stylistic Alternatives in Latin lookup 18" x.enlarged
Substitution2: "'c2sc' Capitals to Small Capitals in Latin lookup 3" x.sc
EndChar

StartChar: Y
Encoding: 89 89 57
Width: 1235
GlyphClass: 2
Flags: W
AnchorPoint: "below" 603 -75 basechar 0
AnchorPoint: "above" 660 1415 basechar 0
LayerCount: 2
Fore
SplineSet
175 1172 m 2,0,1
 105 1287 105 1287 -13 1287 c 0,2,3
 -26 1287 -26 1287 -26 1325 c 128,-1,4
 -26 1363 -26 1363 -13 1363 c 1,5,6
 32 1358 32 1358 224 1358 c 256,7,8
 416 1358 416 1358 463 1363 c 1,9,10
 476 1363 476 1363 476 1325 c 128,-1,11
 476 1287 476 1287 463 1287 c 0,12,13
 342 1287 342 1287 342 1230 c 0,14,15
 342 1207 342 1207 363 1172 c 2,16,-1
 644 700 l 2,17,18
 652 686 652 686 660 686 c 256,19,20
 667 686 667 686 676 700 c 2,21,-1
 974 1163 l 2,22,23
 1001 1205 1001 1205 1001 1234 c 0,24,25
 1001 1287 1001 1287 890 1287 c 0,26,27
 876 1287 876 1287 876 1325 c 128,-1,28
 876 1363 876 1363 890 1363 c 1,29,30
 936 1358 936 1358 1088 1358 c 256,31,32
 1240 1358 1240 1358 1285 1363 c 1,33,34
 1298 1363 1298 1363 1298 1325 c 128,-1,35
 1298 1287 1298 1287 1285 1287 c 3,36,37
 1146 1287 1146 1287 1074 1178 c 2,38,-1
 766 705 l 18,39,40
 701 605 701 605 695 575.5 c 128,-1,41
 689 546 689 546 689 489 c 10,42,-1
 689 186 l 2,43,44
 689 69 689 69 853 69 c 0,45,46
 866 69 866 69 866 31 c 128,-1,47
 866 -7 866 -7 853 -7 c 1,48,49
 778 0 778 0 609 0 c 256,50,51
 440 0 440 0 365 -7 c 1,52,53
 352 -7 352 -7 352 31 c 128,-1,54
 352 69 352 69 365 69 c 0,55,56
 529 69 529 69 529 186 c 2,57,-1
 529 487 l 2,58,59
 529 588 529 588 501 634 c 2,60,-1
 175 1172 l 2,0,1
EndSplineSet
Substitution2: "'ss07' Underdotted lookup 0-1" uni1EF4
Substitution2: "'salt' Stylistic Alternatives in Latin lookup 18" y.enlarged
Substitution2: "'c2sc' Capitals to Small Capitals in Latin lookup 3" y.sc
EndChar

StartChar: Z
Encoding: 90 90 58
Width: 1241
GlyphClass: 2
Flags: W
AnchorPoint: "below" 615 -75 basechar 0
AnchorPoint: "above" 666 1415 basechar 0
LayerCount: 2
Fore
SplineSet
1261 336 m 1,0,1
 1213 100 1213 100 1213 -17 c 0,2,3
 1213 -30 1213 -30 1198 -33 c 1,4,5
 1163 -23 1163 -23 1143 -21 c 0,6,7
 956 0 956 0 483 0 c 2,8,-1
 118 0 l 2,9,10
 83 0 83 0 83 24 c 0,11,12
 83 37 83 37 93 51 c 2,13,-1
 968 1249 l 2,14,15
 977 1261 977 1261 977 1270 c 0,16,17
 977 1291 977 1291 946 1291 c 2,18,-1
 392 1291 l 2,19,20
 337 1291 337 1291 315 1261 c 0,21,22
 243 1169 243 1169 218.5 1106.5 c 128,-1,23
 194 1044 194 1044 175 977 c 0,24,25
 173 970 173 970 151 970 c 128,-1,26
 129 970 129 970 126 984 c 1,27,28
 159 1197 159 1197 159 1347 c 0,29,30
 159 1365 159 1365 196 1365 c 9,31,32
 293 1356 293 1356 343 1356 c 2,33,-1
 824 1356 l 2,34,35
 976 1356 976 1356 1192 1364 c 17,36,37
 1217 1364 1217 1364 1217 1350 c 256,38,39
 1217 1336 1217 1336 1203 1318 c 2,40,-1
 340 118 l 2,41,42
 331 106 331 106 331 94 c 0,43,44
 331 69 331 69 361 69 c 0,45,46
 796 69 796 69 1001 82 c 0,47,48
 1081 87 1081 87 1164 245 c 0,49,50
 1203 319 1203 319 1211 352 c 0,51,52
 1214 364 1214 364 1237.5 355.5 c 128,-1,53
 1261 347 1261 347 1261 336 c 1,0,1
EndSplineSet
Substitution2: "'ss19' Gothic transliteration-1" u10336
Substitution2: "'ss07' Underdotted lookup 0-1" uni1E92
Substitution2: "'salt' Stylistic Alternatives in Latin lookup 18" z.enlarged
Substitution2: "'c2sc' Capitals to Small Capitals in Latin lookup 3" z.sc
EndChar

StartChar: bracketleft
Encoding: 91 91 59
Width: 725
GlyphClass: 2
Flags: W
LayerCount: 2
Fore
SplineSet
666 -354 m 2,0,-1
 309 -354 l 2,1,2
 287 -354 287 -354 287 -332 c 2,3,-1
 287 1511 l 2,4,5
 287 1530 287 1530 307 1530 c 2,6,-1
 666 1530 l 2,7,8
 683 1530 683 1530 683 1491 c 128,-1,9
 683 1452 683 1452 666 1452 c 2,10,-1
 446 1452 l 2,11,12
 426 1452 426 1452 426 1430 c 2,13,-1
 426 -248 l 2,14,15
 426 -276 426 -276 440 -276 c 2,16,-1
 666 -276 l 2,17,18
 683 -276 683 -276 683 -315 c 128,-1,19
 683 -354 683 -354 666 -354 c 2,0,-1
EndSplineSet
EndChar

StartChar: backslash
Encoding: 92 92 60
Width: 717
GlyphClass: 2
Flags: W
LayerCount: 2
Fore
SplineSet
713 25 m 1,0,-1
 713 18 l 1,1,2
 708 9 708 9 684 -2 c 0,3,4
 648 -18 648 -18 629 -18 c 0,5,6
 614 -18 614 -18 612 -12 c 2,7,-1
 4 1432 l 1,8,9
 2 1434 2 1434 2 1438 c 0,10,11
 2 1452 2 1452 32 1468 c 0,12,13
 64 1483 64 1483 88 1483 c 0,14,15
 104 1483 104 1483 106 1475 c 2,16,-1
 713 25 l 1,0,-1
EndSplineSet
EndChar

StartChar: bracketright
Encoding: 93 93 61
Width: 739
GlyphClass: 2
Flags: W
LayerCount: 2
Fore
SplineSet
452 -332 m 2,0,1
 452 -354 452 -354 430 -354 c 2,2,-1
 53 -354 l 2,3,4
 30 -354 30 -354 30 -315 c 128,-1,5
 30 -276 30 -276 51 -276 c 2,6,-1
 301 -276 l 2,7,8
 313 -276 313 -276 313 -252 c 2,9,-1
 313 1430 l 2,10,11
 313 1452 313 1452 295 1452 c 2,12,-1
 71 1452 l 2,13,14
 47 1452 47 1452 47 1491 c 128,-1,15
 47 1530 47 1530 67 1530 c 2,16,-1
 432 1530 l 2,17,18
 452 1530 452 1530 452 1511 c 2,19,-1
 452 -332 l 2,0,1
EndSplineSet
EndChar

StartChar: asciicircum
Encoding: 94 94 62
Width: 1096
GlyphClass: 2
Flags: W
LayerCount: 2
Fore
SplineSet
985 535 m 1,0,-1
 850 535 l 1,1,-1
 549 1217 l 1,2,-1
 246 535 l 1,3,-1
 106 535 l 1,4,-1
 496 1372 l 1,5,-1
 600 1372 l 1,6,-1
 985 535 l 1,0,-1
EndSplineSet
EndChar

StartChar: underscore
Encoding: 95 95 63
Width: 1024
GlyphClass: 2
Flags: W
LayerCount: 2
Fore
SplineSet
1024 -256 m 1,0,-1
 0 -256 l 1,1,-1
 0 -154 l 1,2,-1
 1024 -154 l 1,3,-1
 1024 -256 l 1,0,-1
EndSplineSet
EndChar

StartChar: grave
Encoding: 96 96 64
Width: 569
GlyphClass: 2
Flags: W
LayerCount: 2
Fore
SplineSet
461 1081 m 2,0,1
 465 1070 465 1070 465 1061 c 0,2,3
 465 1022 465 1022 430 1022 c 0,4,5
 407 1022 407 1022 389 1051 c 2,6,-1
 221 1322 l 2,7,8
 217 1327 217 1327 217 1335 c 0,9,10
 217 1361 217 1361 257 1380 c 0,11,12
 279 1391 279 1391 298 1391 c 0,13,14
 322 1391 322 1391 329 1375 c 2,15,-1
 461 1081 l 2,0,1
EndSplineSet
Substitution2: "'case' Case-Sensitive Forms lookup 32-1" CapGrave
EndChar

StartChar: a
Encoding: 97 97 65
Width: 797
GlyphClass: 2
Flags: WI
AnchorPoint: "below" 392 -75 basechar 0
AnchorPoint: "above" 392 900 basechar 0
LayerCount: 2
Fore
SplineSet
481 199 m 2,0,-1
 481 414 l 2,1,2
 481 436 481 436 467 436 c 0,3,4
 460 436 460 436 407 410 c 0,5,6
 237 325 237 325 237 188 c 3,7,8
 237 139 237 139 268.5 108.5 c 128,-1,9
 300 78 300 78 356 78 c 259,10,11
 396 78 396 78 438.5 120.5 c 128,-1,12
 481 163 481 163 481 199 c 2,0,-1
780 123 m 1,13,14
 802 120 802 120 809 93 c 1,15,16
 809 90 809 90 808 88 c 0,17,18
 767 19 767 19 732 -2 c 128,-1,19
 697 -23 697 -23 640 -23 c 3,20,21
 535 -23 535 -23 498 113 c 1,22,23
 422 37 422 37 377 7 c 128,-1,24
 332 -23 332 -23 245 -23 c 259,25,26
 189 -23 189 -23 152 8 c 128,-1,27
 115 39 115 39 99.5 79.5 c 128,-1,28
 84 120 84 120 84 162 c 259,29,30
 84 204 84 204 104 244.5 c 128,-1,31
 124 285 124 285 162.5 317.5 c 128,-1,32
 201 350 201 350 229 365 c 10,33,-1
 461 494 l 2,34,35
 481 505 481 505 481 526 c 2,36,-1
 481 707 l 2,37,38
 481 795 481 795 348 795 c 259,39,40
 251 795 251 795 213 745 c 0,41,42
 208 738 208 738 198 652 c 0,43,44
 186 553 186 553 129 553 c 259,45,46
 74 553 74 553 74 609 c 259,47,48
 74 665 74 665 114.5 721.5 c 128,-1,49
 155 778 155 778 184 795 c 0,50,51
 312 870 312 870 430 870 c 259,52,53
 501 870 501 870 567.5 830 c 128,-1,54
 634 790 634 790 634 731 c 2,55,-1
 634 199 l 2,56,57
 634 84 634 84 701 84 c 3,58,59
 720 84 720 84 773 121 c 0,60,61
 776 123 776 123 780 123 c 1,13,14
EndSplineSet
Substitution2: "'ss19' Gothic transliteration-1" u10330
Substitution2: "'sups' Superscript in Latin lookup 12" uni1D43
Substitution2: "'ss07' Underdotted lookup 0-1" uni1EA1
Substitution2: "'ss06' Enlarged Minuscules lookup 0-1" a.enlarged
Substitution2: "'smcp' Lowercase to Small Capitals in Latin lookup 1" a.sc
Substitution2: "'salt' Stylistic Alternatives in Latin lookup 18" a.enlarged
EndChar

StartChar: b
Encoding: 98 98 66
Width: 1001
GlyphClass: 2
Flags: W
AnchorPoint: "below" 516 -75 basechar 0
AnchorPoint: "above" 420 1545 basechar 0
LayerCount: 2
Fore
SplineSet
930 430 m 259,0,1
 930 212 930 212 818.5 94.5 c 128,-1,2
 707 -23 707 -23 524 -23 c 259,3,4
 465 -23 465 -23 369 23 c 0,5,6
 345 33 345 33 311 33 c 128,-1,7
 277 33 277 33 215 -23 c 1,8,9
 212 -25 212 -25 206 -25 c 131,-1,10
 200 -25 200 -25 185 -19 c 0,11,12
 154 -7 154 -7 154 0 c 0,13,14
 158 61 158 61 158 260 c 2,15,-1
 158 1178 l 2,16,17
 158 1311 158 1311 66 1311 c 0,18,19
 49 1311 49 1311 49 1338.5 c 131,-1,20
 49 1366 49 1366 66 1366 c 0,21,22
 91 1366 91 1366 171 1407 c 128,-1,23
 251 1448 251 1448 271.5 1466.5 c 128,-1,24
 292 1485 292 1485 304 1485 c 259,25,26
 316 1485 316 1485 317 1460 c 2,27,-1
 311 1336 l 1,28,-1
 311 836 l 2,29,30
 311 809 311 809 324 809 c 0,31,32
 333 809 333 809 344 815 c 0,33,34
 438 870 438 870 520 870 c 259,35,36
 696 870 696 870 813 738.5 c 128,-1,37
 930 607 930 607 930 430 c 259,0,1
756 414 m 259,38,39
 756 570 756 570 679.5 680.5 c 128,-1,40
 603 791 603 791 481 791 c 259,41,42
 395 791 395 791 334 741 c 0,43,44
 311 723 311 723 311 647 c 2,45,-1
 311 301 l 2,46,47
 311 220 311 220 386.5 128.5 c 128,-1,48
 462 37 462 37 558 37 c 259,49,50
 654 37 654 37 705 147.5 c 128,-1,51
 756 258 756 258 756 414 c 259,38,39
EndSplineSet
Substitution2: "'ss19' Gothic transliteration-1" u10331
Substitution2: "'sups' Superscript in Latin lookup 12" uni1D47
Substitution2: "'ss07' Underdotted lookup 0-1" uni1E05
Substitution2: "'ss06' Enlarged Minuscules lookup 0-1" b.enlarged
Substitution2: "'smcp' Lowercase to Small Capitals in Latin lookup 1" b.sc
Substitution2: "'salt' Stylistic Alternatives in Latin lookup 18" b.enlarged
EndChar

StartChar: c
Encoding: 99 99 67
Width: 817
GlyphClass: 2
Flags: W
AnchorPoint: "below" 500 -75 basechar 0
AnchorPoint: "above" 500 900 basechar 0
LayerCount: 2
Fore
SplineSet
743 152 m 0,0,1
 754 157 754 157 767.5 136.5 c 128,-1,2
 781 116 781 116 781 108 c 0,3,4
 781 102 781 102 776 97 c 0,5,6
 750 74 750 74 668 26 c 0,7,8
 588 -22 588 -22 446 -23 c 256,9,10
 300 -23 300 -23 193 94 c 128,-1,11
 86 211 86 211 86 396 c 256,12,13
 86 581 86 581 208 725.5 c 128,-1,14
 330 870 330 870 523 870 c 256,15,16
 719 870 719 870 756 797 c 0,17,18
 762 785 762 785 762 756 c 0,19,20
 762 737 762 737 740 709.5 c 128,-1,21
 718 682 718 682 701 682 c 128,-1,22
 684 682 684 682 674 696 c 0,23,24
 596 803 596 803 501 803 c 256,25,26
 406 803 406 803 328 701 c 0,27,28
 250 598 250 598 249 440 c 256,29,30
 249 282 249 282 338.5 186 c 128,-1,31
 428 90 428 90 530 90 c 256,32,33
 607 90 607 90 743 152 c 0,0,1
EndSplineSet
Substitution2: "'sups' Superscript in Latin lookup 12" uni1D9C
Substitution2: "'ss07' Underdotted lookup 0-1" uniE466
Substitution2: "'ss06' Enlarged Minuscules lookup 0-1" c.enlarged
Substitution2: "'ss05' Medium Overlines lookup 0-1" cmedoverline
Substitution2: "'ss04' High Overlines lookup 0-1" chighoverline
Substitution2: "'swsh' Swash in Latin lookup 30" uniF198
Substitution2: "'smcp' Lowercase to Small Capitals in Latin lookup 1" c.sc
Substitution2: "'salt' Stylistic Alternatives in Latin lookup 18" c.enlarged
EndChar

StartChar: d
Encoding: 100 100 68
Width: 1012
GlyphClass: 2
Flags: W
AnchorPoint: "below" 444 -75 basechar 0
AnchorPoint: "above" 580 1545 basechar 0
LayerCount: 2
Fore
SplineSet
841 231 m 2,0,1
 841 82 841 82 923 82 c 0,2,3
 934 82 934 82 970 88 c 0,4,5
 982 90 982 90 988 51 c 0,6,7
 990 32 990 32 982 31 c 0,8,9
 945 26 945 26 829 -0.5 c 128,-1,10
 713 -27 713 -27 705 -33 c 1,11,12
 688 -33 688 -33 688 16 c 2,13,-1
 688 57 l 2,14,15
 688 80 688 80 676.5 80 c 128,-1,16
 665 80 665 80 649 66 c 0,17,18
 555 -23 555 -23 453 -23 c 256,19,20
 256 -23 256 -23 161 99.5 c 128,-1,21
 66 222 66 222 66 411 c 256,22,23
 66 600 66 600 198 735 c 128,-1,24
 330 870 330 870 541 870 c 256,25,26
 611 870 611 870 655 856 c 8,27,28
 667 852 667 852 674 852 c 0,29,30
 688 852 688 852 688 877 c 2,31,-1
 688 1171 l 2,32,33
 688 1311 688 1311 596 1311 c 0,34,35
 579 1311 579 1311 579 1338.5 c 128,-1,36
 579 1366 579 1366 596 1366 c 1,37,38
 621 1366 621 1366 692.5 1402.5 c 128,-1,39
 764 1439 764 1439 795.5 1462 c 128,-1,40
 827 1485 827 1485 837 1485 c 256,41,42
 848 1485 848 1485 847 1470 c 2,43,-1
 841 1362 l 1,44,-1
 841 231 l 2,0,1
688 199 m 2,45,-1
 688 668 l 2,46,47
 688 743 688 743 666 762 c 0,48,49
 607 811 607 811 518 811 c 256,50,51
 384 811 384 811 306.5 699.5 c 128,-1,52
 229 588 229 588 229 440 c 256,53,54
 229 292 229 292 312 183 c 128,-1,55
 395 74 395 74 504 74 c 256,56,57
 582 74 582 74 635 115 c 128,-1,58
 688 156 688 156 688 199 c 2,45,-1
EndSplineSet
Substitution2: "'ss19' Gothic transliteration-1" u10333
Substitution2: "'sups' Superscript in Latin lookup 12" uni1D48
Substitution2: "'ss07' Underdotted lookup 0-1" uni1E0D
Substitution2: "'ss06' Enlarged Minuscules lookup 0-1" d.enlarged
Substitution2: "'ss05' Medium Overlines lookup 0-1" uniE491
Substitution2: "'ss04' High Overlines lookup 0-1" dhighoverline
AlternateSubs2: "'salt' Stylistic Alternatives in Latin lookup 19" d.enlarged uniA77A.enlarged
Substitution2: "'swsh' Swash in Latin lookup 30" uniF193
Substitution2: "'ss02' Insular Shapes subtable 0" uniA77A
Substitution2: "'smcp' Lowercase to Small Capitals in Latin lookup 1" d.sc
EndChar

StartChar: e
Encoding: 101 101 69
Width: 838
GlyphClass: 2
Flags: W
AnchorPoint: "below" 462 -75 basechar 0
AnchorPoint: "above" 462 900 basechar 0
LayerCount: 2
Fore
SplineSet
85 431 m 256,0,1
 85 609 85 609 198.5 739.5 c 128,-1,2
 312 870 312 870 453 870 c 256,3,4
 594 870 594 870 681 772 c 128,-1,5
 768 674 768 674 768 612 c 256,6,7
 768 550 768 550 717 549 c 2,8,-1
 268 549 l 2,9,10
 238 549 238 549 238 483 c 256,11,12
 238 323 238 323 314.5 208.5 c 128,-1,13
 391 94 391 94 526 94 c 256,14,15
 627 94 627 94 727 154 c 0,16,17
 732 157 732 157 738 157 c 0,18,19
 750 157 750 157 759 146 c 0,20,21
 766 139 766 139 766 125 c 0,22,23
 766 120 766 120 762 117 c 0,24,25
 604 -23 604 -23 451 -23 c 256,26,27
 298 -23 298 -23 191.5 115 c 128,-1,28
 85 253 85 253 85 431 c 256,0,1
261 630 m 0,29,30
 261 616 261 616 285 616 c 2,31,-1
 606 616 l 2,32,33
 621 616 621 616 621 633 c 0,34,35
 621 677 621 677 566.5 744 c 128,-1,36
 512 811 512 811 453 811 c 256,37,38
 388 811 388 811 340.5 767.5 c 128,-1,39
 293 724 293 724 264 645 c 0,40,41
 261 637 261 637 261 630 c 0,29,30
EndSplineSet
Substitution2: "'ss19' Gothic transliteration-1" u10334
Substitution2: "'sups' Superscript in Latin lookup 12" uni1D49
Substitution2: "'ss07' Underdotted lookup 0-1" uni1EB9
Substitution2: "'ss06' Enlarged Minuscules lookup 0-1" e.enlarged
Substitution2: "'smcp' Lowercase to Small Capitals in Latin lookup 1" e.sc
Substitution2: "'salt' Stylistic Alternatives in Latin lookup 18" e.enlarged
EndChar

StartChar: f
Encoding: 102 102 70
Width: 584
GlyphClass: 2
Flags: W
AnchorPoint: "below" 279 -75 basechar 0
AnchorPoint: "above" 500 1545 basechar 0
LayerCount: 2
Fore
SplineSet
201 127 m 2,0,-1
 201 727 l 2,1,2
 201 764 201 764 164 764 c 2,3,-1
 90 764 l 2,4,5
 75 764 75 764 75 791.5 c 128,-1,6
 75 819 75 819 90 819 c 0,7,8
 201 819 201 819 201 905 c 2,9,-1
 201 924 l 2,10,11
 201 1174 201 1174 342 1330.5 c 128,-1,12
 483 1487 483 1487 672 1487 c 0,13,14
 725 1487 725 1487 768 1474 c 0,15,16
 810 1461 810 1461 834 1435 c 0,17,18
 858 1410 858 1410 858 1368 c 0,19,20
 858 1338 858 1338 830.5 1311 c 128,-1,21
 803 1284 803 1284 772 1284 c 0,22,23
 716 1284 716 1284 670.5 1338.5 c 128,-1,24
 625 1393 625 1393 571 1393 c 0,25,26
 465 1393 465 1393 409.5 1308 c 128,-1,27
 354 1223 354 1223 354 1101 c 2,28,-1
 354 887 l 2,29,30
 354 850 354 850 391 850 c 2,31,-1
 594 850 l 2,32,33
 609 850 609 850 609 807 c 128,-1,34
 609 764 609 764 594 764 c 2,35,-1
 391 764 l 2,36,37
 354 764 354 764 354 727 c 2,38,-1
 354 127 l 2,39,40
 354 49 354 49 502 49 c 0,41,42
 516 49 516 49 516 20.5 c 128,-1,43
 516 -8 516 -8 502 -8 c 1,44,45
 417 0 417 0 291 0 c 256,46,47
 165 0 165 0 84 -8 c 1,48,49
 70 -8 70 -8 70 20.5 c 128,-1,50
 70 49 70 49 84 49 c 0,51,52
 201 49 201 49 201 127 c 2,0,-1
EndSplineSet
Substitution2: "'ss19' Gothic transliteration-1" u10346
AlternateSubs2: "'salt' Stylistic Alternatives in Latin lookup 19" f.enlarged f.alt
Substitution2: "'sups' Superscript in Latin lookup 12" uni1DA0
Substitution2: "'ss07' Underdotted lookup 0-1" uniE4EE
Substitution2: "'ss06' Enlarged Minuscules lookup 0-1" f.enlarged
Substitution2: "Single Substitution lookup 31" f.alt
Substitution2: "'swsh' Swash in Latin lookup 30" uniF194
Substitution2: "'ss02' Insular Shapes subtable 0" uniA77C
Substitution2: "'smcp' Lowercase to Small Capitals in Latin lookup 1" f.sc
EndChar

StartChar: g
Encoding: 103 103 71
Width: 948
GlyphClass: 2
Flags: W
AnchorPoint: "below" 462 -603 basechar 0
AnchorPoint: "above" 458 900 basechar 0
LayerCount: 2
Fore
SplineSet
59 -308 m 256,0,1
 59 -208 59 -208 246 -74 c 0,2,3
 262 -60 262 -60 262 -52 c 1,4,5
 260 -41 260 -41 242 -37 c 0,6,7
 106 2 106 2 106 111 c 0,8,9
 106 162 106 162 220 242 c 0,10,11
 230 249 230 249 243.5 257 c 128,-1,12
 257 265 257 265 257 277 c 128,-1,13
 257 289 257 289 242 299 c 0,14,15
 96 392 96 392 96 538 c 256,16,17
 96 684 96 684 196.5 777 c 128,-1,18
 297 870 297 870 424 870 c 256,19,20
 551 870 551 870 638 831.5 c 128,-1,21
 725 793 725 793 776 793 c 2,22,-1
 948 793 l 2,23,24
 963 793 963 793 963 750 c 128,-1,25
 963 707 963 707 948 707 c 2,26,-1
 782 707 l 1,27,28
 786 670 786 670 786 598 c 256,29,30
 786 453 786 453 692 356.5 c 128,-1,31
 598 260 598 260 430 260 c 256,32,33
 397 260 397 260 354 264 c 1,34,35
 333 264 333 264 311 250 c 0,36,37
 242 205 242 205 242 150 c 0,38,39
 242 70 242 70 391 70 c 2,40,-1
 645 70 l 2,41,42
 942 70 942 70 942 -158 c 256,43,44
 942 -328 942 -328 782.5 -443.5 c 128,-1,45
 623 -559 623 -559 428 -559 c 256,46,47
 247 -559 247 -559 153 -488.5 c 128,-1,48
 59 -418 59 -418 59 -308 c 256,0,1
219 -252 m 256,49,50
 219 -350 219 -350 292 -409.5 c 128,-1,51
 365 -469 365 -469 503 -469 c 256,52,53
 641 -469 641 -469 730 -402.5 c 128,-1,54
 819 -336 819 -336 819 -242 c 256,55,56
 819 -55 819 -55 575 -55 c 2,57,-1
 391 -55 l 2,58,59
 356 -55 356 -55 330 -74 c 0,60,61
 219 -154 219 -154 219 -252 c 256,49,50
250 569 m 256,62,63
 250 460 250 460 316 389.5 c 128,-1,64
 382 319 382 319 461 319 c 256,65,66
 631 319 631 319 631 543 c 256,67,68
 631 715 631 715 545 780 c 0,69,70
 504 811 504 811 435 811 c 256,71,72
 366 811 366 811 308 744.5 c 128,-1,73
 250 678 250 678 250 569 c 256,62,63
EndSplineSet
Substitution2: "'ss19' Gothic transliteration-1" u10332
Substitution2: "'sups' Superscript in Latin lookup 12" uni1D4D
Substitution2: "'ss07' Underdotted lookup 0-1" uniE501
Substitution2: "'ss06' Enlarged Minuscules lookup 0-1" g.enlarged
Substitution2: "'swsh' Swash in Latin lookup 30" uniF196
Substitution2: "'ss02' Insular Shapes subtable 0" uni1D79
Substitution2: "'smcp' Lowercase to Small Capitals in Latin lookup 1" g.sc
Substitution2: "'salt' Stylistic Alternatives in Latin lookup 18" g.enlarged
EndChar

StartChar: h
Encoding: 104 104 72
Width: 1094
GlyphClass: 2
Flags: W
AnchorPoint: "below" 564 -75 basechar 0
AnchorPoint: "above" 464 1545 basechar 0
LayerCount: 2
Fore
SplineSet
921 127 m 2,0,1
 921 49 921 49 1048 49 c 0,2,3
 1062 49 1062 49 1062 20.5 c 128,-1,4
 1062 -8 1062 -8 1048 -8 c 1,5,6
 966 0 966 0 850 0 c 256,7,8
 734 0 734 0 655 -8 c 1,9,10
 641 -8 641 -8 641 20.5 c 128,-1,11
 641 49 641 49 655 49 c 0,12,13
 768 49 768 49 768 127 c 2,14,-1
 768 547 l 2,15,16
 768 644 768 644 709 712 c 128,-1,17
 650 780 650 780 566 780 c 256,18,19
 482 780 482 780 418 729 c 128,-1,20
 354 678 354 678 354 629 c 2,21,-1
 354 127 l 2,22,23
 354 49 354 49 465 49 c 0,24,25
 479 49 479 49 479 20.5 c 128,-1,26
 479 -8 479 -8 465 -8 c 1,27,28
 360 0 360 0 260 0 c 256,29,30
 160 0 160 0 80 -8 c 1,31,32
 66 -8 66 -8 66 20.5 c 128,-1,33
 66 49 66 49 80 49 c 0,34,35
 201 49 201 49 201 127 c 2,36,-1
 201 1174 l 2,37,38
 201 1313 201 1313 109 1313 c 0,39,40
 92 1313 92 1313 92 1340.5 c 128,-1,41
 92 1368 92 1368 109 1368 c 0,42,43
 142 1368 142 1368 206.5 1402 c 128,-1,44
 271 1436 271 1436 304 1462 c 0,45,46
 336 1488 336 1488 348 1487 c 256,47,48
 360 1487 360 1487 360 1470 c 0,49,50
 354 1363 354 1363 354 1305 c 2,51,-1
 354 791 l 2,52,53
 354 766 354 766 370 766 c 0,54,55
 379 766 379 766 387 774 c 0,56,57
 478 870 478 870 628 870 c 256,58,59
 773 870 773 870 847 764.5 c 128,-1,60
 921 659 921 659 921 549 c 10,61,-1
 921 127 l 2,0,1
EndSplineSet
Substitution2: "'ss19' Gothic transliteration-1" u10337
Substitution2: "'sups' Superscript in Latin lookup 12" uni02B0
Substitution2: "'ss07' Underdotted lookup 0-1" uni1E25
Substitution2: "'ss06' Enlarged Minuscules lookup 0-1" h.enlarged
Substitution2: "'smcp' Lowercase to Small Capitals in Latin lookup 1" h.sc
Substitution2: "'salt' Stylistic Alternatives in Latin lookup 18" h.enlarged
EndChar

StartChar: i
Encoding: 105 105 73
Width: 524
GlyphClass: 2
Flags: W
AnchorPoint: "below" 280 -75 basechar 0
AnchorPoint: "above" 268 1285 basechar 0
LayerCount: 2
Fore
SplineSet
467 -8 m 1,0,1
 391 0 391 0 280 0 c 256,2,3
 169 0 169 0 88 -8 c 1,4,5
 74 -8 74 -8 74 20.5 c 128,-1,6
 74 49 74 49 88 49 c 0,7,8
 201 49 201 49 201 127 c 2,9,-1
 201 571 l 2,10,11
 201 709 201 709 109 709 c 0,12,13
 92 709 92 709 92 737 c 128,-1,14
 92 765 92 765 109 765 c 0,15,16
 142 765 142 765 206.5 799 c 128,-1,17
 271 833 271 833 304 858 c 128,-1,18
 337 883 337 883 348 883 c 256,19,20
 360 883 360 883 360 867 c 0,21,22
 354 759 354 759 354 701 c 2,23,-1
 354 127 l 2,24,25
 354 49 354 49 467 49 c 0,26,27
 481 49 481 49 481 20.5 c 128,-1,28
 481 -8 481 -8 467 -8 c 1,0,1
333 1232.5 m 128,-1,30
 365 1202 365 1202 365 1157 c 256,31,32
 365 1112 365 1112 333 1080 c 128,-1,33
 301 1048 301 1048 256 1048 c 256,34,35
 211 1048 211 1048 180.5 1080 c 128,-1,36
 150 1112 150 1112 150 1157 c 256,37,38
 150 1202 150 1202 180.5 1232.5 c 128,-1,39
 211 1263 211 1263 256 1263 c 256,40,29
 301 1263 301 1263 333 1232.5 c 128,-1,30
EndSplineSet
Substitution2: "'ss19' Gothic transliteration-1" u10339
Substitution2: "'ss07' Underdotted lookup 0-1" uni1ECB
Substitution2: "'ss06' Enlarged Minuscules lookup 0-1" i.enlarged
Substitution2: "'ss05' Medium Overlines lookup 0-1" uniE550
Substitution2: "'ss04' High Overlines lookup 0-1" ihighoverline
Ligature2: "'ccmp' Glyph Composition/Decomposition in Latin singles" dotlessi uni0307
Substitution2: "'sups' Superscript in Latin lookup 12" uni2071
Substitution2: "'ss02' Insular Shapes subtable 0" dotlessi
Substitution2: "'smcp' Lowercase to Small Capitals in Latin lookup 1" i.sc
Substitution2: "'salt' Stylistic Alternatives in Latin lookup 18" i.enlarged
Substitution2: "Single Substitution lookup 31" dotlessi
LCarets2: 1 0 
EndChar

StartChar: j
Encoding: 106 106 74
Width: 518
GlyphClass: 2
Flags: W
AnchorPoint: "below" 207 -594 basechar 0
AnchorPoint: "above" 264 1545 basechar 0
LayerCount: 2
Fore
SplineSet
365 1157 m 256,0,1
 365 1112 365 1112 333 1080 c 128,-1,2
 301 1048 301 1048 256 1048 c 256,3,4
 211 1048 211 1048 180.5 1080 c 128,-1,5
 150 1112 150 1112 150 1157 c 256,6,7
 150 1202 150 1202 180.5 1232.5 c 128,-1,8
 211 1263 211 1263 256 1263 c 256,9,10
 301 1263 301 1263 333 1232.5 c 128,-1,11
 365 1202 365 1202 365 1157 c 256,0,1
358 59 m 2,12,13
 358 -270 358 -270 248 -424 c 0,14,15
 155 -555 155 -555 0 -555 c 256,16,17
 -50 -555 -50 -555 -87.5 -527 c 128,-1,18
 -125 -499 -125 -499 -125 -459 c 256,19,20
 -125 -427 -125 -427 -100.5 -408 c 128,-1,21
 -76 -389 -76 -389 -47 -389 c 256,22,23
 2 -389 2 -389 41.5 -428 c 128,-1,24
 81 -467 81 -467 106 -467 c 256,25,26
 205 -467 205 -467 205 -254 c 2,27,-1
 205 571 l 2,28,29
 205 709 205 709 113 709 c 0,30,31
 96 709 96 709 96 737 c 128,-1,32
 96 765 96 765 113 765 c 0,33,34
 146 765 146 765 210.5 799 c 128,-1,35
 275 833 275 833 308 858 c 128,-1,36
 341 883 341 883 352 883 c 256,37,38
 364 883 364 883 364 867 c 0,39,40
 358 759 358 759 358 701 c 2,41,-1
 358 59 l 2,12,13
EndSplineSet
Substitution2: "'ss19' Gothic transliteration-1" u1033E
Substitution2: "'sups' Superscript in Latin lookup 12" uni02B2
Substitution2: "Alternate j follows ogonek-1" j.alt
Substitution2: "'ss07' Underdotted lookup 0-1" uniE551
Substitution2: "'ss06' Enlarged Minuscules lookup 0-1" j.enlarged
Substitution2: "'ss05' Medium Overlines lookup 0-1" uniE552
Substitution2: "'ss04' High Overlines lookup 0-1" jhighoverline
Substitution2: "'smcp' Lowercase to Small Capitals in Latin lookup 1" j.sc
Substitution2: "'salt' Stylistic Alternatives in Latin lookup 18" j.enlarged
Substitution2: "Single Substitution lookup 31" uniF6BE
EndChar

StartChar: k
Encoding: 107 107 75
Width: 1008
GlyphClass: 2
Flags: W
AnchorPoint: "below" 522 -75 basechar 0
AnchorPoint: "above" 464 1545 basechar 0
LayerCount: 2
Fore
SplineSet
664 723 m 2,0,1
 690 752 690 752 690 770 c 0,2,3
 690 803 690 803 594 803 c 0,4,5
 580 803 580 803 580 829.5 c 128,-1,6
 580 856 580 856 594 856 c 1,7,8
 686 850 686 850 784 850 c 256,9,10
 882 850 882 850 958 856 c 1,11,12
 972 856 972 856 972 829.5 c 128,-1,13
 972 803 972 803 958 803 c 0,14,15
 866 803 866 803 795 735 c 2,16,-1
 582 530 l 2,17,18
 563 512 563 512 563 496 c 128,-1,19
 563 480 563 480 580 461 c 2,20,-1
 901 94 l 2,21,22
 940 49 940 49 1030 49 c 0,23,24
 1044 49 1044 49 1044 20.5 c 128,-1,25
 1044 -8 1044 -8 1030 -8 c 1,26,27
 935 0 935 0 828 0 c 256,28,29
 721 0 721 0 627 -8 c 1,30,31
 613 -8 613 -8 613 20.5 c 128,-1,32
 613 49 613 49 627 49 c 0,33,34
 709 49 709 49 709 78 c 0,35,36
 709 91 709 91 678 127 c 2,37,-1
 457 381 l 2,38,39
 441 399 441 399 421.5 405.5 c 128,-1,40
 402 412 402 412 387 412 c 128,-1,41
 372 412 372 412 363 404 c 128,-1,42
 354 396 354 396 354 369 c 2,43,-1
 354 127 l 2,44,45
 354 49 354 49 473 49 c 0,46,47
 487 49 487 49 487 20.5 c 128,-1,48
 487 -8 487 -8 473 -8 c 1,49,50
 369 0 369 0 275 0 c 256,51,52
 181 0 181 0 86 -8 c 1,53,54
 72 -8 72 -8 72.5 20.5 c 128,-1,55
 73 49 73 49 86 49 c 0,56,57
 201 49 201 49 201 127 c 2,58,-1
 201 1175 l 2,59,60
 201 1313 201 1313 109 1313 c 0,61,62
 91 1313 91 1313 91.5 1341 c 128,-1,63
 92 1369 92 1369 109 1369 c 0,64,65
 142 1369 142 1369 206.5 1403 c 128,-1,66
 271 1437 271 1437 304 1462 c 128,-1,67
 337 1487 337 1487 348 1487 c 256,68,69
 360 1487 360 1487 360 1471 c 0,70,71
 354 1366 354 1366 354 1305 c 2,72,-1
 354 522 l 2,73,74
 354 479 354 479 400 479 c 128,-1,75
 446 479 446 479 467 502 c 2,76,-1
 664 723 l 2,0,1
EndSplineSet
Substitution2: "'ss19' Gothic transliteration-1" u1033A
Substitution2: "'sups' Superscript in Latin lookup 12" uni1D4F
Substitution2: "'ss07' Underdotted lookup 0-1" uni1E33
Substitution2: "'ss06' Enlarged Minuscules lookup 0-1" k.enlarged
AlternateSubs2: "'salt' Stylistic Alternatives in Latin lookup 19" uniF208 uniF209 k.enlarged
Substitution2: "'swsh' Swash in Latin lookup 30" uniF195
Substitution2: "'smcp' Lowercase to Small Capitals in Latin lookup 1" k.sc
EndChar

StartChar: l
Encoding: 108 108 76
Width: 524
GlyphClass: 2
Flags: W
AnchorPoint: "below" 282 -75 basechar 0
AnchorPoint: "above" 272 1545 basechar 0
LayerCount: 2
Fore
SplineSet
354 127 m 2,0,1
 354 49 354 49 473 49 c 0,2,3
 487 49 487 49 487 20.5 c 128,-1,4
 487 -8 487 -8 473 -8 c 1,5,6
 396 0 396 0 280 0 c 256,7,8
 164 0 164 0 84 -8 c 1,9,10
 70 -8 70 -8 70 20.5 c 128,-1,11
 70 49 70 49 84 49 c 0,12,13
 201 49 201 49 201 127 c 2,14,-1
 201 1171 l 2,15,16
 201 1311 201 1311 109 1311 c 0,17,18
 92 1311 92 1311 92 1338.5 c 128,-1,19
 92 1366 92 1366 109 1366 c 0,20,21
 155 1366 155 1366 274 1440 c 0,22,23
 308 1461 308 1461 324 1473 c 128,-1,24
 340 1485 340 1485 350 1485 c 256,25,26
 360 1485 360 1485 360 1470 c 0,27,28
 354 1413 354 1413 354 1373 c 2,29,-1
 354 127 l 2,0,1
EndSplineSet
Substitution2: "'ss19' Gothic transliteration-1" u1033B
Substitution2: "'sups' Superscript in Latin lookup 12" uni02E1
Substitution2: "'ss07' Underdotted lookup 0-1" uni1E37
Substitution2: "'ss06' Enlarged Minuscules lookup 0-1" l.enlarged
Substitution2: "'ss05' Medium Overlines lookup 0-1" uniE5B1
Substitution2: "'ss04' High Overlines lookup 0-1" lhighoverline
Substitution2: "'smcp' Lowercase to Small Capitals in Latin lookup 1" l.sc
Substitution2: "'salt' Stylistic Alternatives in Latin lookup 18" l.enlarged
EndChar

StartChar: m
Encoding: 109 109 77
Width: 1607
GlyphClass: 2
Flags: W
AnchorPoint: "below" 840 -75 basechar 0
AnchorPoint: "above" 839 900 basechar 0
LayerCount: 2
Fore
SplineSet
1553 -8 m 1,0,1
 1476 0 1476 0 1364 0 c 256,2,3
 1252 0 1252 0 1174 -8 c 1,4,5
 1160 -8 1160 -8 1160 20.5 c 128,-1,6
 1160 49 1160 49 1174 49 c 0,7,8
 1284 49 1284 49 1284 127 c 2,9,-1
 1284 580 l 18,10,11
 1284 697 1284 697 1227.5 738.5 c 128,-1,12
 1171 780 1171 780 1085 780 c 256,13,14
 998 780 998 780 946.5 698 c 128,-1,15
 895 616 895 616 895 477 c 10,16,-1
 895 127 l 2,17,18
 895 49 895 49 1010 49 c 0,19,20
 1024 49 1024 49 1024 20.5 c 128,-1,21
 1024 -8 1024 -8 1010 -8 c 1,22,23
 930 0 930 0 820 0 c 256,24,25
 710 0 710 0 632 -8 c 1,26,27
 618 -8 618 -8 618 20.5 c 128,-1,28
 618 49 618 49 632 49 c 0,29,30
 742 49 742 49 742 127 c 2,31,-1
 742 532 l 2,32,33
 742 622 742 622 726 679 c 128,-1,34
 710 736 710 736 677.5 758 c 128,-1,35
 645 780 645 780 571 780 c 256,36,37
 526 780 526 780 493.5 763 c 128,-1,38
 461 746 461 746 429.5 722 c 128,-1,39
 398 698 398 698 376 664 c 128,-1,40
 354 630 354 630 354 590 c 10,41,-1
 354 127 l 2,42,43
 354 49 354 49 460 49 c 0,44,45
 474 49 474 49 474 20.5 c 128,-1,46
 474 -8 474 -8 460 -8 c 1,47,48
 384 0 384 0 272 0 c 256,49,50
 160 0 160 0 80 -8 c 1,51,52
 66 -8 66 -8 66 20.5 c 128,-1,53
 66 49 66 49 80 49 c 0,54,55
 201 49 201 49 201 127 c 2,56,-1
 201 578 l 2,57,58
 201 702 201 702 117 702 c 0,59,60
 100 702 100 702 100 730 c 128,-1,61
 100 758 100 758 117 758 c 0,62,63
 142 758 142 758 200.5 792.5 c 128,-1,64
 259 827 259 827 294.5 855 c 128,-1,65
 330 883 330 883 343 883 c 0,66,67
 358 883 358 883 357 856 c 0,68,69
 353 778 353 778 353 773 c 0,70,71
 353 752 353 752 365 752 c 0,72,73
 374 752 374 752 382 760 c 0,74,75
 486 870 486 870 634 870 c 256,76,77
 766 870 766 870 850 748 c 0,78,79
 861 732 861 732 869.5 732 c 128,-1,80
 878 732 878 732 889 745 c 0,81,82
 1002 870 1002 870 1163 870 c 256,83,84
 1285 870 1285 870 1344.5 802 c 128,-1,85
 1404 734 1404 734 1420.5 683.5 c 128,-1,86
 1437 633 1437 633 1437 565 c 10,87,-1
 1437 127 l 2,88,89
 1437 49 1437 49 1553 49 c 0,90,91
 1567 49 1567 49 1567 20.5 c 128,-1,92
 1567 -8 1567 -8 1553 -8 c 1,0,1
EndSplineSet
Substitution2: "'ss19' Gothic transliteration-1" u1033C
Substitution2: "'sups' Superscript in Latin lookup 12" uni1D50
Substitution2: "'ss07' Underdotted lookup 0-1" uni1E43
Substitution2: "'ss06' Enlarged Minuscules lookup 0-1" m.enlarged
Substitution2: "'ss05' Medium Overlines lookup 0-1" uniE5D2
Substitution2: "'ss04' High Overlines lookup 0-1" mhighoverline
Substitution2: "'smcp' Lowercase to Small Capitals in Latin lookup 1" m.sc
Substitution2: "'salt' Stylistic Alternatives in Latin lookup 18" m.enlarged
EndChar

StartChar: n
Encoding: 110 110 78
Width: 1069
GlyphClass: 2
Flags: W
AnchorPoint: "below" 555 -75 basechar 0
AnchorPoint: "above" 603 900 basechar 0
LayerCount: 2
Fore
SplineSet
896 127 m 2,0,1
 896 49 896 49 1011 49 c 0,2,3
 1025 49 1025 49 1025 20.5 c 128,-1,4
 1025 -8 1025 -8 1011 -8 c 1,5,6
 934 0 934 0 824 0 c 256,7,8
 714 0 714 0 633 -8 c 1,9,10
 619 -8 619 -8 619 20.5 c 128,-1,11
 619 49 619 49 633 49 c 0,12,13
 743 49 743 49 743 127 c 2,14,-1
 743 530 l 18,15,16
 743 614 743 614 728.5 672.5 c 128,-1,17
 714 731 714 731 683 755.5 c 128,-1,18
 652 780 652 780 574 780 c 256,19,20
 532 780 532 780 498 763 c 128,-1,21
 464 746 464 746 431.5 722.5 c 128,-1,22
 399 699 399 699 376.5 664.5 c 128,-1,23
 354 630 354 630 354 590 c 2,24,-1
 354 127 l 2,25,26
 354 49 354 49 461 49 c 0,27,28
 475 49 475 49 475 20.5 c 128,-1,29
 475 -8 475 -8 461 -8 c 1,30,31
 384 0 384 0 274 0 c 256,32,33
 164 0 164 0 86 -8 c 1,34,35
 72 -8 72 -8 72 20.5 c 128,-1,36
 72 49 72 49 86 49 c 0,37,38
 201 49 201 49 201 127 c 2,39,-1
 201 574 l 2,40,41
 201 702 201 702 117 702 c 0,42,43
 100 702 100 702 100 730 c 128,-1,44
 100 758 100 758 117 758 c 0,45,46
 155 758 155 758 204.5 788 c 128,-1,47
 254 818 254 818 291 850.5 c 128,-1,48
 328 883 328 883 343 883 c 0,49,50
 357 883 357 883 356 852 c 2,51,-1
 354 779 l 2,52,53
 353 758 353 758 368 758 c 0,54,55
 376 758 376 758 383 764 c 0,56,57
 490 870 490 870 642 870 c 256,58,59
 790 870 790 870 863 723 c 0,60,61
 896 657 896 657 896 475 c 2,62,-1
 896 127 l 2,0,1
EndSplineSet
Substitution2: "'ss19' Gothic transliteration-1" u1033D
Substitution2: "'ss07' Underdotted lookup 0-1" uni1E47
Substitution2: "'ss06' Enlarged Minuscules lookup 0-1" n.enlarged
Substitution2: "'swsh' Swash in Latin lookup 30" uniF19A
Substitution2: "'sups' Superscript in Latin lookup 12" uni207F
Substitution2: "'smcp' Lowercase to Small Capitals in Latin lookup 1" n.sc
Substitution2: "'salt' Stylistic Alternatives in Latin lookup 18" n.enlarged
EndChar

StartChar: o
Encoding: 111 111 79
Width: 995
GlyphClass: 2
Flags: W
AnchorPoint: "below" 507 -75 basechar 0
AnchorPoint: "above" 507 900 basechar 0
LayerCount: 2
Fore
SplineSet
84 428 m 259,0,1
 84 596 84 596 209 733 c 128,-1,2
 334 870 334 870 508 870 c 259,3,4
 682 870 682 870 803 734 c 0,5,6
 924 596 924 596 924 420 c 259,7,8
 924 244 924 244 813 110.5 c 128,-1,9
 702 -23 702 -23 516 -23 c 259,10,11
 330 -23 330 -23 207 118.5 c 128,-1,12
 84 260 84 260 84 428 c 259,0,1
247 422 m 259,13,14
 247 244 247 244 328.5 143.5 c 128,-1,15
 410 43 410 43 504 43 c 259,16,17
 600 43 600 43 680 144 c 0,18,19
 761 246 761 246 761 422 c 259,20,21
 761 598 761 598 681 704 c 128,-1,22
 601 810 601 810 506 811 c 259,23,24
 410 811 410 811 328.5 705.5 c 128,-1,25
 247 600 247 600 247 422 c 259,13,14
EndSplineSet
Substitution2: "'ss19' Gothic transliteration-1" u10349
Substitution2: "'sups' Superscript in Latin lookup 12" ordmasculine
Substitution2: "'ss07' Underdotted lookup 0-1" uni1ECD
Substitution2: "'ss06' Enlarged Minuscules lookup 0-1" o.enlarged
Substitution2: "'smcp' Lowercase to Small Capitals in Latin lookup 1" o.sc
Substitution2: "'salt' Stylistic Alternatives in Latin lookup 18" o.enlarged
EndChar

StartChar: p
Encoding: 112 112 80
Width: 1001
GlyphClass: 2
Flags: W
AnchorPoint: "below" 486 -615 basechar 0
AnchorPoint: "above" 534 900 basechar 0
LayerCount: 2
Fore
SplineSet
945 418 m 256,0,1
 945 220 945 220 835.5 98.5 c 128,-1,2
 726 -23 726 -23 531 -23 c 256,3,4
 421 -23 421 -23 364 -4 c 0,5,6
 358 -2 358 -2 353 -2 c 0,7,8
 327 -2 327 -2 327 -35 c 2,9,-1
 327 -416 l 2,10,11
 327 -502 327 -502 478 -502 c 0,12,13
 492 -502 492 -502 492 -530.5 c 128,-1,14
 492 -559 492 -559 478 -559 c 1,15,16
 393 -551 393 -551 266 -551 c 256,17,18
 139 -551 139 -551 59 -559 c 1,19,20
 45 -559 45 -559 45 -530.5 c 128,-1,21
 45 -502 45 -502 59 -502 c 0,22,23
 174 -502 174 -502 174 -418 c 2,24,-1
 174 581 l 2,25,26
 174 705 174 705 88 705 c 0,27,28
 71 705 71 705 71 732.5 c 128,-1,29
 71 760 71 760 88 760 c 0,30,31
 117 760 117 760 187 800 c 128,-1,32
 257 840 257 840 278.5 861.5 c 128,-1,33
 300 883 300 883 318 883 c 0,34,35
 331 883 331 883 331 856 c 1,36,-1
 327 788 l 1,37,38
 327 768 327 768 343 768 c 0,39,40
 352 768 352 768 361 776 c 0,41,42
 445 870 445 870 548 870 c 260,43,44
 660 870 660 870 754 801.5 c 128,-1,45
 848 733 848 733 896.5 648 c 128,-1,46
 945 563 945 563 945 418 c 256,0,1
771 420 m 256,47,48
 771 788 771 788 507 788 c 256,49,50
 423 788 423 788 347 688 c 0,51,52
 327 662 327 662 327 594 c 2,53,-1
 327 205 l 2,54,55
 326 41 326 41 516 41 c 259,56,57
 656 41 656 41 713.5 152 c 128,-1,58
 771 263 771 263 771 420 c 256,47,48
EndSplineSet
Substitution2: "'ss19' Gothic transliteration-1" u10340
Substitution2: "'sups' Superscript in Latin lookup 12" uni1D56
Substitution2: "'ss07' Underdotted lookup 0-1" uniE66D
Substitution2: "'ss06' Enlarged Minuscules lookup 0-1" p.enlarged
Substitution2: "'smcp' Lowercase to Small Capitals in Latin lookup 1" p.sc
Substitution2: "'salt' Stylistic Alternatives in Latin lookup 18" p.enlarged
EndChar

StartChar: q
Encoding: 113 113 81
Width: 1012
GlyphClass: 2
Flags: W
AnchorPoint: "below" 553 -621 basechar 0
AnchorPoint: "above" 465 900 basechar 0
LayerCount: 2
Fore
SplineSet
669 0 m 1,0,1
 605 -22 605 -22 438 -23 c 256,2,3
 264 -23 264 -23 165 93.5 c 128,-1,4
 66 210 66 210 66 416 c 256,5,6
 66 628 66 628 187.5 749 c 128,-1,7
 309 870 309 870 452 870 c 256,8,9
 595 870 595 870 711 811 c 1,10,-1
 829 866 l 1,11,12
 875 864 875 864 868 821 c 1,13,14
 841 794 841 794 841 522 c 2,15,-1
 841 -418 l 2,16,17
 841 -502 841 -502 974 -502 c 0,18,19
 988 -502 988 -502 988 -530.5 c 128,-1,20
 988 -559 988 -559 974 -559 c 1,21,22
 890 -551 890 -551 764 -551 c 256,23,24
 638 -551 638 -551 555 -559 c 1,25,26
 541 -559 541 -559 541 -530.5 c 128,-1,27
 541 -502 541 -502 555 -502 c 0,28,29
 688 -502 688 -502 688 -416 c 2,30,-1
 688 -37 l 2,31,32
 688 0 688 0 669 0 c 1,0,1
688 205 m 2,33,-1
 688 623 l 2,34,35
 688 660 688 660 674 682 c 0,36,37
 608 788 608 788 522 788 c 256,38,39
 229 789 229 789 229 435 c 256,40,41
 229 276 229 276 289.5 158.5 c 128,-1,42
 350 41 350 41 474 41 c 256,43,44
 688 41 688 41 688 205 c 2,33,-1
EndSplineSet
Substitution2: "'ss19' Gothic transliteration-1" u10335
Substitution2: "'sups' Superscript in Latin lookup 12" q.superscript
Substitution2: "'ss07' Underdotted lookup 0-1" uniE688
Substitution2: "'ss06' Enlarged Minuscules lookup 0-1" q.enlarged
Substitution2: "'smcp' Lowercase to Small Capitals in Latin lookup 1" q.sc
Substitution2: "'salt' Stylistic Alternatives in Latin lookup 18" q.enlarged
EndChar

StartChar: r
Encoding: 114 114 82
Width: 696
GlyphClass: 2
Flags: W
AnchorPoint: "below" 393 -75 basechar 0
AnchorPoint: "above" 393 900 basechar 0
LayerCount: 2
Fore
SplineSet
581 870 m 256,0,1
 613 870 613 870 634 859 c 128,-1,2
 655 848 655 848 673 825 c 128,-1,3
 691 802 691 802 691 758 c 256,4,5
 691 746 691 746 681 724 c 0,6,7
 671 702 671 702 650 686 c 0,8,9
 630 670 630 670 608 670 c 256,10,11
 586 670 586 670 540.5 694.5 c 128,-1,12
 495 719 495 719 472 719 c 256,13,14
 411 719 411 719 369 658.5 c 128,-1,15
 327 598 327 598 327 494 c 2,16,-1
 327 127 l 2,17,18
 327 49 327 49 478 49 c 0,19,20
 492 49 492 49 492 20.5 c 128,-1,21
 492 -8 492 -8 478 -8 c 1,22,23
 394 0 394 0 268 0 c 256,24,25
 142 0 142 0 59 -8 c 1,26,27
 45 -8 45 -8 45 20.5 c 128,-1,28
 45 49 45 49 59 49 c 0,29,30
 174 49 174 49 174 127 c 2,31,-1
 174 589 l 2,32,33
 174 702 174 702 90 702 c 0,34,35
 73 702 73 702 73 730 c 128,-1,36
 73 758 73 758 90 758 c 0,37,38
 128 758 128 758 199 806 c 128,-1,39
 270 854 270 854 286.5 868.5 c 128,-1,40
 303 883 303 883 314 883 c 0,41,42
 331 883 331 883 331 858 c 1,43,44
 327 809 327 809 327 768.5 c 128,-1,45
 327 728 327 728 340.5 728 c 128,-1,46
 354 728 354 728 368 748 c 0,47,48
 457 870 457 870 581 870 c 256,0,1
EndSplineSet
Substitution2: "'ss19' Gothic transliteration-1" u10342
Substitution2: "'sups' Superscript in Latin lookup 12" uni02B3
Substitution2: "'ss07' Underdotted lookup 0-1" uni1E5B
Substitution2: "'ss06' Enlarged Minuscules lookup 0-1" r.enlarged
Substitution2: "'swsh' Swash in Latin lookup 30" uniF19B
AlternateSubs2: "'salt' Stylistic Alternatives in Latin lookup 19" uniF10E r.enlarged
Substitution2: "'ss02' Insular Shapes subtable 0" uniA783
Substitution2: "'smcp' Lowercase to Small Capitals in Latin lookup 1" r.sc
EndChar

StartChar: s
Encoding: 115 115 83
Width: 707
GlyphClass: 2
Flags: W
AnchorPoint: "below" 369 -75 basechar 0
AnchorPoint: "above" 369 900 basechar 0
LayerCount: 2
Fore
SplineSet
649 246 m 256,0,1
 649 165 649 165 607 101.5 c 128,-1,2
 565 38 565 38 492 6.5 c 128,-1,3
 419 -25 419 -25 338 -25 c 256,4,5
 182 -25 182 -25 98 35 c 1,6,7
 78 98 78 98 78 207 c 2,8,-1
 78 252 l 2,9,10
 78 267 78 267 101.5 267 c 128,-1,11
 125 267 125 267 127 252 c 0,12,13
 132 213 132 213 192 126 c 128,-1,14
 252 39 252 39 371 39 c 256,15,16
 430 39 430 39 481 76 c 128,-1,17
 532 113 532 113 532 183 c 256,18,19
 532 253 532 253 489 295.5 c 128,-1,20
 446 338 446 338 336 367.5 c 128,-1,21
 226 397 226 397 159 462 c 128,-1,22
 92 527 92 527 92 627 c 256,23,24
 92 729 92 729 176 799.5 c 128,-1,25
 260 870 260 870 389 870 c 256,26,27
 518 870 518 870 596 834 c 1,28,29
 627 750 627 750 627 664 c 2,30,-1
 627 653 l 2,31,32
 627 639 627 639 605 639 c 128,-1,33
 583 639 583 639 580 653 c 0,34,35
 570 707 570 707 512.5 758 c 128,-1,36
 455 809 455 809 378 809 c 256,37,38
 301 809 301 809 254 771.5 c 128,-1,39
 207 734 207 734 207 670 c 256,40,41
 207 610 207 610 240.5 576.5 c 128,-1,42
 274 543 274 543 407 504.5 c 128,-1,43
 540 466 540 466 594.5 407.5 c 128,-1,44
 649 349 649 349 649 246 c 256,0,1
EndSplineSet
Substitution2: "'ss19' Gothic transliteration-1" u10343
Substitution2: "'sups' Superscript in Latin lookup 12" uni02E2
Substitution2: "'ss07' Underdotted lookup 0-1" uni1E63
Substitution2: "'ss06' Enlarged Minuscules lookup 0-1" s.enlarged
Substitution2: "'hist' Historical forms in Latin-1" longs
Substitution2: "'ss02' Insular Shapes subtable 0" uniA785
Substitution2: "'smcp' Lowercase to Small Capitals in Latin lookup 1" s.sc
Substitution2: "'salt' Stylistic Alternatives in Latin lookup 18" s.enlarged
EndChar

StartChar: t
Encoding: 116 116 84
Width: 674
GlyphClass: 2
Flags: W
AnchorPoint: "below" 375 -75 basechar 0
AnchorPoint: "above" 332 1090 basechar 0
LayerCount: 2
Fore
SplineSet
193 213 m 10,0,-1
 193 720 l 2,1,2
 193 760 193 760 153 760 c 2,3,-1
 80 760 l 2,4,5
 66 760 66 760 66 783 c 128,-1,6
 66 806 66 806 80 806 c 0,7,8
 125 806 125 806 173 841.5 c 128,-1,9
 221 877 221 877 253 919.5 c 128,-1,10
 285 962 285 962 301 1001 c 0,11,12
 305 1010 305 1010 315 1010 c 128,-1,13
 325 1010 325 1010 335.5 1005 c 128,-1,14
 346 1000 346 1000 346 991 c 10,15,-1
 346 893 l 2,16,17
 346 850 346 850 387 850 c 2,18,-1
 631 850 l 2,19,20
 645 850 645 850 645 805 c 128,-1,21
 645 760 645 760 631 760 c 2,22,-1
 387 760 l 2,23,24
 346 760 346 760 346 720 c 2,25,-1
 346 317 l 18,26,27
 346 186 346 186 383.5 130 c 128,-1,28
 421 74 421 74 508 74 c 256,29,30
 560 74 560 74 616 113 c 0,31,32
 630 123 630 123 637.5 109 c 128,-1,33
 645 95 645 95 645 88 c 128,-1,34
 645 81 645 81 643 78 c 0,35,36
 559 -23 559 -23 423 -23 c 256,37,38
 298 -23 298 -23 245.5 31.5 c 128,-1,39
 193 86 193 86 193 213 c 10,0,-1
EndSplineSet
Substitution2: "'ss19' Gothic transliteration-1" u10344
Substitution2: "'sups' Superscript in Latin lookup 12" uni1D57
Substitution2: "'ss07' Underdotted lookup 0-1" uni1E6D
Substitution2: "'ss06' Enlarged Minuscules lookup 0-1" t.enlarged
Substitution2: "'swsh' Swash in Latin lookup 30" uniF199
Substitution2: "'ss02' Insular Shapes subtable 0" uniA787
Substitution2: "'smcp' Lowercase to Small Capitals in Latin lookup 1" t.sc
Substitution2: "'salt' Stylistic Alternatives in Latin lookup 18" t.enlarged
EndChar

StartChar: u
Encoding: 117 117 85
Width: 1036
GlyphClass: 2
Flags: W
AnchorPoint: "below" 535 -75 basechar 0
AnchorPoint: "above" 513 900 basechar 0
LayerCount: 2
Fore
SplineSet
1009 31 m 256,0,1
 981 28 981 28 872.5 3.5 c 128,-1,2
 764 -21 764 -21 735 -32 c 256,3,4
 732 -33 732 -33 728 -33 c 256,5,6
 712 -33 712 -33 712 12 c 2,7,-1
 712 57 l 2,8,9
 712 81 712 81 700.5 81 c 128,-1,10
 689 81 689 81 673 66 c 0,11,12
 578 -23 578 -23 439 -23 c 256,13,14
 334 -23 334 -23 254 83 c 128,-1,15
 174 189 174 189 174 301 c 10,16,-1
 174 636 l 2,17,18
 174 783 174 783 63 783 c 0,19,20
 48 783 48 783 48 811 c 128,-1,21
 48 839 48 839 63 839 c 0,22,23
 168 839 168 839 232.5 848 c 128,-1,24
 297 857 297 857 316 857 c 256,25,26
 336 857 336 857 335 841 c 0,27,28
 327 718 327 718 327 689 c 2,29,-1
 327 334 l 18,30,31
 327 219 327 219 366.5 146.5 c 128,-1,32
 406 74 406 74 488 74 c 256,33,34
 576 74 576 74 644 126 c 128,-1,35
 712 178 712 178 712 252 c 2,36,-1
 712 636 l 2,37,38
 712 783 712 783 601 783 c 0,39,40
 586 783 586 783 586 811 c 128,-1,41
 586 839 586 839 601 839 c 0,42,43
 724 839 724 839 781.5 848 c 128,-1,44
 839 857 839 857 851 857 c 256,45,46
 873 857 873 857 871 830 c 256,47,48
 865 743 865 743 865 691 c 2,49,-1
 865 227 l 2,50,51
 865 72 865 72 947 82 c 2,52,-1
 994 88 l 2,53,54
 1011 90 1011 90 1016 61 c 0,55,56
 1017 53 1017 53 1017 46 c 0,57,58
 1017 32 1017 32 1009 31 c 256,0,1
EndSplineSet
Substitution2: "'ss19' Gothic transliteration-1" u1033F
Substitution2: "'sups' Superscript in Latin lookup 12" uni1D58
Substitution2: "'ss07' Underdotted lookup 0-1" uni1EE5
Substitution2: "'ss06' Enlarged Minuscules lookup 0-1" u.enlarged
Substitution2: "'smcp' Lowercase to Small Capitals in Latin lookup 1" u.sc
Substitution2: "'salt' Stylistic Alternatives in Latin lookup 18" u.enlarged
EndChar

StartChar: v
Encoding: 118 118 86
Width: 838
GlyphClass: 2
Flags: W
AnchorPoint: "below" 432 -75 basechar 0
AnchorPoint: "above" 453 900 basechar 0
LayerCount: 2
Fore
SplineSet
115 731 m 2,0,1
 86 803 86 803 12 803 c 0,2,3
 -2 803 -2 803 -2 829.5 c 128,-1,4
 -2 856 -2 856 12 856 c 1,5,6
 70 850 70 850 188 850 c 256,7,8
 306 850 306 850 367 856 c 1,9,10
 381 856 381 856 381 829.5 c 128,-1,11
 381 803 381 803 367 803 c 0,12,13
 289 803 289 803 289 748 c 0,14,15
 289 731 289 731 293 719 c 2,16,-1
 453 229 l 2,17,18
 459 211 459 211 467 211 c 256,19,20
 475 211 475 211 481 229 c 2,21,-1
 651 727 l 2,22,23
 655 737 655 737 655 750 c 0,24,25
 655 803 655 803 559 803 c 0,26,27
 545 803 545 803 545 829.5 c 128,-1,28
 545 856 545 856 559 856 c 1,29,30
 616 850 616 850 702 850 c 256,31,32
 788 850 788 850 848 856 c 1,33,34
 862 856 862 856 862 829.5 c 128,-1,35
 862 803 862 803 848 803 c 0,36,37
 752 803 752 803 727 731 c 2,38,-1
 477 16 l 2,39,40
 464 -23 464 -23 435 -23 c 256,41,42
 406 -23 406 -23 395 4 c 2,43,-1
 115 731 l 2,0,1
EndSplineSet
Substitution2: "'sups' Superscript in Latin lookup 12" uni1D5B
Substitution2: "'ss07' Underdotted lookup 0-1" uni1E7F
Substitution2: "'ss06' Enlarged Minuscules lookup 0-1" v.enlarged
Substitution2: "'ss05' Medium Overlines lookup 0-1" vmedoverline
Substitution2: "'ss04' High Overlines lookup 0-1" vhighoverline
Substitution2: "'smcp' Lowercase to Small Capitals in Latin lookup 1" v.sc
Substitution2: "'salt' Stylistic Alternatives in Latin lookup 18" v.enlarged
EndChar

StartChar: w
Encoding: 119 119 87
Width: 1331
GlyphClass: 2
Flags: W
AnchorPoint: "below" 681 -75 basechar 0
AnchorPoint: "above" 702 900 basechar 0
LayerCount: 2
Fore
SplineSet
115 731 m 2,0,1
 86 803 86 803 12 803 c 0,2,3
 -2 803 -2 803 -2 829.5 c 128,-1,4
 -2 856 -2 856 12 856 c 1,5,6
 70 850 70 850 188 850 c 256,7,8
 306 850 306 850 367 856 c 1,9,10
 381 856 381 856 381 829.5 c 128,-1,11
 381 803 381 803 367 803 c 0,12,13
 289 803 289 803 289 748 c 0,14,15
 289 731 289 731 293 719 c 2,16,-1
 453 229 l 2,17,18
 459 211 459 211 467 211 c 256,19,20
 475 211 475 211 481 229 c 2,21,-1
 631 664 l 2,22,23
 637 684 637 684 637 692 c 0,24,25
 637 751 637 751 586 786 c 0,26,27
 559 803 559 803 524 803 c 0,28,29
 510 803 510 803 510 829.5 c 128,-1,30
 510 856 510 856 524 856 c 1,31,32
 582 850 582 850 700 850 c 256,33,34
 818 850 818 850 879 856 c 1,35,36
 893 856 893 856 893 829.5 c 128,-1,37
 893 803 893 803 879 803 c 0,38,39
 801 803 801 803 801 748 c 0,40,41
 801 731 801 731 805 719 c 2,42,-1
 965 229 l 2,43,44
 971 211 971 211 979 211 c 256,45,46
 987 211 987 211 993 229 c 2,47,-1
 1163 727 l 2,48,49
 1167 737 1167 737 1167 750 c 0,50,51
 1167 803 1167 803 1071 803 c 0,52,53
 1057 803 1057 803 1057 829.5 c 128,-1,54
 1057 856 1057 856 1071 856 c 1,55,56
 1128 850 1128 850 1214 850 c 256,57,58
 1300 850 1300 850 1360 856 c 1,59,60
 1374 856 1374 856 1374 829.5 c 128,-1,61
 1374 803 1374 803 1360 803 c 0,62,63
 1264 803 1264 803 1239 731 c 2,64,-1
 989 16 l 2,65,66
 976 -23 976 -23 947 -23 c 256,67,68
 918 -23 918 -23 907 4 c 2,69,-1
 694 553 l 2,70,71
 686 573 686 573 680 573 c 256,72,73
 674 573 674 573 666 553 c 2,74,-1
 477 16 l 2,75,76
 464 -23 464 -23 435 -23 c 256,77,78
 406 -23 406 -23 395 4 c 2,79,-1
 115 731 l 2,0,1
EndSplineSet
Substitution2: "'ss19' Gothic transliteration-1" u10345
Substitution2: "'sups' Superscript in Latin lookup 12" uni02B7
Substitution2: "'ss07' Underdotted lookup 0-1" uni1E89
Substitution2: "'ss06' Enlarged Minuscules lookup 0-1" w.enlarged
Substitution2: "'ss02' Insular Shapes subtable 0" uni01BF
Substitution2: "'smcp' Lowercase to Small Capitals in Latin lookup 1" w.sc
Substitution2: "'salt' Stylistic Alternatives in Latin lookup 18" w.enlarged
EndChar

StartChar: x
Encoding: 120 120 88
Width: 918
GlyphClass: 2
Flags: W
AnchorPoint: "below" 408 -75 basechar 0
AnchorPoint: "above" 504 900 basechar 0
LayerCount: 2
Fore
SplineSet
188 733 m 2,0,1
 137 803 137 803 90 803 c 0,2,3
 76 803 76 803 76 829.5 c 128,-1,4
 76 856 76 856 90 856 c 1,5,6
 146 850 146 850 260 850 c 256,7,8
 374 850 374 850 432 856 c 1,9,10
 446 856 446 856 446 829.5 c 128,-1,11
 446 803 446 803 432 803 c 0,12,13
 356 803 356 803 356 766 c 0,14,15
 356 748 356 748 373 721 c 2,16,-1
 483 545 l 2,17,18
 492 530 492 530 502 530 c 256,19,20
 512 530 512 530 522 545 c 2,21,-1
 643 705 l 2,22,23
 670 740 670 740 670 762 c 0,24,25
 670 803 670 803 588 803 c 0,26,27
 574 803 574 803 574 829.5 c 128,-1,28
 574 856 574 856 588 856 c 1,29,30
 645 850 645 850 734 850 c 256,31,32
 823 850 823 850 883 856 c 1,33,34
 897 856 897 856 897 829.5 c 128,-1,35
 897 803 897 803 883 803 c 0,36,37
 816 803 816 803 758 731 c 2,38,-1
 563 494 l 2,39,40
 549 477 549 477 549 465 c 256,41,42
 549 453 549 453 559 438 c 2,43,-1
 770 133 l 2,44,45
 828 49 828 49 918 49 c 0,46,47
 932 49 932 49 932 20.5 c 128,-1,48
 932 -8 932 -8 918 -8 c 1,49,50
 842 0 842 0 724 0 c 256,51,52
 606 0 606 0 524 -8 c 1,53,54
 510 -8 510 -8 510 20.5 c 128,-1,55
 510 49 510 49 524 49 c 0,56,57
 621 49 621 49 621 82 c 0,58,59
 621 94 621 94 598 129 c 2,60,-1
 461 344 l 2,61,62
 452 356 452 356 444 356 c 256,63,64
 436 356 436 356 428 344 c 2,65,-1
 285 145 l 2,66,67
 252 98 252 98 252 78 c 0,68,69
 252 49 252 49 317 49 c 0,70,71
 331 49 331 49 331 20.5 c 128,-1,72
 331 -8 331 -8 317 -8 c 1,73,74
 238 0 238 0 168 0 c 256,75,76
 98 0 98 0 23 -8 c 1,77,78
 9 -8 9 -8 9 20.5 c 128,-1,79
 9 49 9 49 23 49 c 0,80,81
 117 49 117 49 170 117 c 2,82,-1
 395 399 l 2,83,84
 403 410 403 410 403 421 c 256,85,86
 403 432 403 432 395 444 c 2,87,-1
 188 733 l 2,0,1
EndSplineSet
Substitution2: "'ss19' Gothic transliteration-1" u10347
Substitution2: "'sups' Superscript in Latin lookup 12" uni02E3
Substitution2: "'ss07' Underdotted lookup 0-1" xdotsub
Substitution2: "'ss06' Enlarged Minuscules lookup 0-1" x.enlarged
Substitution2: "'ss05' Medium Overlines lookup 0-1" xmedoverline
Substitution2: "'ss04' High Overlines lookup 0-1" xhighoverline
Substitution2: "'smcp' Lowercase to Small Capitals in Latin lookup 1" x.sc
Substitution2: "'salt' Stylistic Alternatives in Latin lookup 18" x.enlarged
EndChar

StartChar: y
Encoding: 121 121 89
Width: 838
GlyphClass: 2
Flags: W
AnchorPoint: "below" 360 -597 basechar 0
AnchorPoint: "above" 444 900 basechar 0
LayerCount: 2
Fore
SplineSet
82 731 m 2,0,1
 56 803 56 803 -39 803 c 0,2,3
 -53 803 -53 803 -53 829.5 c 128,-1,4
 -53 856 -53 856 -39 856 c 1,5,6
 18 850 18 850 145 850 c 256,7,8
 272 850 272 850 332 856 c 1,9,10
 346 856 346 856 346 829.5 c 128,-1,11
 346 803 346 803 332 803 c 0,12,13
 236 803 236 803 236 748 c 0,14,15
 236 732 236 732 240 719 c 2,16,-1
 414 215 l 2,17,18
 424 184 424 184 439 184 c 256,19,20
 454 184 454 184 467 217 c 2,21,-1
 662 719 l 2,22,23
 668 732 668 732 668 745 c 0,24,25
 668 803 668 803 539 803 c 0,26,27
 525 803 525 803 525 829.5 c 128,-1,28
 525 856 525 856 539 856 c 1,29,30
 596 850 596 850 702 850 c 256,31,32
 808 850 808 850 866 856 c 1,33,34
 880 856 880 856 880 829.5 c 128,-1,35
 880 803 880 803 866 803 c 0,36,37
 770 803 770 803 741 731 c 2,38,-1
 299 -418 l 18,39,40
 274 -482 274 -482 225.5 -517.5 c 128,-1,41
 177 -553 177 -553 121 -553 c 256,42,43
 81 -553 81 -553 56 -528 c 128,-1,44
 31 -503 31 -503 31 -477 c 0,45,46
 31 -401 31 -401 125.5 -401 c 128,-1,47
 220 -401 220 -401 246 -338 c 2,48,-1
 342 -98 l 2,49,50
 353 -73 353 -73 353 -59 c 128,-1,51
 353 -45 353 -45 340 -8 c 2,52,-1
 82 731 l 2,0,1
EndSplineSet
Substitution2: "'sups' Superscript in Latin lookup 12" uni02B8
Substitution2: "'ss07' Underdotted lookup 0-1" uni1EF5
Substitution2: "'ss06' Enlarged Minuscules lookup 0-1" y.enlarged
Substitution2: "'ss02' Insular Shapes subtable 0" uni1E8F
Substitution2: "'smcp' Lowercase to Small Capitals in Latin lookup 1" y.sc
Substitution2: "'salt' Stylistic Alternatives in Latin lookup 18" y.enlarged
EndChar

StartChar: z
Encoding: 122 122 90
Width: 735
GlyphClass: 2
Flags: W
AnchorPoint: "below" 381 -75 basechar 0
AnchorPoint: "above" 381 900 basechar 0
LayerCount: 2
Fore
SplineSet
713 276 m 0,0,1
 682 47 682 47 682 10 c 128,-1,2
 682 -27 682 -27 655 -27 c 0,3,4
 645 -27 645 -27 586.5 -13.5 c 128,-1,5
 528 0 528 0 492 0 c 2,6,-1
 72 0 l 2,7,8
 55 0 55 0 55 14 c 0,9,10
 55 20 55 20 57 23 c 2,11,-1
 455 752 l 2,12,13
 463 767 463 767 463 775 c 0,14,15
 463 793 463 793 434 793 c 2,16,-1
 276 793 l 2,17,18
 198 793 198 793 145 686 c 2,19,-1
 84 563 l 2,20,21
 81 557 81 557 70.5 560.5 c 128,-1,22
 60 564 60 564 61 569 c 2,23,-1
 98 836 l 2,24,25
 103 873 103 873 121 870 c 2,26,-1
 224 854 l 2,27,28
 250 850 250 850 301 850 c 2,29,-1
 647 850 l 2,30,31
 662 850 662 850 662 843 c 256,32,33
 662 836 662 836 657 827 c 2,34,-1
 260 104 l 2,35,36
 254 93 254 93 254 86 c 0,37,38
 254 68 254 68 281 64 c 128,-1,39
 308 60 308 60 349.5 60 c 128,-1,40
 391 60 391 60 422 61 c 0,41,42
 528 61 528 61 592 133 c 0,43,44
 616 160 616 160 672 285 c 0,45,46
 676 294 676 294 695 289 c 128,-1,47
 714 284 714 284 713 276 c 0,0,1
EndSplineSet
Substitution2: "'ss19' Gothic transliteration-1" u10336
Substitution2: "'sups' Superscript in Latin lookup 12" uni1DBB
Substitution2: "'ss07' Underdotted lookup 0-1" uni1E93
Substitution2: "'ss06' Enlarged Minuscules lookup 0-1" z.enlarged
Substitution2: "'smcp' Lowercase to Small Capitals in Latin lookup 1" z.sc
Substitution2: "'salt' Stylistic Alternatives in Latin lookup 18" z.enlarged
EndChar

StartChar: braceleft
Encoding: 123 123 91
Width: 784
GlyphClass: 2
Flags: W
LayerCount: 2
Fore
SplineSet
715 -319 m 0,0,1
 491 -319 491 -319 426.5 -294.5 c 128,-1,2
 362 -270 362 -270 324.5 -205 c 128,-1,3
 287 -140 287 -140 287 -18 c 10,4,-1
 287 424 l 2,5,6
 287 600 287 600 76 600 c 0,7,8
 66 600 66 600 66 617.5 c 128,-1,9
 66 635 66 635 76 635 c 0,10,11
 287 635 287 635 287 807 c 2,12,-1
 287 1145 l 18,13,14
 287 1308 287 1308 328 1382 c 128,-1,15
 369 1456 369 1456 451.5 1474.5 c 128,-1,16
 534 1493 534 1493 715 1493 c 0,17,18
 729 1493 729 1493 729 1469.5 c 128,-1,19
 729 1446 729 1446 715 1446 c 0,20,21
 559 1446 559 1446 491.5 1394 c 128,-1,22
 424 1342 424 1342 424 1208 c 10,23,-1
 424 965 l 18,24,25
 424 792 424 792 412 752.5 c 128,-1,26
 400 713 400 713 366.5 675.5 c 128,-1,27
 333 638 333 638 260 621 c 1,28,-1
 260 614 l 1,29,30
 327 602 327 602 362.5 566.5 c 128,-1,31
 398 531 398 531 411 481.5 c 128,-1,32
 424 432 424 432 424 293 c 10,33,-1
 424 16 l 2,34,35
 424 -156 424 -156 487 -214 c 128,-1,36
 550 -272 550 -272 715 -272 c 0,37,38
 729 -272 729 -272 729 -295.5 c 128,-1,39
 729 -319 729 -319 715 -319 c 0,0,1
EndSplineSet
EndChar

StartChar: bar
Encoding: 124 124 92
Width: 537
GlyphClass: 2
Flags: W
LayerCount: 2
Fore
SplineSet
354 -334 m 1,0,-1
 233 -334 l 1,1,-1
 233 1434 l 1,2,-1
 354 1434 l 1,3,-1
 354 -334 l 1,0,-1
EndSplineSet
EndChar

StartChar: braceright
Encoding: 125 125 93
Width: 821
GlyphClass: 2
Flags: W
LayerCount: 2
Fore
SplineSet
719 600 m 0,0,1
 508 600 508 600 508 424 c 2,2,-1
 508 -18 l 18,3,4
 508 -153 508 -153 459 -223.5 c 128,-1,5
 410 -294 410 -294 321.5 -306.5 c 128,-1,6
 233 -319 233 -319 80 -319 c 0,7,8
 66 -319 66 -319 66 -295.5 c 128,-1,9
 66 -272 66 -272 80 -272 c 0,10,11
 245 -272 245 -272 308 -214 c 128,-1,12
 371 -156 371 -156 371 16 c 2,13,-1
 371 293 l 2,14,15
 371 436 371 436 386 485 c 128,-1,16
 401 534 401 534 434 568 c 128,-1,17
 467 602 467 602 535 614 c 1,18,-1
 535 621 l 1,19,20
 458 639 458 639 426 677 c 128,-1,21
 394 715 394 715 382.5 755.5 c 128,-1,22
 371 796 371 796 371 965 c 2,23,-1
 371 1208 l 18,24,25
 371 1344 371 1344 301 1395 c 128,-1,26
 231 1446 231 1446 80 1446 c 0,27,28
 66 1446 66 1446 66 1469.5 c 128,-1,29
 66 1493 66 1493 80 1493 c 0,30,31
 250 1493 250 1493 339.5 1476.5 c 128,-1,32
 429 1460 429 1460 468.5 1381 c 128,-1,33
 508 1302 508 1302 508 1145 c 10,34,-1
 508 807 l 2,35,36
 508 635 508 635 719 635 c 0,37,38
 729 635 729 635 729 617.5 c 128,-1,39
 729 600 729 600 719 600 c 0,0,1
EndSplineSet
EndChar

StartChar: asciitilde
Encoding: 126 126 94
Width: 676
GlyphClass: 2
Flags: W
LayerCount: 2
Fore
SplineSet
653 512 m 0,0,1
 653 472 653 472 573 413 c 0,2,3
 490 355 490 355 438 350 c 0,4,5
 393 350 393 350 303 383 c 0,6,7
 204 418 204 418 170 418 c 0,8,9
 104 418 104 418 49 352 c 0,10,11
 46 349 46 349 42 349 c 0,12,13
 30 349 30 349 24 361 c 1,14,-1
 24 370 l 2,15,16
 24 372 24 372 25 373 c 0,17,18
 126 522 126 522 236 522 c 0,19,20
 278 522 278 522 377 487 c 0,21,22
 455 459 455 459 492 459 c 0,23,24
 552 459 552 459 625 530 c 1,25,-1
 633 533 l 1,26,27
 646 532 646 532 652 518 c 0,28,29
 653 515 653 515 653 512 c 0,0,1
EndSplineSet
EndChar

StartChar: exclamdown
Encoding: 161 161 96
Width: 520
GlyphClass: 2
Flags: W
LayerCount: 2
Fore
SplineSet
260 634 m 256,0,1
 198 634 198 634 168 671 c 128,-1,2
 138 708 138 708 138 758.5 c 128,-1,3
 138 809 138 809 173 839.5 c 128,-1,4
 208 870 208 870 261 870 c 128,-1,5
 314 870 314 870 347 834 c 128,-1,6
 380 798 380 798 380 747 c 128,-1,7
 380 696 380 696 350 665 c 128,-1,8
 320 634 320 634 260 634 c 256,0,1
152 -443 m 0,9,10
 152 -380 152 -380 183 -88.5 c 128,-1,11
 214 203 214 203 226 409 c 0,12,13
 228 425 228 425 260 425 c 256,14,15
 292 425 292 425 292 409 c 0,16,17
 300 210 300 210 327 -82 c 128,-1,18
 354 -374 354 -374 354 -430 c 256,19,20
 354 -486 354 -486 323 -520 c 128,-1,21
 292 -554 292 -554 256 -554 c 0,22,23
 152 -554 152 -554 152 -443 c 0,9,10
EndSplineSet
Substitution2: "'c2sc' Capitals to Small Capitals in Latin lookup 3" exclamdown.sc
EndChar

StartChar: cent
Encoding: 162 162 97
Width: 829
GlyphClass: 2
Flags: W
LayerCount: 2
Fore
SplineSet
545 1305 m 2,0,1
 547 1315 547 1315 567 1315 c 0,2,3
 638 1315 638 1315 633 1288 c 2,4,-1
 602 1113 l 1,5,6
 732 1101 732 1101 762 1043 c 0,7,8
 768 1031 768 1031 768 1002 c 0,9,10
 768 983 768 983 746 955.5 c 128,-1,11
 724 928 724 928 707 928 c 128,-1,12
 690 928 690 928 680 942 c 0,13,14
 636 1002 636 1002 587 1028 c 1,15,-1
 467 347 l 1,16,17
 501 336 501 336 536 336 c 0,18,19
 613 336 613 336 749 398 c 0,20,21
 760 403 760 403 773.5 382.5 c 128,-1,22
 787 362 787 362 787 354 c 0,23,24
 787 348 787 348 782 343 c 0,25,26
 756 320 756 320 674 272 c 0,27,28
 594 224 594 224 452 223 c 0,29,30
 449 223 449 223 445 223 c 1,31,-1
 412 33 l 2,32,33
 410 23 410 23 385 23 c 0,34,35
 318 23 318 23 322 47 c 2,36,-1
 356 237 l 1,37,38
 268 263 268 263 198 340 c 0,39,40
 92 457 92 457 92 642 c 0,41,42
 92 828 92 828 214 972 c 0,43,44
 330 1110 330 1110 511 1116 c 1,45,-1
 545 1305 l 2,0,1
384 395 m 1,46,-1
 500 1049 l 1,47,48
 410 1045 410 1045 334 947 c 0,49,50
 256 844 256 844 256 686 c 0,51,52
 254 528 254 528 344 432 c 0,53,54
 364 411 364 411 384 395 c 1,46,-1
EndSplineSet
Substitution2: "'onum' Oldstyle Figures in Latin lookup 14" cent.oldstyle
EndChar

StartChar: sterling
Encoding: 163 163 98
Width: 1126
GlyphClass: 2
Flags: W
LayerCount: 2
Fore
SplineSet
559 655 m 1,0,1
 575 565 575 565 575 458 c 259,2,3
 575 351 575 351 508 166 c 1,4,5
 688 98 688 98 778 98 c 3,6,7
 912 98 912 98 1024 197 c 0,8,9
 1059 229 1059 229 1067 229 c 3,10,11
 1081 229 1081 229 1081 207.5 c 131,-1,12
 1081 186 1081 186 1055 129 c 0,13,14
 977 -41 977 -41 791 -41 c 3,15,16
 663 -41 663 -41 461 96 c 1,17,18
 398 31 398 31 340 -5 c 128,-1,19
 282 -41 282 -41 194 -41 c 259,20,21
 118 -41 118 -41 74.5 1 c 128,-1,22
 31 43 31 43 31 100 c 259,23,24
 31 165 31 165 77 208.5 c 128,-1,25
 123 252 123 252 205 252 c 259,26,27
 268 252 268 252 442 195 c 1,28,29
 465 273 465 273 465 330 c 259,30,31
 465 454 465 454 401 655 c 1,32,-1
 127 655 l 2,33,34
 112 655 112 655 112 691 c 131,-1,35
 112 727 112 727 127 727 c 2,36,-1
 377 727 l 1,37,38
 317 890 317 890 317 1026 c 259,39,40
 317 1164 317 1164 429.5 1267 c 128,-1,41
 542 1370 542 1370 705 1370 c 3,42,43
 796 1370 796 1370 902 1337.5 c 128,-1,44
 1008 1305 1008 1305 1008 1257 c 3,45,46
 1008 1070 1008 1070 981 1030 c 0,47,48
 978 1026 978 1026 969 1026 c 3,49,50
 950 1026 950 1026 929.5 1097 c 128,-1,51
 909 1168 909 1168 896 1204 c 128,-1,52
 883 1240 883 1240 836.5 1281.5 c 128,-1,53
 790 1323 790 1323 694 1323 c 3,54,55
 581 1323 581 1323 520 1254 c 0,56,57
 459 1184 459 1184 459 1100 c 259,58,59
 459 1016 459 1016 543 727 c 1,60,-1
 866 727 l 2,61,62
 882 727 882 727 882 691 c 131,-1,63
 882 655 882 655 866 655 c 2,64,-1
 559 655 l 1,0,1
410 125 m 1,65,66
 308 199 308 199 230 199 c 259,67,68
 148 199 148 199 118 165.5 c 128,-1,69
 88 132 88 132 88 100 c 259,70,71
 88 62 88 62 120 37 c 128,-1,72
 152 12 152 12 205 12 c 259,73,74
 317 12 317 12 410 125 c 1,65,66
EndSplineSet
EndChar

StartChar: currency
Encoding: 164 164 99
Width: 1024
GlyphClass: 2
Flags: W
LayerCount: 2
Fore
SplineSet
80 668 m 256,0,1
 80 816 80 816 168 928 c 1,2,-1
 88 1008 l 2,3,4
 77 1019 77 1019 119 1061 c 128,-1,5
 161 1103 161 1103 172 1092 c 2,6,-1
 252 1014 l 1,7,8
 364 1102 364 1102 512 1102 c 256,9,10
 659 1102 659 1102 774 1014 c 1,11,-1
 852 1092 l 2,12,13
 863 1103 863 1103 905 1061 c 128,-1,14
 947 1019 947 1019 936 1008 c 2,15,-1
 858 930 l 1,16,17
 946 815 946 815 946 668 c 256,18,19
 946 519 946 519 858 406 c 1,20,-1
 936 328 l 2,21,22
 948 316 948 316 905 275 c 128,-1,23
 862 234 862 234 852 244 c 2,24,-1
 774 322 l 1,25,26
 658 233 658 233 512 233 c 256,27,28
 370 233 370 233 252 324 c 1,29,-1
 172 244 l 2,30,31
 162 234 162 234 119 275 c 128,-1,32
 76 316 76 316 88 328 c 2,33,-1
 168 408 l 1,34,35
 80 520 80 520 80 668 c 256,0,1
168 668 m 256,36,37
 168 524 168 524 268.5 423 c 128,-1,38
 369 322 369 322 512 322 c 256,39,40
 658 322 658 322 759 423 c 128,-1,41
 860 524 860 524 860 668 c 256,42,43
 860 808 860 808 757 911 c 128,-1,44
 654 1014 654 1014 512 1014 c 256,45,46
 371 1014 371 1014 269.5 912.5 c 128,-1,47
 168 811 168 811 168 668 c 256,36,37
EndSplineSet
EndChar

StartChar: yen
Encoding: 165 165 100
Width: 1325
GlyphClass: 2
Flags: W
LayerCount: 2
Fore
SplineSet
1096 571 m 2,0,1
 1111 571 1111 571 1111 521 c 128,-1,2
 1111 471 1111 471 1096 471 c 2,3,-1
 728 471 l 1,4,-1
 728 186 l 2,5,6
 728 69 728 69 892 69 c 0,7,8
 905 69 905 69 905 31 c 128,-1,9
 905 -7 905 -7 892 -7 c 1,10,11
 817 0 817 0 648 0 c 128,-1,12
 479 0 479 0 404 -7 c 1,13,14
 391 -7 391 -7 391 31 c 128,-1,15
 391 69 391 69 404 69 c 0,16,17
 568 69 568 69 568 186 c 2,18,-1
 568 471 l 1,19,-1
 567 471 l 1,20,-1
 221 471 l 2,21,22
 206 471 206 471 206 521 c 128,-1,23
 206 571 206 571 221 571 c 2,24,-1
 562 571 l 1,25,26
 555 610 555 610 540 634 c 2,27,-1
 478 737 l 1,28,-1
 221 737 l 2,29,30
 206 737 206 737 206 787.5 c 128,-1,31
 206 838 206 838 221 838 c 2,32,-1
 416 838 l 1,33,-1
 214 1172 l 2,34,35
 144 1287 144 1287 26 1287 c 0,36,37
 13 1287 13 1287 13 1325 c 128,-1,38
 13 1363 13 1363 26 1363 c 1,39,40
 70 1358 70 1358 262.5 1358 c 128,-1,41
 455 1358 455 1358 502 1363 c 1,42,43
 515 1363 515 1363 515 1325 c 128,-1,44
 515 1287 515 1287 502 1287 c 0,45,46
 381 1287 381 1287 381 1230 c 0,47,48
 381 1207 381 1207 402 1172 c 2,49,-1
 683 700 l 2,50,51
 691 686 691 686 698.5 686 c 128,-1,52
 706 686 706 686 715 700 c 2,53,-1
 1013 1163 l 2,54,55
 1040 1205 1040 1205 1040 1234 c 0,56,57
 1040 1287 1040 1287 929 1287 c 0,58,59
 915 1287 915 1287 915 1325 c 128,-1,60
 915 1363 915 1363 929 1363 c 1,61,62
 974 1358 974 1358 1126.5 1358 c 128,-1,63
 1279 1358 1279 1358 1324 1363 c 1,64,65
 1337 1363 1337 1363 1337 1325 c 128,-1,66
 1337 1287 1337 1287 1324 1287 c 0,67,68
 1186 1288 1186 1288 1114 1178 c 2,69,-1
 892 838 l 1,70,-1
 1096 838 l 2,71,72
 1111 838 1111 838 1111 787.5 c 128,-1,73
 1111 737 1111 737 1096 737 c 2,74,-1
 826 737 l 1,75,-1
 805 705 l 2,76,77
 740 605 740 605 734 576 c 0,78,79
 734 574 734 574 733 571 c 1,80,-1
 1096 571 l 2,0,1
EndSplineSet
EndChar

StartChar: brokenbar
Encoding: 166 166 101
Width: 537
GlyphClass: 2
Flags: W
LayerCount: 2
Fore
SplineSet
354 834 m 1,0,-1
 233 834 l 1,1,-1
 233 1372 l 1,2,-1
 354 1372 l 1,3,-1
 354 834 l 1,0,-1
354 111 m 1,4,-1
 233 111 l 1,5,-1
 233 647 l 1,6,-1
 354 647 l 1,7,-1
 354 111 l 1,4,-1
EndSplineSet
EndChar

StartChar: section
Encoding: 167 167 102
Width: 956
GlyphClass: 2
Flags: W
LayerCount: 2
Fore
SplineSet
879 481 m 0,0,1
 879 286 879 286 696 182 c 1,2,3
 827 81 827 81 827 -59 c 0,4,5
 827 -203 827 -203 713 -305 c 0,6,7
 603 -403 603 -403 457 -403 c 0,8,9
 359 -403 359 -403 254 -360 c 0,10,11
 119 -309 119 -309 119 -231 c 0,12,13
 119 -209 119 -209 152 -182 c 0,14,15
 186 -154 186 -154 207 -154 c 0,16,17
 222 -154 222 -154 262 -199 c 2,18,-1
 306 -248 l 2,19,20
 376 -326 376 -326 471 -326 c 0,21,22
 570 -326 570 -326 630 -247 c 0,23,24
 676 -186 676 -186 676 -104 c 0,25,26
 676 0 676 0 524 102 c 2,27,-1
 246 279 l 2,28,29
 94 393 94 393 94 530 c 0,30,31
 94 625 94 625 145 711 c 0,32,33
 198 800 198 800 285 834 c 1,34,35
 170 936 170 936 170 1063 c 0,36,37
 170 1198 170 1198 272 1290 c 0,38,39
 372 1380 372 1380 510 1380 c 0,40,41
 593 1380 593 1380 676 1348 c 0,42,43
 788 1305 788 1305 788 1243 c 0,44,45
 788 1214 788 1214 753 1184 c 0,46,47
 731 1165 731 1165 711 1165 c 0,48,49
 701 1165 701 1165 633 1233 c 0,50,51
 566 1303 566 1303 485 1303 c 0,52,53
 418 1303 418 1303 357 1247 c 0,54,55
 305 1200 305 1200 305 1116 c 0,56,57
 305 1014 305 1014 455 920 c 2,58,-1
 729 748 l 2,59,60
 879 631 879 631 879 481 c 0,0,1
754 428 m 0,61,62
 754 551 754 551 530 676 c 0,63,64
 419 738 419 738 336 797 c 1,65,66
 215 725 215 725 215 598 c 0,67,68
 215 502 215 502 307 442 c 2,69,-1
 641 223 l 1,70,71
 754 302 754 302 754 428 c 0,61,62
EndSplineSet
EndChar

StartChar: dieresis
Encoding: 168 168 103
Width: 797
GlyphClass: 2
Flags: W
LayerCount: 2
Fore
SplineSet
325 1156 m 256,0,1
 325 1111 325 1111 293.5 1079.5 c 128,-1,2
 262 1048 262 1048 217 1048 c 128,-1,3
 172 1048 172 1048 140.5 1079.5 c 128,-1,4
 109 1111 109 1111 109 1156 c 128,-1,5
 109 1201 109 1201 140.5 1232.5 c 128,-1,6
 172 1264 172 1264 217 1264 c 128,-1,7
 262 1264 262 1264 293.5 1232.5 c 128,-1,8
 325 1201 325 1201 325 1156 c 256,0,1
706 1156 m 256,9,10
 706 1111 706 1111 674.5 1079.5 c 128,-1,11
 643 1048 643 1048 598.5 1048 c 128,-1,12
 554 1048 554 1048 522.5 1079.5 c 128,-1,13
 491 1111 491 1111 491 1156 c 128,-1,14
 491 1201 491 1201 522.5 1232.5 c 128,-1,15
 554 1264 554 1264 598.5 1264 c 128,-1,16
 643 1264 643 1264 674.5 1232.5 c 128,-1,17
 706 1201 706 1201 706 1156 c 256,9,10
EndSplineSet
Substitution2: "'case' Case-Sensitive Forms lookup 32-1" CapDieresis
EndChar

StartChar: copyright
Encoding: 169 169 104
Width: 1442
GlyphClass: 2
Flags: W
LayerCount: 2
Fore
SplineSet
347 737 m 256,0,1
 347 860 347 860 399.5 950.5 c 128,-1,2
 452 1041 452 1041 536 1092 c 128,-1,3
 620 1143 620 1143 743 1143 c 256,4,5
 804 1143 804 1143 891 1126 c 2,6,-1
 903 1124 l 2,7,8
 972 1111 972 1111 974 1111 c 1,9,10
 990 1037 990 1037 989 940 c 1,11,12
 987 931 987 931 970 931 c 0,13,14
 954 931 954 931 952 939 c 0,15,16
 937 1104 937 1104 728 1104 c 256,17,18
 616 1104 616 1104 534 1002.5 c 128,-1,19
 452 901 452 901 452 770 c 256,20,21
 452 614 452 614 532 510.5 c 128,-1,22
 612 407 612 407 726 407 c 256,23,24
 921 407 921 407 975 555 c 0,25,26
 977 561 977 561 990.5 561 c 128,-1,27
 1004 561 1004 561 1009 557 c 0,28,29
 1011 555 1011 555 1011 549 c 1,30,31
 990 444 990 444 962 401 c 1,32,33
 944 399 944 399 920 391 c 0,34,35
 839 366 839 366 713 366 c 256,36,37
 615 366 615 366 531.5 413.5 c 128,-1,38
 448 461 448 461 397.5 544.5 c 128,-1,39
 347 628 347 628 347 737 c 256,0,1
1444 748 m 256,40,41
 1444 449 1444 449 1233 238 c 128,-1,42
 1022 27 1022 27 723 27 c 128,-1,43
 424 27 424 27 213 238 c 128,-1,44
 2 449 2 449 2 748 c 128,-1,45
 2 1047 2 1047 213 1257.5 c 128,-1,46
 424 1468 424 1468 723 1468 c 128,-1,47
 1022 1468 1022 1468 1233 1257.5 c 128,-1,48
 1444 1047 1444 1047 1444 748 c 256,40,41
1374 748 m 256,49,50
 1374 1018 1374 1018 1183.5 1208.5 c 128,-1,51
 993 1399 993 1399 723 1399 c 128,-1,52
 453 1399 453 1399 262.5 1208.5 c 128,-1,53
 72 1018 72 1018 72 755 c 128,-1,54
 72 492 72 492 256 294 c 128,-1,55
 440 96 440 96 715.5 96 c 128,-1,56
 991 96 991 96 1182.5 287.5 c 128,-1,57
 1374 479 1374 479 1374 748 c 256,49,50
EndSplineSet
EndChar

StartChar: ordfeminine
Encoding: 170 170 105
Width: 516
GlyphClass: 2
Flags: W
LayerCount: 2
Fore
SplineSet
520 577 m 0,0,1
 485 509 485 509 406 509 c 0,2,3
 351 509 351 509 308 558 c 0,4,5
 300 569 300 569 296 570 c 0,6,7
 288 570 288 570 279 559 c 0,8,9
 230 510 230 510 160 510 c 0,10,11
 85 510 85 510 53 561 c 0,12,13
 37 587 37 587 38 621 c 0,14,15
 38 694 38 694 165 760 c 2,16,-1
 256 803 l 2,17,18
 277 815 277 815 277 831 c 2,19,-1
 277 945 l 2,20,21
 277 988 277 988 214 988 c 0,22,23
 167 988 167 988 144 958 c 0,24,25
 139 950 139 950 138 913 c 0,26,27
 138 892 138 892 135 882 c 0,28,29
 120 829 120 829 80 829 c 0,30,31
 26 829 26 829 26 876 c 0,32,33
 26 916 26 916 59 962 c 0,34,35
 78 988 78 988 98 1001 c 0,36,37
 170 1046 170 1046 257 1046 c 0,38,39
 325 1046 325 1046 374 1012 c 0,40,41
 413 986 413 986 414 948 c 2,42,-1
 414 643 l 2,43,44
 414 575 414 575 454 575 c 0,45,46
 472 573 472 573 497 597 c 0,47,48
 502 602 502 602 514 591 c 0,49,50
 523 583 523 583 520 577 c 0,0,1
277 640 m 2,51,-1
 277 749 l 2,52,53
 277 763 277 763 268 763 c 0,54,55
 264 763 264 763 260 761 c 0,56,57
 175 718 175 718 176 647 c 0,58,59
 176 577 176 577 219 577 c 0,60,61
 277 577 277 577 277 640 c 2,51,-1
EndSplineSet
EndChar

StartChar: guillemotleft
Encoding: 171 171 106
Width: 789
GlyphClass: 2
Flags: W
LayerCount: 2
Fore
SplineSet
419 104 m 2,0,1
 429 89 429 89 411.5 73.5 c 128,-1,2
 394 58 394 58 382 70 c 2,3,-1
 83 382 l 2,4,5
 59 407 59 407 59 435 c 128,-1,6
 59 463 59 463 83 488 c 2,7,-1
 382 800 l 2,8,9
 393 811 393 811 410.5 797 c 128,-1,10
 428 783 428 783 419 770 c 2,11,-1
 222 476 l 2,12,13
 210 458 210 458 210 435 c 128,-1,14
 210 412 210 412 222 394 c 2,15,-1
 419 104 l 2,0,1
726 104 m 2,16,17
 736 89 736 89 718.5 73.5 c 128,-1,18
 701 58 701 58 689 70 c 2,19,-1
 390 382 l 2,20,21
 366 407 366 407 366 435 c 128,-1,22
 366 463 366 463 390 488 c 2,23,-1
 689 800 l 2,24,25
 700 811 700 811 717.5 797 c 128,-1,26
 735 783 735 783 726 770 c 2,27,-1
 529 476 l 2,28,29
 517 458 517 458 517 435 c 128,-1,30
 517 412 517 412 529 394 c 2,31,-1
 726 104 l 2,16,17
EndSplineSet
EndChar

StartChar: logicalnot
Encoding: 172 172 107
Width: 1366
GlyphClass: 2
Flags: W
LayerCount: 2
Fore
SplineSet
1366 0 m 1,0,-1
 1243 0 l 1,1,-1
 1243 537 l 1,2,-1
 0 537 l 1,3,-1
 0 657 l 1,4,-1
 1366 657 l 1,5,-1
 1366 0 l 1,0,-1
EndSplineSet
EndChar

StartChar: uni00AD
Encoding: 173 173 108
Width: 827
GlyphClass: 2
Flags: W
LayerCount: 2
Fore
SplineSet
707 602 m 2,0,1
 723 602 723 602 723 545 c 0,2,3
 723 487 723 487 705 487 c 2,4,-1
 115 487 l 2,5,6
 100 487 100 487 100 545 c 0,7,8
 100 602 100 602 115 602 c 2,9,-1
 707 602 l 2,0,1
EndSplineSet
EndChar

StartChar: registered
Encoding: 174 174 109
Width: 1524
GlyphClass: 2
Flags: W
LayerCount: 2
Fore
SplineSet
527 487 m 2,0,-1
 527 1020 l 2,1,2
 527 1079 527 1079 425 1079 c 0,3,4
 417 1079 417 1079 417.5 1099.5 c 128,-1,5
 418 1120 418 1120 425 1120 c 1,6,7
 488 1117 488 1117 540 1117.5 c 128,-1,8
 592 1118 592 1118 644 1119 c 128,-1,9
 696 1120 696 1120 729 1120 c 0,10,11
 853 1120 853 1120 923.5 1068 c 128,-1,12
 994 1016 994 1016 994 918 c 0,13,14
 994 768 994 768 850 730 c 0,15,16
 835 726 835 726 850 700 c 0,17,18
 928 561 928 561 1044 452 c 0,19,20
 1104 395 1104 395 1145 395 c 0,21,22
 1153 395 1153 395 1152.5 385.5 c 128,-1,23
 1152 376 1152 376 1145 376 c 0,24,25
 1122 374 1122 374 1108 374 c 0,26,27
 1020 374 1020 374 978 403 c 0,28,29
 912 449 912 449 864 512 c 2,30,-1
 770 650 l 2,31,32
 744 688 744 688 729 698.5 c 128,-1,33
 714 709 714 709 684 709 c 128,-1,34
 654 709 654 709 638 711 c 128,-1,35
 622 713 622 713 618 709.5 c 128,-1,36
 614 706 614 706 614 700 c 2,37,-1
 614 487 l 2,38,39
 614 424 614 424 718 424 c 0,40,41
 725 424 725 424 725.5 403.5 c 128,-1,42
 726 383 726 383 718 383 c 1,43,44
 676 387 676 387 574 387 c 128,-1,45
 472 387 472 387 430 383 c 1,46,47
 423 383 423 383 423 403.5 c 128,-1,48
 423 424 423 424 430 424 c 0,49,50
 527 424 527 424 527 487 c 2,0,-1
614 768 m 2,51,52
 614 751 614 751 634.5 746.5 c 128,-1,53
 655 742 655 742 692 742 c 0,54,55
 901 742 901 742 901 918 c 0,56,57
 901 989 901 989 844.5 1038 c 128,-1,58
 788 1087 788 1087 687 1087 c 2,59,-1
 639 1087 l 2,60,61
 614 1087 614 1087 614 1070 c 2,62,-1
 614 768 l 2,51,52
1444 748 m 256,63,64
 1444 449 1444 449 1233 238 c 128,-1,65
 1022 27 1022 27 723 27 c 128,-1,66
 424 27 424 27 213 238 c 128,-1,67
 2 449 2 449 2 748 c 128,-1,68
 2 1047 2 1047 213 1257.5 c 128,-1,69
 424 1468 424 1468 723 1468 c 128,-1,70
 1022 1468 1022 1468 1233 1257.5 c 128,-1,71
 1444 1047 1444 1047 1444 748 c 256,63,64
1374 748 m 256,72,73
 1374 1018 1374 1018 1183.5 1208.5 c 128,-1,74
 993 1399 993 1399 723 1399 c 128,-1,75
 453 1399 453 1399 262.5 1208.5 c 128,-1,76
 72 1018 72 1018 72 753.5 c 128,-1,77
 72 489 72 489 257.5 292.5 c 128,-1,78
 443 96 443 96 717 96 c 128,-1,79
 991 96 991 96 1182.5 287 c 128,-1,80
 1374 478 1374 478 1374 748 c 256,72,73
EndSplineSet
EndChar

StartChar: macron
Encoding: 175 175 110
Width: 608
GlyphClass: 2
Flags: W
LayerCount: 2
Fore
SplineSet
528 1198 m 2,0,1
 556 1198 556 1198 556 1151 c 128,-1,2
 556 1104 556 1104 524 1104 c 2,3,-1
 78 1104 l 2,4,5
 49 1104 49 1104 49 1151 c 128,-1,6
 49 1198 49 1198 78 1198 c 2,7,-1
 528 1198 l 2,0,1
EndSplineSet
Substitution2: "'case' Case-Sensitive Forms lookup 32-1" CapMacron
EndChar

StartChar: degree
Encoding: 176 176 111
Width: 713
GlyphClass: 2
Flags: W
LayerCount: 2
Fore
SplineSet
631 1047 m 0,0,1
 631 914 631 914 536 840 c 0,2,3
 462 782 462 782 356 782 c 0,4,5
 222 782 222 782 144 871 c 0,6,7
 82 943 82 943 82 1047 c 0,8,9
 82 1166 82 1166 171 1244 c 0,10,11
 248 1311 248 1311 356 1311 c 0,12,13
 488 1311 488 1311 568 1221 c 0,14,15
 631 1150 631 1150 631 1047 c 0,0,1
516 1047 m 0,17,18
 516 1150 516 1150 453 1204 c 0,19,20
 412 1239 412 1239 356 1239 c 0,21,22
 267 1239 267 1239 223 1158 c 0,23,24
 197 1110 197 1110 197 1047 c 0,25,26
 197 948 197 948 259 890 c 0,27,28
 299 854 299 854 356 854 c 0,29,30
 445 854 445 854 489 935 c 0,31,32
 516 983 516 983 516 1047 c 0,17,18
EndSplineSet
EndChar

StartChar: plusminus
Encoding: 177 177 112
Width: 1024
GlyphClass: 2
Flags: W
LayerCount: 2
Fore
SplineSet
907 596 m 1,0,-1
 573 596 l 1,1,-1
 573 225 l 1,2,-1
 453 225 l 1,3,-1
 453 596 l 1,4,-1
 119 596 l 1,5,-1
 119 696 l 1,6,-1
 453 696 l 1,7,-1
 453 1032 l 1,8,-1
 573 1032 l 1,9,-1
 573 696 l 1,10,-1
 907 696 l 1,11,-1
 907 596 l 1,0,-1
907 2 m 1,12,-1
 119 2 l 1,13,-1
 119 102 l 1,14,-1
 907 102 l 1,15,-1
 907 2 l 1,12,-1
EndSplineSet
EndChar

StartChar: uni00B2
Encoding: 178 178 113
Width: 630
GlyphClass: 2
Flags: W
LayerCount: 2
Fore
SplineSet
526 541 m 2,0,1
 516 518 516 518 478 518 c 0,2,3
 397 523 397 523 330 522 c 2,4,-1
 282 522 l 2,5,6
 185 522 185 522 77 518 c 0,7,8
 45 518 45 518 45 546 c 0,9,10
 45 559 45 559 57 570 c 0,11,12
 153 666 153 666 246 792 c 0,13,14
 399 1000 399 1000 399 1110 c 0,15,16
 396 1233 396 1233 296 1233 c 0,17,18
 207 1233 207 1233 151 1134 c 0,19,20
 144 1121 144 1121 122 1135 c 0,21,22
 106 1145 106 1145 112 1155 c 0,23,24
 161 1250 161 1250 238 1294 c 0,25,26
 288 1322 288 1322 344 1322 c 0,27,28
 442 1322 442 1322 501 1256 c 0,29,30
 553 1198 553 1198 553 1116 c 0,31,32
 553 1001 553 1001 388 816 c 0,33,34
 353 776 353 776 214 638 c 1,35,-1
 391 638 l 2,36,37
 460 638 460 638 486 649 c 0,38,39
 516 662 516 662 533 697 c 0,40,41
 540 710 540 710 565 699 c 0,42,43
 588 690 588 690 585 682 c 2,44,-1
 526 541 l 2,0,1
EndSplineSet
EndChar

StartChar: uni00B3
Encoding: 179 179 114
Width: 630
GlyphClass: 2
Flags: W
LayerCount: 2
Fore
SplineSet
538 778 m 3,0,1
 538 674 538 674 464 597 c 0,2,3
 378 508 378 508 247 508 c 0,4,5
 161 508 161 508 108 538 c 0,6,7
 61 564 61 564 60 608 c 0,8,9
 60 666 60 666 133 666 c 0,10,11
 160 666 160 666 189 633 c 2,12,-1
 219 597 l 2,13,14
 247 569 247 569 279 569 c 0,15,16
 340 569 340 569 372 649 c 0,17,18
 392 701 392 701 392 763 c 0,19,20
 392 843 392 843 343 889 c 0,21,22
 304 927 304 927 245 927 c 0,23,24
 210 927 210 927 181 916 c 1,25,26
 164 916 164 916 164 950 c 0,27,28
 164 981 164 981 177 981 c 0,29,30
 269 981 269 981 322 1031 c 0,31,32
 363 1070 363 1070 363 1127 c 0,33,34
 363 1187 363 1187 330 1221 c 0,35,36
 307 1245 307 1245 272 1245 c 0,37,38
 217 1245 217 1245 171 1195 c 0,39,40
 153 1175 153 1175 138 1152 c 0,41,42
 130 1139 130 1139 108 1156 c 0,43,44
 92 1168 92 1168 99 1179 c 0,45,46
 156 1264 156 1264 208 1294 c 0,47,48
 255 1322 255 1322 312 1322 c 0,49,50
 392 1322 392 1322 447 1266 c 0,51,52
 498 1214 498 1214 498 1141 c 3,53,54
 498 1038 498 1038 394 978 c 1,55,56
 538 936 538 936 538 778 c 3,0,1
EndSplineSet
EndChar

StartChar: acute
Encoding: 180 180 115
Width: 569
GlyphClass: 2
Flags: W
LayerCount: 2
Fore
SplineSet
400 1336 m 2,0,-1
 221 1051 l 2,1,2
 203 1022 203 1022 180 1022 c 0,3,4
 147 1022 147 1022 147 1059 c 0,5,6
 147 1071 147 1071 152 1081 c 2,7,-1
 287 1388 l 2,8,9
 293 1401 293 1401 312 1401 c 0,10,11
 346 1401 346 1401 382 1372 c 0,12,13
 402 1356 402 1356 402 1343 c 0,14,15
 402 1340 402 1340 400 1336 c 2,0,-1
EndSplineSet
Substitution2: "'case' Case-Sensitive Forms lookup 32-1" CapAcute
EndChar

StartChar: uni00B5
Encoding: 181 181 116
Width: 1106
GlyphClass: 2
Flags: W
LayerCount: 2
Fore
SplineSet
928 256 m 2,0,1
 928 135 928 135 948.5 110 c 128,-1,2
 969 85 969 85 1012 85 c 0,3,4
 1032 84 1032 84 1058 88 c 0,5,6
 1072 90 1072 90 1078 62 c 0,7,8
 1079 55 1079 55 1079 49 c 0,9,10
 1079 33 1079 33 1069 31 c 0,11,12
 915 3 915 3 797 -31 c 1,13,14
 774 -31 774 -31 774 16 c 2,15,-1
 774 57 l 2,16,17
 774 88 774 88 761 86 c 0,18,19
 747 84 747 84 733 70 c 0,20,21
 631 -23 631 -23 457 -23 c 0,22,23
 373 -23 373 -23 313 16 c 1,24,25
 305 -46 305 -46 305 -122 c 128,-1,26
 305 -198 305 -198 313 -362 c 0,27,28
 320 -492 320 -492 213 -492 c 0,29,30
 125 -492 125 -492 125 -377 c 0,31,32
 125 -300 125 -300 149.5 -137 c 128,-1,33
 174 26 174 26 174 299 c 2,34,-1
 174 638 l 2,35,36
 174 785 174 785 63 785 c 0,37,38
 46 785 46 785 46 813 c 128,-1,39
 46 841 46 841 63 841 c 0,40,41
 127 841 127 841 219.5 850 c 128,-1,42
 312 859 312 859 325 859 c 0,43,44
 336 859 336 859 336 839 c 1,45,46
 328 715 328 715 328 681 c 2,47,-1
 328 252 l 2,48,49
 328 66 328 66 496 66 c 0,50,51
 774 66 774 66 774 285 c 2,52,-1
 774 638 l 2,53,54
 774 785 774 785 664 785 c 0,55,56
 648 785 648 785 648 813 c 128,-1,57
 648 841 648 841 664 841 c 0,58,59
 732 841 732 841 815.5 850 c 128,-1,60
 899 859 899 859 917 859 c 256,61,62
 934 859 934 859 934 832 c 1,63,64
 928 729 928 729 928 693 c 2,65,-1
 928 256 l 2,0,1
EndSplineSet
EndChar

StartChar: paragraph
Encoding: 182 182 117
Width: 997
GlyphClass: 2
Flags: W
LayerCount: 2
Fore
SplineSet
836 127 m 2,0,1
 836 49 836 49 954 49 c 0,2,3
 968 49 968 49 968 20 c 0,4,5
 968 -8 968 -8 954 -8 c 1,6,7
 871 0 871 0 797 0 c 2,8,-1
 541 0 l 2,9,10
 459 0 459 0 371 -8 c 1,11,12
 357 -8 357 -8 357 20 c 0,13,14
 357 49 357 49 371 49 c 0,15,16
 487 49 487 49 487 125 c 2,17,-1
 487 694 l 1,18,19
 230 694 230 694 103 834 c 0,20,21
 16 930 16 930 16 1077 c 0,22,23
 16 1262 16 1262 144 1361 c 0,24,25
 267 1456 267 1456 453 1456 c 0,26,27
 730 1452 730 1452 795 1452 c 0,28,29
 845 1452 845 1452 954 1458 c 1,30,31
 968 1458 968 1458 968 1429 c 0,32,33
 968 1401 968 1401 954 1401 c 0,34,35
 836 1401 836 1401 836 1324 c 2,36,-1
 836 127 l 2,0,1
743 125 m 2,37,-1
 743 1324 l 2,38,39
 743 1398 743 1398 668 1398 c 0,40,41
 580 1398 580 1398 580 1324 c 2,42,-1
 580 127 l 2,43,44
 580 49 580 49 659 49 c 0,45,46
 743 49 743 49 743 125 c 2,37,-1
EndSplineSet
EndChar

StartChar: periodcentered
Encoding: 183 183 118
Width: 745
GlyphClass: 2
Flags: W
LayerCount: 2
Fore
SplineSet
238 623 m 256,0,1
 238 674 238 674 274 705 c 128,-1,2
 310 736 310 736 365 736 c 128,-1,3
 420 736 420 736 450 699 c 128,-1,4
 480 662 480 662 480 611.5 c 128,-1,5
 480 561 480 561 445.5 530.5 c 128,-1,6
 411 500 411 500 358 500 c 128,-1,7
 305 500 305 500 271.5 536 c 128,-1,8
 238 572 238 572 238 623 c 256,0,1
EndSplineSet
EndChar

StartChar: cedilla
Encoding: 184 184 119
Width: 737
GlyphClass: 2
Flags: W
LayerCount: 2
Fore
SplineSet
535 -272 m 0,0,1
 535 -355 535 -355 458 -409 c 0,2,3
 398 -453 398 -453 322 -453 c 0,4,5
 203 -453 203 -453 203 -381 c 0,6,7
 203 -328 203 -328 254 -328 c 0,8,9
 277 -328 277 -328 311 -356 c 0,10,11
 348 -387 348 -387 362 -387 c 0,12,13
 418 -387 418 -387 418 -324 c 0,14,15
 418 -244 418 -244 283 -182 c 1,16,-1
 406 0 l 1,17,-1
 479 0 l 1,18,-1
 408 -98 l 1,19,20
 535 -176 535 -176 535 -272 c 0,0,1
EndSplineSet
EndChar

StartChar: uni00B9
Encoding: 185 185 120
Width: 630
GlyphClass: 2
Flags: W
LayerCount: 2
Back
SplineSet
344 679 m 2,0,1
 344 590 344 590 374.5 570.5 c 128,-1,2
 405 551 405 551 467 551 c 0,3,4
 476 551 476 551 476 534 c 128,-1,5
 476 517 476 517 467 517 c 0,6,7
 412 522 412 522 285 522 c 128,-1,8
 158 522 158 522 103 517 c 0,9,10
 94 517 94 517 94 534 c 128,-1,11
 94 551 94 551 103 551 c 0,12,13
 191 551 191 551 214.5 574.5 c 128,-1,14
 238 598 238 598 238 678 c 2,15,-1
 238 1200 l 2,16,17
 238 1228 238 1228 223 1228 c 0,18,19
 218 1228 218 1228 207 1223 c 2,20,-1
 118 1188 l 1,21,22
 107 1188 107 1188 101 1198.5 c 128,-1,23
 95 1209 95 1209 105 1216 c 1,24,25
 240 1273 240 1273 328 1343 c 0,26,27
 332 1346 332 1346 339 1346 c 0,28,29
 347 1346 347 1346 348 1338 c 1,30,31
 344 1284 344 1284 344 1235 c 2,32,-1
 344 679 l 2,0,1
EndSplineSet
Fore
SplineSet
358 692 m 2,0,1
 358 616 358 616 380 590 c 128,-1,2
 402 564 402 564 456 563 c 0,3,4
 465 563 465 563 465 540.5 c 128,-1,5
 465 518 465 518 456 518 c 1,6,7
 408 523 408 523 286 522 c 0,8,9
 164 522 164 522 116 518 c 1,10,11
 107 518 107 518 106.5 540.5 c 128,-1,12
 106 563 106 563 116 563 c 0,13,14
 180 563 180 563 202 593 c 0,15,16
 222 620 222 620 222 691 c 2,17,-1
 222 1175 l 2,18,19
 222 1214 222 1214 210 1209 c 0,20,21
 147 1188 147 1188 113 1171 c 0,22,23
 101 1165 101 1165 94.5 1184 c 128,-1,24
 88 1203 88 1203 99 1207 c 0,25,26
 178 1240 178 1240 308 1335 c 0,27,28
 324 1347 324 1347 337 1347 c 0,29,30
 363 1347 363 1347 363 1315 c 0,31,32
 358 1272 358 1272 358 1219 c 2,33,-1
 358 692 l 2,0,1
EndSplineSet
EndChar

StartChar: ordmasculine
Encoding: 186 186 121
Width: 619
GlyphClass: 2
Flags: W
LayerCount: 2
Fore
SplineSet
581 780 m 0,0,1
 581 655 581 655 508 581 c 0,2,3
 437 510 437 510 311 510 c 0,4,5
 200 510 200 510 123 583 c 0,6,7
 40 662 40 662 40 778 c 0,8,9
 40 880 40 880 106 956 c 0,10,11
 185 1046 185 1046 310 1046 c 0,12,13
 441 1046 441 1046 520 951 c 0,14,15
 581 878 581 878 581 780 c 0,0,1
429 776 m 0,16,17
 429 886 429 886 386 951 c 0,18,19
 354 1000 354 1000 311 1000 c 0,20,21
 262 1000 262 1000 227 937 c 0,22,23
 191 872 191 872 191 776 c 0,24,25
 191 665 191 665 235 604 c 0,26,27
 266 561 266 561 310 561 c 0,28,29
 366 561 366 561 400 629 c 0,30,31
 429 688 429 688 429 776 c 0,16,17
EndSplineSet
EndChar

StartChar: guillemotright
Encoding: 187 187 122
Width: 789
GlyphClass: 2
Flags: W
LayerCount: 2
Fore
SplineSet
366 104 m 2,0,-1
 563 394 l 2,1,2
 575 412 575 412 575 435 c 128,-1,3
 575 458 575 458 563 476 c 2,4,-1
 366 770 l 2,5,6
 357 783 357 783 374.5 797 c 128,-1,7
 392 811 392 811 403 800 c 2,8,-1
 702 488 l 2,9,10
 726 463 726 463 726 435 c 128,-1,11
 726 407 726 407 702 382 c 2,12,-1
 403 70 l 2,13,14
 391 57 391 57 373.5 73 c 128,-1,15
 356 89 356 89 366 104 c 2,0,-1
59 104 m 2,16,-1
 256 394 l 2,17,18
 268 412 268 412 268 435 c 128,-1,19
 268 458 268 458 256 476 c 2,20,-1
 59 770 l 2,21,22
 50 783 50 783 67.5 797 c 128,-1,23
 85 811 85 811 96 800 c 2,24,-1
 395 488 l 2,25,26
 419 463 419 463 419 435 c 128,-1,27
 419 407 419 407 395 382 c 2,28,-1
 96 70 l 2,29,30
 84 57 84 57 66.5 73 c 128,-1,31
 49 89 49 89 59 104 c 2,16,-1
EndSplineSet
EndChar

StartChar: onequarter
Encoding: 188 188 123
Width: 1509
GlyphClass: 2
Flags: W
LayerCount: 2
Fore
SplineSet
393 709 m 2,0,1
 393 626 393 626 416 597 c 128,-1,2
 439 568 439 568 499 569 c 0,3,4
 509 569 509 569 508.5 544 c 128,-1,5
 508 519 508 519 499 519 c 1,6,7
 447 524 447 524 315 525 c 0,8,9
 182 525 182 525 130 519 c 1,10,11
 120 519 120 519 120 544 c 128,-1,12
 120 569 120 569 130 569 c 0,13,14
 201 569 201 569 224 601 c 0,15,16
 245 630 245 630 246 707 c 2,17,-1
 246 1231 l 2,18,19
 246 1273 246 1273 232 1268 c 0,20,21
 164 1245 164 1245 128 1227 c 0,22,23
 115 1221 115 1221 107.5 1241.5 c 128,-1,24
 100 1262 100 1262 113 1266 c 0,25,26
 199 1302 199 1302 339 1405 c 0,27,28
 357 1418 357 1418 370 1418 c 0,29,30
 398 1418 398 1418 398 1383 c 0,31,32
 393 1337 393 1337 393 1279 c 2,33,-1
 393 709 l 2,0,1
1384 101 m 2,34,35
 1384 44 1384 44 1450 44 c 0,36,37
 1460 44 1460 44 1460 19.5 c 128,-1,38
 1460 -5 1460 -5 1450 -5 c 1,39,40
 1398 0 1398 0 1315 0 c 0,41,42
 1199 0 1199 0 1144 -5 c 1,43,44
 1134 -5 1134 -5 1134 19.5 c 128,-1,45
 1134 44 1134 44 1144 44 c 0,46,47
 1236 44 1236 44 1236 101 c 2,48,-1
 1236 241 l 1,49,-1
 937 241 l 2,50,51
 880 241 880 241 880 279 c 0,52,53
 880 311 880 311 914 358 c 2,54,-1
 1102 607 l 2,55,56
 1224 769 1224 769 1257 821 c 2,57,-1
 1318 918 l 2,58,59
 1328 930 1328 930 1346 930 c 0,60,61
 1401 930 1401 930 1402 895 c 0,62,63
 1402 889 1402 889 1399 884 c 2,64,-1
 998 354 l 2,65,66
 992 346 992 346 992 340 c 0,67,68
 992 328 992 328 1004 328 c 2,69,-1
 1236 328 l 1,70,-1
 1236 606 l 2,71,72
 1236 620 1236 620 1309 620 c 0,73,74
 1384 620 1384 620 1384 606 c 2,75,-1
 1384 328 l 1,76,-1
 1464 328 l 2,77,78
 1474 328 1474 328 1474 285 c 0,79,80
 1474 241 1474 241 1464 241 c 2,81,-1
 1384 241 l 1,82,-1
 1384 101 l 2,34,35
1259 1389 m 2,83,-1
 368 35 l 2,84,85
 360 24 360 24 332.5 44.5 c 128,-1,86
 305 65 305 65 311 74 c 2,87,-1
 1199 1425 l 2,88,89
 1203 1431 1203 1431 1209 1431 c 0,90,91
 1219 1431 1219 1431 1237 1419 c 0,92,93
 1266 1400 1266 1400 1259 1389 c 2,83,-1
EndSplineSet
LCarets2: 2 0 0 
Ligature2: "'frac' Diagonal Fractions in Latin lookup 11" one fraction four
Ligature2: "'frac' Diagonal Fractions in Latin lookup 11" one slash four
EndChar

StartChar: onehalf
Encoding: 189 189 124
Width: 1509
GlyphClass: 2
Flags: W
LayerCount: 2
Fore
SplineSet
1401 20 m 2,0,1
 1390 -5 1390 -5 1349 -5 c 0,2,3
 1261 0 1261 0 1189 0 c 2,4,-1
 1137 0 l 2,5,6
 1032 0 1032 0 914 -5 c 0,7,8
 880 -5 880 -5 880 25 c 0,9,10
 880 39 880 39 893 52 c 0,11,12
 997 156 997 156 1098 292 c 0,13,14
 1264 518 1264 518 1263 636 c 0,15,16
 1260 769 1260 769 1152 770 c 0,17,18
 1055 770 1055 770 994 663 c 0,19,20
 986 649 986 649 963 664 c 0,21,22
 945 675 945 675 952 686 c 0,23,24
 1005 789 1005 789 1089 836 c 0,25,26
 1144 867 1144 867 1204 866 c 0,27,28
 1311 866 1311 866 1374 795 c 0,29,30
 1430 733 1430 733 1430 643 c 0,31,32
 1430 518 1430 518 1251 318 c 0,33,34
 1213 275 1213 275 1063 125 c 1,35,-1
 1255 125 l 2,36,37
 1330 125 1330 125 1358 137 c 0,38,39
 1390 151 1390 151 1408 189 c 0,40,41
 1415 203 1415 203 1443 192 c 0,42,43
 1468 182 1468 182 1465 173 c 2,44,-1
 1401 20 l 2,0,1
393 709 m 2,45,46
 393 626 393 626 416 597 c 128,-1,47
 439 568 439 568 499 569 c 0,48,49
 509 569 509 569 508.5 544 c 128,-1,50
 508 519 508 519 499 519 c 1,51,52
 447 524 447 524 315 525 c 0,53,54
 182 525 182 525 130 519 c 1,55,56
 120 519 120 519 120 544 c 128,-1,57
 120 569 120 569 130 569 c 0,58,59
 201 569 201 569 224 601 c 0,60,61
 245 630 245 630 246 707 c 2,62,-1
 246 1231 l 2,63,64
 246 1273 246 1273 232 1268 c 0,65,66
 164 1245 164 1245 128 1227 c 0,67,68
 115 1221 115 1221 107.5 1241.5 c 128,-1,69
 100 1262 100 1262 113 1266 c 0,70,71
 199 1302 199 1302 339 1405 c 0,72,73
 357 1418 357 1418 370 1418 c 0,74,75
 398 1418 398 1418 398 1383 c 0,76,77
 393 1337 393 1337 393 1279 c 2,78,-1
 393 709 l 2,45,46
1255 1389 m 2,79,-1
 364 35 l 2,80,81
 356 24 356 24 328.5 44.5 c 128,-1,82
 301 65 301 65 307 74 c 2,83,-1
 1195 1425 l 2,84,85
 1199 1431 1199 1431 1205 1431 c 0,86,87
 1215 1431 1215 1431 1233 1419 c 0,88,89
 1262 1400 1262 1400 1255 1389 c 2,79,-1
EndSplineSet
LCarets2: 2 0 0 
Ligature2: "'frac' Diagonal Fractions in Latin lookup 11" one fraction two
Ligature2: "'frac' Diagonal Fractions in Latin lookup 11" one slash two
EndChar

StartChar: threequarters
Encoding: 190 190 125
Width: 1509
GlyphClass: 2
Flags: W
LayerCount: 2
Fore
SplineSet
1384 101 m 2,0,1
 1384 44 1384 44 1450 44 c 0,2,3
 1460 44 1460 44 1460 19.5 c 128,-1,4
 1460 -5 1460 -5 1450 -5 c 1,5,6
 1398 0 1398 0 1315 0 c 0,7,8
 1199 0 1199 0 1144 -5 c 1,9,10
 1134 -5 1134 -5 1134 19.5 c 128,-1,11
 1134 44 1134 44 1144 44 c 0,12,13
 1236 44 1236 44 1236 101 c 2,14,-1
 1236 241 l 1,15,-1
 937 241 l 2,16,17
 880 241 880 241 880 279 c 0,18,19
 880 311 880 311 914 358 c 2,20,-1
 1102 607 l 2,21,22
 1224 769 1224 769 1257 821 c 2,23,-1
 1318 918 l 2,24,25
 1328 930 1328 930 1346 930 c 0,26,27
 1401 930 1401 930 1402 895 c 0,28,29
 1402 889 1402 889 1399 884 c 2,30,-1
 998 354 l 2,31,32
 992 346 992 346 992 340 c 0,33,34
 992 328 992 328 1004 328 c 2,35,-1
 1236 328 l 1,36,-1
 1236 606 l 2,37,38
 1236 620 1236 620 1309 620 c 0,39,40
 1384 620 1384 620 1384 606 c 2,41,-1
 1384 328 l 1,42,-1
 1464 328 l 2,43,44
 1474 328 1474 328 1474 285 c 0,45,46
 1474 241 1474 241 1464 241 c 2,47,-1
 1384 241 l 1,48,-1
 1384 101 l 2,0,1
555 804 m 0,49,50
 555 691 555 691 474 608 c 0,51,52
 380 512 380 512 239 512 c 0,53,54
 145 512 145 512 88 544 c 0,55,56
 36 572 36 572 36 620 c 0,57,58
 36 683 36 683 116 683 c 0,59,60
 145 683 145 683 176 647 c 2,61,-1
 209 608 l 2,62,63
 239 577 239 577 274 578 c 0,64,65
 340 578 340 578 374 664 c 0,66,67
 396 721 396 721 396 788 c 0,68,69
 396 874 396 874 343 924 c 0,70,71
 301 965 301 965 237 965 c 0,72,73
 199 965 199 965 167 954 c 1,74,75
 149 954 149 954 149 990 c 0,76,77
 149 1023 149 1023 163 1024 c 0,78,79
 263 1024 263 1024 320 1078 c 0,80,81
 364 1120 364 1120 364 1182 c 0,82,83
 364 1247 364 1247 328 1284 c 0,84,85
 303 1310 303 1310 266 1310 c 0,86,87
 207 1310 207 1310 157 1256 c 0,88,89
 137 1235 137 1235 120 1209 c 0,90,91
 110 1195 110 1195 88 1213 c 0,92,93
 70 1226 70 1226 78 1238 c 0,94,95
 140 1330 140 1330 196 1364 c 0,96,97
 248 1394 248 1394 310 1393 c 0,98,99
 396 1393 396 1393 455 1332 c 0,100,101
 510 1275 510 1275 510 1198 c 0,102,103
 510 1087 510 1087 399 1021 c 1,104,105
 555 975 555 975 555 804 c 0,49,50
1259 1389 m 2,106,-1
 368 35 l 2,107,108
 360 24 360 24 332.5 44.5 c 128,-1,109
 305 65 305 65 311 74 c 2,110,-1
 1199 1425 l 2,111,112
 1203 1431 1203 1431 1209 1431 c 0,113,114
 1219 1431 1219 1431 1237 1419 c 0,115,116
 1266 1400 1266 1400 1259 1389 c 2,106,-1
EndSplineSet
LCarets2: 2 0 0 
Ligature2: "'frac' Diagonal Fractions in Latin lookup 11" three fraction four
Ligature2: "'frac' Diagonal Fractions in Latin lookup 11" three slash four
EndChar

StartChar: questiondown
Encoding: 191 191 126
Width: 752
GlyphClass: 2
Flags: W
LayerCount: 2
Fore
SplineSet
467 866 m 0,0,1
 533 866 533 866 567 816 c 0,2,3
 586 787 586 787 586 750 c 0,4,5
 586 681 586 681 535 644 c 0,6,7
 505 623 505 623 467 623 c 0,8,9
 403 623 403 623 368 679 c 0,10,11
 348 711 348 711 348 750 c 0,12,13
 348 821 348 821 406 852 c 0,14,15
 433 866 433 866 467 866 c 0,0,1
596 -444 m 0,16,17
 596 -526 596 -526 512 -526 c 0,18,19
 385 -526 385 -526 268 -393 c 0,20,21
 150 -260 150 -260 150 -94 c 0,22,23
 150 50 150 50 231 94 c 2,24,-1
 397 182 l 2,25,26
 471 221 471 221 471 272 c 0,27,28
 471 328 471 328 451 397 c 0,29,30
 451 415 451 415 476 417 c 2,31,-1
 491 415 l 1,32,33
 495 413 495 413 496 410 c 0,34,35
 571 272 571 272 571 199 c 0,36,37
 571 106 571 106 457 47 c 2,38,-1
 352 -8 l 2,39,40
 236 -70 236 -70 236 -160 c 0,41,42
 236 -244 236 -244 285 -289 c 0,43,44
 357 -356 357 -356 515 -358 c 0,45,46
 521 -358 521 -358 528 -358 c 0,47,48
 558 -358 558 -358 582 -397 c 0,49,50
 596 -421 596 -421 596 -444 c 0,16,17
EndSplineSet
Substitution2: "'c2sc' Capitals to Small Capitals in Latin lookup 3" questiondown.sc
EndChar

StartChar: Agrave
Encoding: 192 192 127
Width: 1398
GlyphClass: 2
Flags: W
AnchorPoint: "below" 636 -75 basechar 0
LayerCount: 2
Fore
SplineSet
818 1545 m 2,0,1
 827 1537 827 1537 833 1527 c 128,-1,2
 839 1517 839 1517 839 1506 c 3,3,4
 839 1493 839 1493 827.5 1483.5 c 128,-1,5
 816 1474 816 1474 802 1474 c 128,-1,6
 788 1474 788 1474 771 1483 c 2,7,-1
 490 1634 l 2,8,9
 484 1636 484 1636 480 1643.5 c 128,-1,10
 476 1651 476 1651 476 1660 c 3,11,12
 476 1678 476 1678 491 1700.5 c 128,-1,13
 506 1723 506 1723 519.5 1731 c 128,-1,14
 533 1739 533 1739 543 1739 c 3,15,16
 551 1739 551 1739 557 1734 c 2,17,-1
 818 1545 l 2,0,1
1175 186 m 2,18,19
 1214 69 1214 69 1367 69 c 0,20,21
 1380 69 1380 69 1380 31 c 128,-1,22
 1380 -7 1380 -7 1367 -7 c 1,23,24
 1294 0 1294 0 1136 0 c 256,25,26
 978 0 978 0 906 -7 c 1,27,28
 892 -7 892 -7 892 31 c 128,-1,29
 892 69 892 69 906 69 c 0,30,31
 1005 69 1005 69 1005 137 c 0,32,33
 1005 160 1005 160 997 186 c 2,34,-1
 896 499 l 2,35,36
 887 531 887 531 852 531 c 2,37,-1
 445 531 l 2,38,39
 417 531 417 531 405 496 c 2,40,-1
 292 182 l 2,41,42
 283 160 283 160 283 142 c 0,43,44
 283 69 283 69 434 69 c 0,45,46
 448 69 448 69 448 31 c 128,-1,47
 448 -7 448 -7 434 -7 c 1,48,49
 349 0 349 0 221 0 c 256,50,51
 93 0 93 0 9 -7 c 1,52,53
 -5 -7 -5 -7 -4.5 31 c 128,-1,54
 -4 69 -4 69 9 69 c 0,55,56
 106 69 106 69 138 97 c 128,-1,57
 170 125 170 125 204 201 c 2,58,-1
 581 1188 l 2,59,60
 587 1205 587 1205 587 1218 c 128,-1,61
 587 1231 587 1231 574 1244.5 c 128,-1,62
 561 1258 561 1258 561 1264 c 128,-1,63
 561 1270 561 1270 600.5 1291.5 c 128,-1,64
 640 1313 640 1313 693 1350 c 128,-1,65
 746 1387 746 1387 758 1387 c 0,66,67
 781 1387 781 1387 793 1343 c 0,68,69
 819 1246 819 1246 842 1177 c 2,70,-1
 1175 186 l 2,18,19
831 600 m 2,71,72
 856 600 856 600 856 616 c 0,73,74
 856 621 856 621 854 627 c 2,75,-1
 684 1159 l 2,76,77
 678 1179 678 1179 666 1179 c 128,-1,78
 654 1179 654 1179 647 1159 c 2,79,-1
 450 627 l 2,80,81
 448 622 448 622 448 616 c 0,82,83
 448 600 448 600 472 600 c 2,84,-1
 831 600 l 2,71,72
EndSplineSet
Substitution2: "'c2sc' Capitals to Small Capitals in Latin lookup 3" agrave.sc
Ligature2: "'ccmp' Glyph Composition/Decomposition in Latin singles" A gravecomb
LCarets2: 1 0 
EndChar

StartChar: Aacute
Encoding: 193 193 128
Width: 1398
GlyphClass: 2
Flags: W
AnchorPoint: "below" 628 -75 basechar 0
LayerCount: 2
Fore
SplineSet
911 1640 m 2,0,-1
 614 1483 l 2,1,2
 596 1474 596 1474 582 1474 c 3,3,4
 570 1474 570 1474 558 1482.5 c 128,-1,5
 546 1491 546 1491 546 1504 c 3,6,7
 546 1514 546 1514 552.5 1525.5 c 128,-1,8
 559 1537 559 1537 569 1543 c 2,9,-1
 839 1742 l 2,10,11
 844 1746 844 1746 851 1746 c 3,12,13
 860 1746 860 1746 872 1738 c 128,-1,14
 884 1730 884 1730 895 1715 c 128,-1,15
 906 1700 906 1700 912.5 1683.5 c 128,-1,16
 919 1667 919 1667 919 1657 c 3,17,18
 919 1651 919 1651 917 1646.5 c 128,-1,19
 915 1642 915 1642 911 1640 c 2,0,-1
1175 186 m 2,20,21
 1214 69 1214 69 1367 69 c 0,22,23
 1380 69 1380 69 1380 31 c 128,-1,24
 1380 -7 1380 -7 1367 -7 c 1,25,26
 1294 0 1294 0 1136 0 c 256,27,28
 978 0 978 0 906 -7 c 1,29,30
 892 -7 892 -7 892 31 c 128,-1,31
 892 69 892 69 906 69 c 0,32,33
 1005 69 1005 69 1005 137 c 0,34,35
 1005 160 1005 160 997 186 c 2,36,-1
 896 499 l 2,37,38
 887 531 887 531 852 531 c 2,39,-1
 445 531 l 2,40,41
 417 531 417 531 405 496 c 2,42,-1
 292 182 l 2,43,44
 283 160 283 160 283 142 c 0,45,46
 283 69 283 69 434 69 c 0,47,48
 448 69 448 69 448 31 c 128,-1,49
 448 -7 448 -7 434 -7 c 1,50,51
 349 0 349 0 221 0 c 256,52,53
 93 0 93 0 9 -7 c 1,54,55
 -5 -7 -5 -7 -4.5 31 c 128,-1,56
 -4 69 -4 69 9 69 c 0,57,58
 106 69 106 69 138 97 c 128,-1,59
 170 125 170 125 204 201 c 2,60,-1
 581 1188 l 2,61,62
 587 1205 587 1205 587 1218 c 128,-1,63
 587 1231 587 1231 574 1244.5 c 128,-1,64
 561 1258 561 1258 561 1264 c 128,-1,65
 561 1270 561 1270 600.5 1291.5 c 128,-1,66
 640 1313 640 1313 693 1350 c 128,-1,67
 746 1387 746 1387 758 1387 c 0,68,69
 781 1387 781 1387 793 1343 c 0,70,71
 819 1246 819 1246 842 1177 c 2,72,-1
 1175 186 l 2,20,21
831 600 m 2,73,74
 856 600 856 600 856 616 c 0,75,76
 856 621 856 621 854 627 c 2,77,-1
 684 1159 l 2,78,79
 678 1179 678 1179 666 1179 c 128,-1,80
 654 1179 654 1179 647 1159 c 2,81,-1
 450 627 l 2,82,83
 448 622 448 622 448 616 c 0,84,85
 448 600 448 600 472 600 c 2,86,-1
 831 600 l 2,73,74
EndSplineSet
Substitution2: "'c2sc' Capitals to Small Capitals in Latin lookup 3" aacute.sc
Ligature2: "'ccmp' Glyph Composition/Decomposition in Latin singles" A acutecomb
LCarets2: 1 0 
EndChar

StartChar: Acircumflex
Encoding: 194 194 129
Width: 1398
GlyphClass: 2
Flags: W
AnchorPoint: "below" 644 -75 basechar 0
LayerCount: 2
Fore
SplineSet
1175 186 m 2,0,1
 1214 69 1214 69 1367 69 c 0,2,3
 1380 69 1380 69 1380 31 c 128,-1,4
 1380 -7 1380 -7 1367 -7 c 1,5,6
 1294 0 1294 0 1136 0 c 256,7,8
 978 0 978 0 906 -7 c 1,9,10
 892 -7 892 -7 892 31 c 128,-1,11
 892 69 892 69 906 69 c 0,12,13
 1005 69 1005 69 1005 137 c 0,14,15
 1005 160 1005 160 997 186 c 2,16,-1
 896 499 l 2,17,18
 887 531 887 531 852 531 c 2,19,-1
 445 531 l 2,20,21
 417 531 417 531 405 496 c 2,22,-1
 292 182 l 2,23,24
 283 160 283 160 283 142 c 0,25,26
 283 69 283 69 434 69 c 0,27,28
 448 69 448 69 448 31 c 128,-1,29
 448 -7 448 -7 434 -7 c 1,30,31
 349 0 349 0 221 0 c 256,32,33
 93 0 93 0 9 -7 c 1,34,35
 -5 -7 -5 -7 -4.5 31 c 128,-1,36
 -4 69 -4 69 9 69 c 0,37,38
 106 69 106 69 138 97 c 128,-1,39
 170 125 170 125 204 201 c 2,40,-1
 581 1188 l 2,41,42
 587 1205 587 1205 587 1218 c 128,-1,43
 587 1231 587 1231 574 1244.5 c 128,-1,44
 561 1258 561 1258 561 1264 c 128,-1,45
 561 1270 561 1270 600.5 1291.5 c 128,-1,46
 640 1313 640 1313 693 1350 c 128,-1,47
 746 1387 746 1387 758 1387 c 0,48,49
 781 1387 781 1387 793 1343 c 0,50,51
 819 1246 819 1246 842 1177 c 2,52,-1
 1175 186 l 2,0,1
831 600 m 2,53,54
 856 600 856 600 856 616 c 0,55,56
 856 621 856 621 854 627 c 2,57,-1
 684 1159 l 2,58,59
 678 1179 678 1179 666 1179 c 128,-1,60
 654 1179 654 1179 647 1159 c 2,61,-1
 450 627 l 2,62,63
 448 622 448 622 448 616 c 0,64,65
 448 600 448 600 472 600 c 2,66,-1
 831 600 l 2,53,54
1008 1507 m 2,67,68
 1011 1504 1011 1504 1011.5 1498.5 c 128,-1,69
 1012 1493 1012 1493 1004.5 1484.5 c 128,-1,70
 997 1476 997 1476 989 1476 c 0,71,72
 986 1476 986 1476 984 1477 c 2,73,-1
 738 1616 l 2,74,75
 722 1625 722 1625 704 1625 c 256,76,77
 686 1625 686 1625 670 1616 c 2,78,-1
 429 1477 l 2,79,80
 426 1475 426 1475 421 1475 c 0,81,82
 412 1475 412 1475 404 1483 c 128,-1,83
 396 1491 396 1491 396 1497 c 128,-1,84
 396 1503 396 1503 400 1507 c 2,85,-1
 660 1757 l 2,86,87
 683 1779 683 1779 704 1779 c 256,88,89
 725 1779 725 1779 748 1757 c 2,90,-1
 1008 1507 l 2,67,68
EndSplineSet
Substitution2: "'c2sc' Capitals to Small Capitals in Latin lookup 3" acircumflex.sc
Ligature2: "'ccmp' Glyph Composition/Decomposition in Latin singles" A uni0302
LCarets2: 1 0 
EndChar

StartChar: Atilde
Encoding: 195 195 130
Width: 1398
GlyphClass: 2
Flags: W
AnchorPoint: "below" 656 -75 basechar 0
LayerCount: 2
Fore
SplineSet
1175 186 m 2,0,1
 1214 69 1214 69 1367 69 c 0,2,3
 1380 69 1380 69 1380 31 c 128,-1,4
 1380 -7 1380 -7 1367 -7 c 1,5,6
 1294 0 1294 0 1136 0 c 256,7,8
 978 0 978 0 906 -7 c 1,9,10
 892 -7 892 -7 892 31 c 128,-1,11
 892 69 892 69 906 69 c 0,12,13
 1005 69 1005 69 1005 137 c 0,14,15
 1005 160 1005 160 997 186 c 2,16,-1
 896 499 l 2,17,18
 887 531 887 531 852 531 c 2,19,-1
 445 531 l 2,20,21
 417 531 417 531 405 496 c 2,22,-1
 292 182 l 2,23,24
 283 160 283 160 283 142 c 0,25,26
 283 69 283 69 434 69 c 0,27,28
 448 69 448 69 448 31 c 128,-1,29
 448 -7 448 -7 434 -7 c 1,30,31
 349 0 349 0 221 0 c 256,32,33
 93 0 93 0 9 -7 c 1,34,35
 -5 -7 -5 -7 -4.5 31 c 128,-1,36
 -4 69 -4 69 9 69 c 0,37,38
 106 69 106 69 138 97 c 128,-1,39
 170 125 170 125 204 201 c 2,40,-1
 581 1188 l 2,41,42
 587 1205 587 1205 587 1218 c 128,-1,43
 587 1231 587 1231 574 1244.5 c 128,-1,44
 561 1258 561 1258 561 1264 c 128,-1,45
 561 1270 561 1270 600.5 1291.5 c 128,-1,46
 640 1313 640 1313 693 1350 c 128,-1,47
 746 1387 746 1387 758 1387 c 0,48,49
 781 1387 781 1387 793 1343 c 0,50,51
 819 1246 819 1246 842 1177 c 2,52,-1
 1175 186 l 2,0,1
831 600 m 2,53,54
 856 600 856 600 856 616 c 0,55,56
 856 621 856 621 854 627 c 2,57,-1
 684 1159 l 2,58,59
 678 1179 678 1179 666 1179 c 128,-1,60
 654 1179 654 1179 647 1159 c 2,61,-1
 450 627 l 2,62,63
 448 622 448 622 448 616 c 0,64,65
 448 600 448 600 472 600 c 2,66,-1
 831 600 l 2,53,54
1002 1660 m 0,67,68
 898 1502 898 1502 789 1502 c 0,69,70
 742 1502 742 1502 651 1535 c 128,-1,71
 560 1568 560 1568 509 1568 c 256,72,73
 448 1568 448 1568 400 1504 c 0,74,75
 397 1500 397 1500 393 1501 c 0,76,77
 388 1501 388 1501 382 1507 c 0,78,79
 373 1515 373 1515 372 1521 c 0,80,81
 372 1523 372 1523 373 1525 c 0,82,83
 402 1568 402 1568 423.5 1593.5 c 128,-1,84
 445 1619 445 1619 491 1646.5 c 128,-1,85
 537 1674 537 1674 583 1674 c 256,86,87
 629 1674 629 1674 718.5 1642.5 c 128,-1,88
 808 1611 808 1611 842 1611 c 0,89,90
 903 1611 903 1611 975 1683 c 0,91,92
 977 1685 977 1685 981 1685 c 0,93,94
 986 1685 986 1685 994 1679 c 0,95,96
 1003 1671 1003 1671 1003 1664 c 0,97,98
 1003 1662 1003 1662 1002 1660 c 0,67,68
EndSplineSet
Substitution2: "'c2sc' Capitals to Small Capitals in Latin lookup 3" atilde.sc
Ligature2: "'ccmp' Glyph Composition/Decomposition in Latin singles" A tildecomb
LCarets2: 1 0 
EndChar

StartChar: Adieresis
Encoding: 196 196 131
Width: 1398
GlyphClass: 2
Flags: W
AnchorPoint: "below" 652 -75 basechar 0
LayerCount: 2
Fore
SplineSet
1175 186 m 2,0,1
 1214 69 1214 69 1367 69 c 0,2,3
 1380 69 1380 69 1380 31 c 128,-1,4
 1380 -7 1380 -7 1367 -7 c 1,5,6
 1294 0 1294 0 1136 0 c 256,7,8
 978 0 978 0 906 -7 c 1,9,10
 892 -7 892 -7 892 31 c 128,-1,11
 892 69 892 69 906 69 c 0,12,13
 1005 69 1005 69 1005 137 c 0,14,15
 1005 160 1005 160 997 186 c 2,16,-1
 896 499 l 2,17,18
 887 531 887 531 852 531 c 2,19,-1
 445 531 l 2,20,21
 417 531 417 531 405 496 c 2,22,-1
 292 182 l 2,23,24
 283 160 283 160 283 142 c 0,25,26
 283 69 283 69 434 69 c 0,27,28
 448 69 448 69 448 31 c 128,-1,29
 448 -7 448 -7 434 -7 c 1,30,31
 349 0 349 0 221 0 c 256,32,33
 93 0 93 0 9 -7 c 1,34,35
 -5 -7 -5 -7 -4.5 31 c 128,-1,36
 -4 69 -4 69 9 69 c 0,37,38
 106 69 106 69 138 97 c 128,-1,39
 170 125 170 125 204 201 c 2,40,-1
 581 1188 l 2,41,42
 587 1205 587 1205 587 1218 c 128,-1,43
 587 1231 587 1231 574 1244.5 c 128,-1,44
 561 1258 561 1258 561 1264 c 128,-1,45
 561 1270 561 1270 600.5 1291.5 c 128,-1,46
 640 1313 640 1313 693 1350 c 128,-1,47
 746 1387 746 1387 758 1387 c 0,48,49
 781 1387 781 1387 793 1343 c 0,50,51
 819 1246 819 1246 842 1177 c 2,52,-1
 1175 186 l 2,0,1
831 600 m 2,53,54
 856 600 856 600 856 616 c 0,55,56
 856 621 856 621 854 627 c 2,57,-1
 684 1159 l 2,58,59
 678 1179 678 1179 666 1179 c 128,-1,60
 654 1179 654 1179 647 1159 c 2,61,-1
 450 627 l 2,62,63
 448 622 448 622 448 616 c 0,64,65
 448 600 448 600 472 600 c 2,66,-1
 831 600 l 2,53,54
584 1608 m 256,67,68
 584 1564 584 1564 553 1532.5 c 128,-1,69
 522 1501 522 1501 478 1501 c 128,-1,70
 434 1501 434 1501 402.5 1532.5 c 128,-1,71
 371 1564 371 1564 371 1608 c 128,-1,72
 371 1652 371 1652 402.5 1683 c 128,-1,73
 434 1714 434 1714 478 1714 c 128,-1,74
 522 1714 522 1714 553 1683 c 128,-1,75
 584 1652 584 1652 584 1608 c 256,67,68
1026 1608 m 256,76,77
 1026 1564 1026 1564 994.5 1532.5 c 128,-1,78
 963 1501 963 1501 919 1501 c 128,-1,79
 875 1501 875 1501 844 1532.5 c 128,-1,80
 813 1564 813 1564 813 1608 c 128,-1,81
 813 1652 813 1652 844 1683 c 128,-1,82
 875 1714 875 1714 919 1714 c 128,-1,83
 963 1714 963 1714 994.5 1683 c 128,-1,84
 1026 1652 1026 1652 1026 1608 c 256,76,77
EndSplineSet
Substitution2: "'c2sc' Capitals to Small Capitals in Latin lookup 3" adieresis.sc
Ligature2: "'ccmp' Glyph Composition/Decomposition in Latin singles" A uni0308
LCarets2: 1 0 
EndChar

StartChar: Aring
Encoding: 197 197 132
Width: 1398
GlyphClass: 2
Flags: W
AnchorPoint: "above" 712 1752 basechar 0
AnchorPoint: "below" 668 -75 basechar 0
LayerCount: 2
Fore
SplineSet
1175 186 m 2,0,1
 1214 69 1214 69 1367 69 c 0,2,3
 1380 69 1380 69 1380 31 c 128,-1,4
 1380 -7 1380 -7 1367 -7 c 1,5,6
 1294 0 1294 0 1136 0 c 256,7,8
 978 0 978 0 906 -7 c 1,9,10
 892 -7 892 -7 892 31 c 128,-1,11
 892 69 892 69 906 69 c 0,12,13
 1005 69 1005 69 1005 137 c 0,14,15
 1005 160 1005 160 997 186 c 2,16,-1
 896 499 l 2,17,18
 887 531 887 531 852 531 c 2,19,-1
 445 531 l 2,20,21
 417 531 417 531 405 496 c 2,22,-1
 292 182 l 2,23,24
 283 160 283 160 283 142 c 0,25,26
 283 69 283 69 434 69 c 0,27,28
 448 69 448 69 448 31 c 128,-1,29
 448 -7 448 -7 434 -7 c 1,30,31
 354 0 354 0 219 0 c 256,32,33
 84 0 84 0 9 -7 c 1,34,35
 -4 -7 -4 -7 -4 31 c 128,-1,36
 -4 69 -4 69 9 69 c 0,37,38
 94 69 94 69 134 94.5 c 128,-1,39
 174 120 174 120 204 201 c 2,40,-1
 640 1343 l 1,41,42
 518 1385 518 1385 518 1513 c 256,43,44
 518 1599 518 1599 581 1646.5 c 128,-1,45
 644 1694 644 1694 724 1694 c 256,46,47
 804 1694 804 1694 853 1635 c 128,-1,48
 902 1576 902 1576 902 1513 c 256,49,50
 902 1396 902 1396 791 1349 c 1,51,52
 804 1291 804 1291 842 1177 c 2,53,-1
 1175 186 l 2,0,1
810 1513 m 256,54,55
 810 1566 810 1566 782 1598.5 c 128,-1,56
 754 1631 754 1631 711 1631 c 256,57,58
 659 1631 659 1631 633.5 1592.5 c 128,-1,59
 608 1554 608 1554 608 1513 c 256,60,61
 608 1453 608 1453 639 1423.5 c 128,-1,62
 670 1394 670 1394 711 1394 c 0,63,64
 760 1394 760 1394 785 1430 c 128,-1,65
 810 1466 810 1466 810 1513 c 256,54,55
831 600 m 2,66,67
 855 600 855 600 855 614 c 0,68,69
 855 621 855 621 853 627 c 2,70,-1
 684 1159 l 2,71,72
 678 1179 678 1179 666 1179 c 256,73,74
 654 1179 654 1179 647 1159 c 2,75,-1
 450 627 l 2,76,77
 448 622 448 622 448 614 c 0,78,79
 448 600 448 600 472 600 c 2,80,-1
 831 600 l 2,66,67
EndSplineSet
Substitution2: "'c2sc' Capitals to Small Capitals in Latin lookup 3" aring.sc
LCarets2: 1 0 
Ligature2: "'ccmp' Glyph Composition/Decomposition in Latin singles" A uni030A
EndChar

StartChar: AE
Encoding: 198 198 133
Width: 1742
GlyphClass: 2
Flags: W
AnchorPoint: "below" 879 -75 basechar 0
AnchorPoint: "above" 1032 1415 basechar 0
LayerCount: 2
Fore
SplineSet
66 172 m 2,0,-1
 642 1196 l 2,1,2
 658 1224 658 1224 658 1241 c 0,3,4
 658 1282 658 1282 575 1282 c 0,5,6
 562 1282 562 1282 562 1320 c 128,-1,7
 562 1358 562 1358 575 1358 c 1,8,9
 714 1352 714 1352 850 1352 c 256,10,11
 986 1352 986 1352 1180.5 1355 c 128,-1,12
 1375 1358 1375 1358 1513 1358 c 0,13,14
 1560 1358 1560 1358 1570 1351 c 128,-1,15
 1580 1344 1580 1344 1580 1325 c 10,16,-1
 1580 1006 l 2,17,18
 1580 993 1580 993 1542.5 993 c 128,-1,19
 1505 993 1505 993 1505 1006 c 0,20,21
 1505 1138 1505 1138 1421.5 1209.5 c 128,-1,22
 1338 1281 1338 1281 1243 1283 c 10,23,-1
 974 1289 l 2,24,25
 933 1290 933 1290 933 1249 c 2,26,-1
 933 711 l 2,27,28
 933 676 933 676 968 676 c 2,29,-1
 1181 676 l 2,30,31
 1282 676 1282 676 1282 769 c 2,32,-1
 1282 864 l 2,33,34
 1282 877 1282 877 1316.5 877 c 128,-1,35
 1351 877 1351 877 1351 864 c 1,36,37
 1345 807 1345 807 1345 647.5 c 128,-1,38
 1345 488 1345 488 1351 436 c 1,39,40
 1351 423 1351 423 1316.5 423 c 128,-1,41
 1282 423 1282 423 1282 436 c 2,42,-1
 1282 520 l 2,43,44
 1282 607 1282 607 1181 607 c 2,45,-1
 968 607 l 2,46,47
 933 607 933 607 933 573 c 2,48,-1
 933 300 l 2,49,50
 933 178 933 178 984.5 119 c 128,-1,51
 1036 60 1036 60 1101 62 c 2,52,-1
 1339 69 l 18,53,54
 1428 72 1428 72 1507.5 146 c 128,-1,55
 1587 220 1587 220 1587 344 c 0,56,57
 1587 362 1587 362 1624.5 362 c 128,-1,58
 1662 362 1662 362 1662 344 c 2,59,-1
 1662 19 l 2,60,61
 1662 -7 1662 -7 1562 -7 c 4,62,63
 1458 -7 1458 -7 1228 -3.5 c 128,-1,65
 998 0 998 0 864 0 c 256,66,67
 730 0 730 0 603 -7 c 1,68,69
 590 -7 590 -7 590 31 c 128,-1,70
 590 69 590 69 603 69 c 0,71,72
 773 69 773 69 773 177 c 2,73,-1
 773 573 l 2,74,75
 773 607 773 607 740 607 c 2,76,-1
 423 607 l 2,77,78
 394 607 394 607 382 583 c 2,79,-1
 172 168 l 2,80,81
 160 144 160 144 160 128 c 0,82,83
 160 69 160 69 312 69 c 0,84,85
 326 69 326 69 326 31 c 128,-1,86
 326 -7 326 -7 312 -7 c 1,87,88
 238 0 238 0 103 0 c 256,89,90
 -32 0 -32 0 -113 -7 c 1,91,92
 -126 -7 -126 -7 -126 31 c 128,-1,93
 -126 69 -126 69 -113 69 c 0,94,95
 8 68 8 68 66 172 c 2,0,-1
470 676 m 2,96,-1
 740 676 l 2,97,98
 773 676 773 676 773 711 c 2,99,-1
 773 1190 l 2,100,101
 774 1217 774 1217 754 1217 c 256,102,103
 734 1217 734 1217 724 1196 c 2,104,-1
 452 705 l 2,105,106
 448 698 448 698 448 690 c 0,107,108
 448 676 448 676 470 676 c 2,96,-1
EndSplineSet
Substitution2: "'ss07' Underdotted lookup 0-1" uniE036
Substitution2: "'c2sc' Capitals to Small Capitals in Latin lookup 3" ae.sc
EndChar

StartChar: Ccedilla
Encoding: 199 199 134
Width: 1344
GlyphClass: 2
Flags: W
AnchorPoint: "above" 784 1415 basechar 0
LayerCount: 2
Fore
SplineSet
858 -284 m 0,0,1
 858 -367 858 -367 781 -421 c 1,2,3
 721 -465 721 -465 645 -465 c 0,4,5
 526 -465 526 -465 526 -393 c 0,6,7
 526 -340 526 -340 577 -340 c 0,8,9
 600 -340 600 -340 634 -368 c 0,10,11
 671 -399 671 -399 685 -399 c 0,12,13
 741 -399 741 -399 741 -336 c 0,14,15
 741 -256 741 -256 606 -194 c 1,16,-1
 719 -26 l 1,17,18
 562 -18 562 -18 427 59 c 0,19,20
 276 145 276 145 183.5 296.5 c 128,-1,21
 91 448 91 448 91 647 c 0,22,23
 91 870 91 870 186.5 1034.5 c 128,-1,24
 282 1199 282 1199 435 1292 c 128,-1,25
 588 1385 588 1385 812 1385 c 0,26,27
 923 1385 923 1385 1080 1355 c 2,28,-1
 1101 1351 l 2,29,30
 1227 1327 1227 1327 1230 1327 c 1,31,32
 1259 1193 1259 1193 1259 1016 c 1,33,34
 1255 1000 1255 1000 1223.5 1000 c 128,-1,35
 1192 1000 1192 1000 1190 1014 c 0,36,37
 1162 1314 1162 1314 783 1314 c 0,38,39
 579 1314 579 1314 430.5 1130 c 128,-1,40
 282 946 282 946 282 707 c 0,41,42
 282 424 282 424 427 236 c 128,-1,43
 572 48 572 48 780 48 c 0,44,45
 1134 48 1134 48 1232 317 c 0,46,47
 1236 328 1236 328 1260.5 328 c 128,-1,48
 1285 328 1285 328 1295 320 c 0,49,50
 1299 317 1299 317 1299 306 c 1,51,52
 1262 115 1262 115 1209 36 c 1,53,54
 1177 32 1177 32 1132 19 c 1,55,56
 997 -23 997 -23 791 -27 c 1,57,-1
 731 -110 l 1,58,59
 858 -188 858 -188 858 -284 c 0,0,1
EndSplineSet
Substitution2: "'c2sc' Capitals to Small Capitals in Latin lookup 3" ccedilla.sc
Ligature2: "'ccmp' Glyph Composition/Decomposition in Latin singles" C uni0327
LCarets2: 1 0 
EndChar

StartChar: Egrave
Encoding: 200 200 135
Width: 1235
GlyphClass: 2
Flags: W
AnchorPoint: "below" 612 -75 basechar 0
LayerCount: 2
Fore
SplineSet
779 1545 m 2,0,1
 788 1537 788 1537 794 1527 c 128,-1,2
 800 1517 800 1517 800 1506 c 3,3,4
 800 1493 800 1493 788.5 1483.5 c 128,-1,5
 777 1474 777 1474 763 1474 c 128,-1,6
 749 1474 749 1474 732 1483 c 2,7,-1
 451 1634 l 2,8,9
 445 1636 445 1636 440.5 1643.5 c 128,-1,10
 436 1651 436 1651 436 1660 c 3,11,12
 436 1678 436 1678 451 1700.5 c 128,-1,13
 466 1723 466 1723 480 1731 c 128,-1,14
 494 1739 494 1739 503 1739 c 3,15,16
 511 1739 511 1739 518 1734 c 2,17,-1
 779 1545 l 2,0,1
271 177 m 2,18,-1
 271 1172 l 2,19,20
 271 1282 271 1282 84 1282 c 0,21,22
 70 1282 70 1282 70 1320 c 128,-1,23
 70 1358 70 1358 84 1358 c 1,24,25
 224 1352 224 1352 354 1352 c 256,26,27
 484 1352 484 1352 704.5 1355 c 128,-1,28
 925 1358 925 1358 1017 1358 c 256,29,30
 1068 1358 1068 1358 1078.5 1351 c 128,-1,31
 1089 1344 1089 1344 1089 1331 c 2,32,-1
 1089 1010 l 2,33,34
 1089 993 1089 993 1051.5 993 c 128,-1,35
 1014 993 1014 993 1014 1010 c 0,36,37
 1014 1276 1014 1276 756 1282 c 2,38,-1
 472 1289 l 2,39,40
 431 1290 431 1290 431 1241 c 2,41,-1
 431 709 l 2,42,43
 431 676 431 676 459 676 c 2,44,-1
 665 676 l 2,45,46
 743 676 743 676 762.5 705 c 128,-1,47
 782 734 782 734 782 793 c 2,48,-1
 782 867 l 2,49,50
 782 880 782 880 817 880.5 c 128,-1,51
 852 881 852 881 852 867 c 1,52,53
 844 796 844 796 844 653 c 128,-1,54
 844 510 844 510 852 430 c 1,55,56
 852 417 852 417 817 416.5 c 128,-1,57
 782 416 782 416 782 430 c 2,58,-1
 782 512 l 18,59,60
 782 555 782 555 762.5 581 c 128,-1,61
 743 607 743 607 665 607 c 10,62,-1
 456 607 l 2,63,64
 431 607 431 607 431 576 c 2,65,-1
 431 262 l 2,66,67
 431 149 431 149 496 94 c 0,68,69
 534 62 534 62 587 62 c 2,70,-1
 822 69 l 2,71,72
 1081 77 1081 77 1081 340 c 0,73,74
 1081 357 1081 357 1118.5 357 c 128,-1,75
 1156 357 1156 357 1156 340 c 2,76,-1
 1156 23 l 2,77,78
 1156 -2 1156 -2 1128 -5 c 0,79,80
 1112 -7 1112 -7 1083 -7 c 0,81,82
 967 -7 967 -7 727.5 -3.5 c 128,-1,83
 488 0 488 0 359 0 c 256,84,85
 230 0 230 0 84 -7 c 1,86,87
 70 -7 70 -7 70 30.5 c 128,-1,88
 70 68 70 68 84 69 c 0,89,90
 271 69 271 69 271 177 c 2,18,-1
EndSplineSet
Substitution2: "'c2sc' Capitals to Small Capitals in Latin lookup 3" egrave.sc
Ligature2: "'ccmp' Glyph Composition/Decomposition in Latin singles" E gravecomb
LCarets2: 1 0 
EndChar

StartChar: Eacute
Encoding: 201 201 136
Width: 1235
GlyphClass: 2
Flags: W
AnchorPoint: "below" 632 -75 basechar 0
LayerCount: 2
Fore
SplineSet
853 1640 m 2,0,-1
 556 1483 l 2,1,2
 538 1474 538 1474 524 1474 c 3,3,4
 512 1474 512 1474 500.5 1482.5 c 128,-1,5
 489 1491 489 1491 489 1504 c 3,6,7
 489 1514 489 1514 495.5 1525.5 c 128,-1,8
 502 1537 502 1537 511 1543 c 2,9,-1
 782 1742 l 2,10,11
 787 1746 787 1746 793 1746 c 3,12,13
 802 1746 802 1746 814 1738 c 128,-1,14
 826 1730 826 1730 837 1715 c 128,-1,15
 848 1700 848 1700 854.5 1683.5 c 128,-1,16
 861 1667 861 1667 861 1657 c 3,17,18
 861 1651 861 1651 859 1646.5 c 128,-1,19
 857 1642 857 1642 853 1640 c 2,0,-1
271 177 m 2,20,-1
 271 1172 l 2,21,22
 271 1282 271 1282 84 1282 c 0,23,24
 70 1282 70 1282 70 1320 c 128,-1,25
 70 1358 70 1358 84 1358 c 1,26,27
 224 1352 224 1352 354 1352 c 256,28,29
 484 1352 484 1352 704.5 1355 c 128,-1,30
 925 1358 925 1358 1017 1358 c 256,31,32
 1068 1358 1068 1358 1078.5 1351 c 128,-1,33
 1089 1344 1089 1344 1089 1331 c 2,34,-1
 1089 1010 l 2,35,36
 1089 993 1089 993 1051.5 993 c 128,-1,37
 1014 993 1014 993 1014 1010 c 0,38,39
 1014 1276 1014 1276 756 1282 c 2,40,-1
 472 1289 l 2,41,42
 431 1290 431 1290 431 1241 c 2,43,-1
 431 709 l 2,44,45
 431 676 431 676 459 676 c 2,46,-1
 665 676 l 2,47,48
 743 676 743 676 762.5 705 c 128,-1,49
 782 734 782 734 782 793 c 2,50,-1
 782 867 l 2,51,52
 782 880 782 880 817 880.5 c 128,-1,53
 852 881 852 881 852 867 c 1,54,55
 844 796 844 796 844 653 c 128,-1,56
 844 510 844 510 852 430 c 1,57,58
 852 417 852 417 817 416.5 c 128,-1,59
 782 416 782 416 782 430 c 2,60,-1
 782 512 l 18,61,62
 782 555 782 555 762.5 581 c 128,-1,63
 743 607 743 607 665 607 c 10,64,-1
 456 607 l 2,65,66
 431 607 431 607 431 576 c 2,67,-1
 431 262 l 2,68,69
 431 149 431 149 496 94 c 0,70,71
 534 62 534 62 587 62 c 2,72,-1
 822 69 l 2,73,74
 1081 77 1081 77 1081 340 c 0,75,76
 1081 357 1081 357 1118.5 357 c 128,-1,77
 1156 357 1156 357 1156 340 c 2,78,-1
 1156 23 l 2,79,80
 1156 -2 1156 -2 1128 -5 c 0,81,82
 1112 -7 1112 -7 1083 -7 c 0,83,84
 967 -7 967 -7 727.5 -3.5 c 128,-1,85
 488 0 488 0 359 0 c 256,86,87
 230 0 230 0 84 -7 c 1,88,89
 70 -7 70 -7 70 30.5 c 128,-1,90
 70 68 70 68 84 69 c 0,91,92
 271 69 271 69 271 177 c 2,20,-1
EndSplineSet
Substitution2: "'c2sc' Capitals to Small Capitals in Latin lookup 3" eacute.sc
Ligature2: "'ccmp' Glyph Composition/Decomposition in Latin singles" E acutecomb
LCarets2: 1 0 
EndChar

StartChar: Ecircumflex
Encoding: 202 202 137
Width: 1235
GlyphClass: 2
Flags: W
AnchorPoint: "below" 624 -75 basechar 0
LayerCount: 2
Fore
SplineSet
271 177 m 2,0,-1
 271 1172 l 2,1,2
 271 1282 271 1282 84 1282 c 0,3,4
 70 1282 70 1282 70 1320 c 128,-1,5
 70 1358 70 1358 84 1358 c 1,6,7
 224 1352 224 1352 354 1352 c 256,8,9
 484 1352 484 1352 704.5 1355 c 128,-1,10
 925 1358 925 1358 1017 1358 c 256,11,12
 1068 1358 1068 1358 1078.5 1351 c 128,-1,13
 1089 1344 1089 1344 1089 1331 c 2,14,-1
 1089 1010 l 2,15,16
 1089 993 1089 993 1051.5 993 c 128,-1,17
 1014 993 1014 993 1014 1010 c 0,18,19
 1014 1276 1014 1276 756 1282 c 2,20,-1
 472 1289 l 2,21,22
 431 1290 431 1290 431 1241 c 2,23,-1
 431 709 l 2,24,25
 431 676 431 676 459 676 c 2,26,-1
 665 676 l 2,27,28
 743 676 743 676 762.5 705 c 128,-1,29
 782 734 782 734 782 793 c 2,30,-1
 782 867 l 2,31,32
 782 880 782 880 817 880.5 c 128,-1,33
 852 881 852 881 852 867 c 1,34,35
 844 796 844 796 844 653 c 128,-1,36
 844 510 844 510 852 430 c 1,37,38
 852 417 852 417 817 416.5 c 128,-1,39
 782 416 782 416 782 430 c 2,40,-1
 782 512 l 18,41,42
 782 555 782 555 762.5 581 c 128,-1,43
 743 607 743 607 665 607 c 10,44,-1
 456 607 l 2,45,46
 431 607 431 607 431 576 c 2,47,-1
 431 262 l 2,48,49
 431 149 431 149 496 94 c 0,50,51
 534 62 534 62 587 62 c 2,52,-1
 822 69 l 2,53,54
 1081 77 1081 77 1081 340 c 0,55,56
 1081 357 1081 357 1118.5 357 c 128,-1,57
 1156 357 1156 357 1156 340 c 2,58,-1
 1156 23 l 2,59,60
 1156 -2 1156 -2 1128 -5 c 0,61,62
 1112 -7 1112 -7 1083 -7 c 0,63,64
 967 -7 967 -7 727.5 -3.5 c 128,-1,65
 488 0 488 0 359 0 c 256,66,67
 230 0 230 0 84 -7 c 1,68,69
 70 -7 70 -7 70 30.5 c 128,-1,70
 70 68 70 68 84 69 c 0,71,72
 271 69 271 69 271 177 c 2,0,-1
936 1507 m 2,73,74
 939 1504 939 1504 939.5 1498.5 c 128,-1,75
 940 1493 940 1493 932.5 1484.5 c 128,-1,76
 925 1476 925 1476 917 1476 c 0,77,78
 914 1476 914 1476 912 1477 c 2,79,-1
 666 1616 l 2,80,81
 650 1625 650 1625 632 1625 c 256,82,83
 614 1625 614 1625 598 1616 c 2,84,-1
 357 1477 l 2,85,86
 354 1475 354 1475 349 1475 c 0,87,88
 340 1475 340 1475 332 1483 c 128,-1,89
 324 1491 324 1491 324 1497 c 128,-1,90
 324 1503 324 1503 328 1507 c 2,91,-1
 588 1757 l 2,92,93
 611 1779 611 1779 632 1779 c 256,94,95
 653 1779 653 1779 676 1757 c 2,96,-1
 936 1507 l 2,73,74
EndSplineSet
Substitution2: "'c2sc' Capitals to Small Capitals in Latin lookup 3" ecircumflex.sc
Ligature2: "'ccmp' Glyph Composition/Decomposition in Latin singles" E uni0302
LCarets2: 1 0 
EndChar

StartChar: Edieresis
Encoding: 203 203 138
Width: 1235
GlyphClass: 2
Flags: W
AnchorPoint: "below" 608 -75 basechar 0
LayerCount: 2
Fore
SplineSet
271 177 m 2,0,-1
 271 1172 l 2,1,2
 271 1282 271 1282 84 1282 c 0,3,4
 70 1282 70 1282 70 1320 c 128,-1,5
 70 1358 70 1358 84 1358 c 1,6,7
 224 1352 224 1352 354 1352 c 256,8,9
 484 1352 484 1352 704.5 1355 c 128,-1,10
 925 1358 925 1358 1017 1358 c 256,11,12
 1068 1358 1068 1358 1078.5 1351 c 128,-1,13
 1089 1344 1089 1344 1089 1331 c 2,14,-1
 1089 1010 l 2,15,16
 1089 993 1089 993 1051.5 993 c 128,-1,17
 1014 993 1014 993 1014 1010 c 0,18,19
 1014 1276 1014 1276 756 1282 c 2,20,-1
 472 1289 l 2,21,22
 431 1290 431 1290 431 1241 c 2,23,-1
 431 709 l 2,24,25
 431 676 431 676 459 676 c 2,26,-1
 665 676 l 2,27,28
 743 676 743 676 762.5 705 c 128,-1,29
 782 734 782 734 782 793 c 2,30,-1
 782 867 l 2,31,32
 782 880 782 880 817 880.5 c 128,-1,33
 852 881 852 881 852 867 c 1,34,35
 844 796 844 796 844 653 c 128,-1,36
 844 510 844 510 852 430 c 1,37,38
 852 417 852 417 817 416.5 c 128,-1,39
 782 416 782 416 782 430 c 2,40,-1
 782 512 l 18,41,42
 782 555 782 555 762.5 581 c 128,-1,43
 743 607 743 607 665 607 c 10,44,-1
 456 607 l 2,45,46
 431 607 431 607 431 576 c 2,47,-1
 431 262 l 2,48,49
 431 149 431 149 496 94 c 0,50,51
 534 62 534 62 587 62 c 2,52,-1
 822 69 l 2,53,54
 1081 77 1081 77 1081 340 c 0,55,56
 1081 357 1081 357 1118.5 357 c 128,-1,57
 1156 357 1156 357 1156 340 c 2,58,-1
 1156 23 l 2,59,60
 1156 -2 1156 -2 1128 -5 c 0,61,62
 1112 -7 1112 -7 1083 -7 c 0,63,64
 967 -7 967 -7 727.5 -3.5 c 128,-1,65
 488 0 488 0 359 0 c 256,66,67
 230 0 230 0 84 -7 c 1,68,69
 70 -7 70 -7 70 30.5 c 128,-1,70
 70 68 70 68 84 69 c 0,71,72
 271 69 271 69 271 177 c 2,0,-1
512 1608 m 256,73,74
 512 1564 512 1564 481 1532.5 c 128,-1,75
 450 1501 450 1501 406 1501 c 128,-1,76
 362 1501 362 1501 330.5 1532.5 c 128,-1,77
 299 1564 299 1564 299 1608 c 128,-1,78
 299 1652 299 1652 330.5 1683 c 128,-1,79
 362 1714 362 1714 406 1714 c 128,-1,80
 450 1714 450 1714 481 1683 c 128,-1,81
 512 1652 512 1652 512 1608 c 256,73,74
954 1608 m 256,82,83
 954 1564 954 1564 922.5 1532.5 c 128,-1,84
 891 1501 891 1501 847 1501 c 128,-1,85
 803 1501 803 1501 772 1532.5 c 128,-1,86
 741 1564 741 1564 741 1608 c 128,-1,87
 741 1652 741 1652 772 1683 c 128,-1,88
 803 1714 803 1714 847 1714 c 128,-1,89
 891 1714 891 1714 922.5 1683 c 128,-1,90
 954 1652 954 1652 954 1608 c 256,82,83
EndSplineSet
Substitution2: "'c2sc' Capitals to Small Capitals in Latin lookup 3" edieresis.sc
Ligature2: "'ccmp' Glyph Composition/Decomposition in Latin singles" E uni0308
LCarets2: 1 0 
EndChar

StartChar: Igrave
Encoding: 204 204 139
Width: 683
GlyphClass: 2
Flags: W
AnchorPoint: "below" 332 -75 basechar 0
LayerCount: 2
Fore
SplineSet
455 1545 m 2,0,1
 464 1537 464 1537 470 1527 c 128,-1,2
 476 1517 476 1517 476 1506 c 3,3,4
 476 1493 476 1493 464.5 1483.5 c 128,-1,5
 453 1474 453 1474 439 1474 c 128,-1,6
 425 1474 425 1474 408 1483 c 2,7,-1
 127 1634 l 2,8,9
 121 1636 121 1636 116.5 1643.5 c 128,-1,10
 112 1651 112 1651 112 1660 c 3,11,12
 112 1678 112 1678 127.5 1700.5 c 128,-1,13
 143 1723 143 1723 156.5 1731 c 128,-1,14
 170 1739 170 1739 180 1739 c 3,15,16
 188 1739 188 1739 194 1734 c 2,17,-1
 455 1545 l 2,0,1
271 186 m 2,18,-1
 271 1172 l 2,19,20
 271 1287 271 1287 82 1287 c 0,21,22
 68 1287 68 1287 68 1325 c 128,-1,23
 68 1363 68 1363 82 1363 c 1,24,25
 126 1358 126 1358 346 1358 c 256,26,27
 566 1358 566 1358 611 1363 c 1,28,29
 624 1363 624 1363 624 1325 c 128,-1,30
 624 1287 624 1287 611 1287 c 0,31,32
 506 1287 506 1287 468.5 1262 c 128,-1,33
 431 1237 431 1237 431 1172 c 2,34,-1
 431 186 l 2,35,36
 431 69 431 69 611 69 c 0,37,38
 624 69 624 69 624 31 c 128,-1,39
 624 -7 624 -7 611 -7 c 1,40,41
 525 0 525 0 352 0 c 256,42,43
 179 0 179 0 93 -7 c 1,44,45
 80 -7 80 -7 80 31 c 128,-1,46
 80 69 80 69 93 69 c 0,47,48
 271 69 271 69 271 186 c 2,18,-1
EndSplineSet
Substitution2: "'c2sc' Capitals to Small Capitals in Latin lookup 3" igrave.sc
Ligature2: "'ccmp' Glyph Composition/Decomposition in Latin singles" I gravecomb
LCarets2: 1 0 
EndChar

StartChar: Iacute
Encoding: 205 205 140
Width: 683
GlyphClass: 2
Flags: W
AnchorPoint: "below" 336 -75 basechar 0
LayerCount: 2
Fore
SplineSet
621 1640 m 2,0,-1
 323 1483 l 2,1,2
 305 1474 305 1474 291 1474 c 3,3,4
 279 1474 279 1474 267.5 1482.5 c 128,-1,5
 256 1491 256 1491 256 1504 c 3,6,7
 256 1514 256 1514 262.5 1525.5 c 128,-1,8
 269 1537 269 1537 278 1543 c 2,9,-1
 549 1742 l 2,10,11
 554 1746 554 1746 561 1746 c 3,12,13
 570 1746 570 1746 581.5 1738 c 128,-1,14
 593 1730 593 1730 604.5 1715 c 128,-1,15
 616 1700 616 1700 622.5 1683.5 c 128,-1,16
 629 1667 629 1667 629 1657 c 3,17,18
 629 1651 629 1651 627 1646.5 c 128,-1,19
 625 1642 625 1642 621 1640 c 2,0,-1
271 186 m 2,20,-1
 271 1172 l 2,21,22
 271 1287 271 1287 82 1287 c 0,23,24
 68 1287 68 1287 68 1325 c 128,-1,25
 68 1363 68 1363 82 1363 c 1,26,27
 126 1358 126 1358 346 1358 c 256,28,29
 566 1358 566 1358 611 1363 c 1,30,31
 624 1363 624 1363 624 1325 c 128,-1,32
 624 1287 624 1287 611 1287 c 0,33,34
 506 1287 506 1287 468.5 1262 c 128,-1,35
 431 1237 431 1237 431 1172 c 2,36,-1
 431 186 l 2,37,38
 431 69 431 69 611 69 c 0,39,40
 624 69 624 69 624 31 c 128,-1,41
 624 -7 624 -7 611 -7 c 1,42,43
 525 0 525 0 352 0 c 256,44,45
 179 0 179 0 93 -7 c 1,46,47
 80 -7 80 -7 80 31 c 128,-1,48
 80 69 80 69 93 69 c 0,49,50
 271 69 271 69 271 186 c 2,20,-1
EndSplineSet
Substitution2: "'c2sc' Capitals to Small Capitals in Latin lookup 3" iacute.sc
Ligature2: "'ccmp' Glyph Composition/Decomposition in Latin singles" I acutecomb
LCarets2: 1 0 
EndChar

StartChar: Icircumflex
Encoding: 206 206 141
Width: 683
GlyphClass: 2
Flags: W
AnchorPoint: "below" 353 -75 basechar 0
LayerCount: 2
Fore
SplineSet
271 186 m 2,0,-1
 271 1172 l 2,1,2
 271 1287 271 1287 82 1287 c 0,3,4
 68 1287 68 1287 68 1325 c 128,-1,5
 68 1363 68 1363 82 1363 c 1,6,7
 126 1358 126 1358 346 1358 c 256,8,9
 566 1358 566 1358 611 1363 c 1,10,11
 624 1363 624 1363 624 1325 c 128,-1,12
 624 1287 624 1287 611 1287 c 0,13,14
 506 1287 506 1287 468.5 1262 c 128,-1,15
 431 1237 431 1237 431 1172 c 2,16,-1
 431 186 l 2,17,18
 431 69 431 69 611 69 c 0,19,20
 624 69 624 69 624 31 c 128,-1,21
 624 -7 624 -7 611 -7 c 1,22,23
 525 0 525 0 352 0 c 256,24,25
 179 0 179 0 93 -7 c 1,26,27
 80 -7 80 -7 80 31 c 128,-1,28
 80 69 80 69 93 69 c 0,29,30
 271 69 271 69 271 186 c 2,0,-1
646 1507 m 2,31,32
 649 1504 649 1504 649.5 1498.5 c 128,-1,33
 650 1493 650 1493 642.5 1484.5 c 128,-1,34
 635 1476 635 1476 627 1476 c 0,35,36
 624 1476 624 1476 622 1477 c 2,37,-1
 376 1616 l 2,38,39
 360 1625 360 1625 342 1625 c 256,40,41
 324 1625 324 1625 308 1616 c 2,42,-1
 67 1477 l 2,43,44
 64 1475 64 1475 59 1475 c 0,45,46
 50 1475 50 1475 42 1483 c 128,-1,47
 34 1491 34 1491 34 1497 c 128,-1,48
 34 1503 34 1503 38 1507 c 2,49,-1
 298 1757 l 2,50,51
 321 1779 321 1779 342 1779 c 256,52,53
 363 1779 363 1779 386 1757 c 2,54,-1
 646 1507 l 2,31,32
EndSplineSet
Substitution2: "'c2sc' Capitals to Small Capitals in Latin lookup 3" icircumflex.sc
Ligature2: "'ccmp' Glyph Composition/Decomposition in Latin singles" I uni0302
LCarets2: 1 0 
EndChar

StartChar: Idieresis
Encoding: 207 207 142
Width: 683
GlyphClass: 2
Flags: W
AnchorPoint: "below" 344 -75 basechar 0
LayerCount: 2
Fore
SplineSet
271 186 m 2,0,-1
 271 1172 l 2,1,2
 271 1287 271 1287 82 1287 c 0,3,4
 68 1287 68 1287 68 1325 c 128,-1,5
 68 1363 68 1363 82 1363 c 1,6,7
 126 1358 126 1358 346 1358 c 256,8,9
 566 1358 566 1358 611 1363 c 1,10,11
 624 1363 624 1363 624 1325 c 128,-1,12
 624 1287 624 1287 611 1287 c 0,13,14
 506 1287 506 1287 468.5 1262 c 128,-1,15
 431 1237 431 1237 431 1172 c 2,16,-1
 431 186 l 2,17,18
 431 69 431 69 611 69 c 0,19,20
 624 69 624 69 624 31 c 128,-1,21
 624 -7 624 -7 611 -7 c 1,22,23
 525 0 525 0 352 0 c 256,24,25
 179 0 179 0 93 -7 c 1,26,27
 80 -7 80 -7 80 31 c 128,-1,28
 80 69 80 69 93 69 c 0,29,30
 271 69 271 69 271 186 c 2,0,-1
232 1608 m 256,31,32
 232 1564 232 1564 201 1532.5 c 128,-1,33
 170 1501 170 1501 126 1501 c 128,-1,34
 82 1501 82 1501 50.5 1532.5 c 128,-1,35
 19 1564 19 1564 19 1608 c 128,-1,36
 19 1652 19 1652 50.5 1683 c 128,-1,37
 82 1714 82 1714 126 1714 c 128,-1,38
 170 1714 170 1714 201 1683 c 128,-1,39
 232 1652 232 1652 232 1608 c 256,31,32
674 1608 m 256,40,41
 674 1564 674 1564 642.5 1532.5 c 128,-1,42
 611 1501 611 1501 567 1501 c 128,-1,43
 523 1501 523 1501 492 1532.5 c 128,-1,44
 461 1564 461 1564 461 1608 c 128,-1,45
 461 1652 461 1652 492 1683 c 128,-1,46
 523 1714 523 1714 567 1714 c 128,-1,47
 611 1714 611 1714 642.5 1683 c 128,-1,48
 674 1652 674 1652 674 1608 c 256,40,41
EndSplineSet
Substitution2: "'c2sc' Capitals to Small Capitals in Latin lookup 3" idieresis.sc
Ligature2: "'ccmp' Glyph Composition/Decomposition in Latin singles" I uni0308
LCarets2: 1 0 
EndChar

